<?xml version="1.0" standalone="no"?>
<!DOCTYPE svg PUBLIC "-//W3C//DTD SVG 1.1//EN" "http://www.w3.org/Graphics/SVG/1.1/DTD/svg11.dtd" >
<svg>
<metadata>
Created by FontForge 20120731 at Sun Nov 23 22:01:18 2014
 By Orthosie Webhosting
(c) Copyright 1997 International Typeface Corporation. All rights reserved.
</metadata>
<defs>
<font id="EdwardianScrAltITCTTRegular" horiz-adv-x="478" >
  <font-face 
    font-family="EdwardianScrAltITCTTRegular"
    font-weight="400"
    font-style="italic"
    font-stretch="normal"
    units-per-em="1000"
    panose-1="0 0 4 0 0 0 0 0 0 0"
    ascent="800"
    descent="-200"
    x-height="261"
    cap-height="651"
    bbox="-322 -328 1692 848"
    underline-thickness="21"
    underline-position="-84"
    slope="-31"
    unicode-range="U+0020-F002"
  />
<missing-glyph horiz-adv-x="500" 
d="M63 0v697h375v-697h-375zM125 63h250v572h-250v-572z" />
    <glyph glyph-name=".notdef" horiz-adv-x="500" 
d="M63 0v697h375v-697h-375zM125 63h250v572h-250v-572z" />
    <glyph glyph-name=".null" horiz-adv-x="0" 
 />
    <glyph glyph-name="glyph2" horiz-adv-x="177" 
 />
    <glyph glyph-name="space" unicode=" " horiz-adv-x="177" 
 />
    <glyph glyph-name="exclam" unicode="!" horiz-adv-x="287" 
d="M441 539q0 -23 -112 -177q-122 -169 -162 -248q-3 -6 -7 -6t-4 5q0 1 6 10q50 73 162 330q29 65 48 90t41 25q28 0 28 -29zM161 57q0 -22 -20 -42t-41 -20t-21 22q0 20 21 40t42 20q19 0 19 -20z" />
    <glyph glyph-name="quotedbl" unicode="&#x22;" 
d="M598 620q0 -15 -6.5 -30t-48.5 -96q-28 -55 -39 -87h-8q7 24 36 154q17 82 47 82q19 0 19 -23zM516 619q0 -19 -22 -61q-56 -106 -72 -151h-9q15 52 36 154q17 82 48 82q19 0 19 -24z" />
    <glyph glyph-name="numbersign" unicode="#" horiz-adv-x="915" 
d="M897 256q0 -128 -132 -215q-110 -72 -229 -72q-53 0 -93 18q-35 -8 -63 -8q-76 0 -128 44.5t-65 120.5q-112 -144 -181 -144q-6 0 -6 4q0 3 11 4q67 7 174 144q-2 16 -2 34q0 137 116.5 238.5t274.5 101.5q135 0 229 -78.5t94 -191.5zM861 280q0 108 -79.5 174.5
t-209.5 66.5q-151 0 -267 -100.5t-116 -230.5q0 -16 2 -30q193 247 356 247q67 0 111.5 -44t44.5 -110q0 -82 -70.5 -157t-177.5 -107q34 -14 80 -14q131 0 228.5 91.5t97.5 213.5zM679 272q0 59 -35.5 94t-95.5 35q-82 0 -176.5 -66.5t-179.5 -183.5q11 -77 62 -121.5
t130 -44.5q23 0 51 6q-71 42 -71 109q0 35 21.5 60t51.5 25q23 0 38.5 -15.5t15.5 -39.5q0 -16 -7 -16q-4 0 -4 4l2 6l1 12q1 18 -12.5 30.5t-33.5 12.5q-28 0 -47 -23t-19 -56q0 -73 73 -106q97 26 166 108t69 170z" />
    <glyph glyph-name="dollar" unicode="$" 
d="M602 375q0 -37 -34 -62t-84 -25q-65 0 -65 47q0 19 19.5 42.5t35.5 23.5q4 0 4 -3q0 -2 -2 -2q-49 -22 -49 -60q0 -39 44 -39q32 0 65 31t33 62q0 53 -74 53q-55 0 -101 -35.5t-46 -78.5q0 -19 14.5 -35t77.5 -66q56 -44 56 -94q0 -64 -63.5 -110t-149.5 -46q-11 0 -22 1
l-98 -183q-4 -8 -9 -8t-5 6q0 4 4 11l98 176q-115 19 -115 101q0 44 49.5 82t105.5 38q6 0 7 -2q0 -3 -11 -5q-46 -9 -77 -43t-31 -74q0 -44 27.5 -69t76.5 -25q66 0 114.5 35t48.5 84q0 26 -13.5 42.5t-75 62.5t-61.5 94q0 57 59.5 102.5t134.5 45.5q11 0 21 -1l75 142
q6 11 10 11q5 0 5 -6q0 -2 -4 -12l-75 -137q80 -16 80 -72z" />
    <glyph glyph-name="percent" unicode="%" horiz-adv-x="1489" 
d="M1471 256q0 -128 -132 -215q-110 -72 -229 -72q-53 0 -93 18q-35 -8 -63 -8q-103 0 -160 79q-69 -49 -128.5 -69t-133.5 -20q-134 0 -228 78.5t-94 191.5q0 128 132 215q109 72 230 72q51 0 92 -17q33 8 63 8q102 0 161 -81q118 90 260 90q135 0 229 -78.5t94 -191.5z
M1435 280q0 108 -79.5 174.5t-209.5 66.5q-138 0 -255 -90q23 -38 32 -91q93 68 193 68q70 0 115.5 -43.5t45.5 -111.5q0 -82 -71 -157t-178 -107q34 -14 82 -14q130 0 227.5 91.5t97.5 213.5zM1252 273q0 59 -35.5 93.5t-95.5 34.5q-89 0 -196 -88q2 -66 -32 -134.5
t-93 -115.5q54 -78 158 -78q23 0 50 6q-70 42 -70 109q0 35 21.5 60t51.5 25q24 0 39 -15.5t15 -39.5q0 -16 -7 -16q-4 0 -4 3l1 7q2 3 2 11q0 19 -13 31.5t-33 12.5q-28 0 -47 -23t-19 -56q0 -72 73 -106q97 26 165.5 108t68.5 171zM917 337q-9 55 -32 90
q-55 -46 -87.5 -108t-34.5 -122q100 98 154 140zM919 308q-14 -11 -43 -37l-65 -62q-23 -22 -47 -40q6 -62 32 -101q54 39 90 109.5t33 130.5zM882 432q-55 79 -159 79q-21 0 -50 -6q70 -41 70 -110q0 -35 -21.5 -60t-51.5 -25q-24 0 -39 15.5t-15 40.5q0 16 7 16q4 0 4 -4
l-1 -6q-2 -6 -2 -12q0 -19 13.5 -31.5t33.5 -12.5q27 0 46.5 23.5t19.5 55.5q0 72 -74 107q-100 -30 -167 -110t-67 -169q0 -58 35.5 -93t94.5 -35q99 0 198 96q0 65 33.5 130t91.5 111zM791 63q-26 41 -32 101q-99 -76 -195 -76q-70 0 -115 43.5t-45 111.5q0 82 71 157
t178 106q-34 14 -81 14q-130 0 -228 -91t-98 -213q0 -108 79.5 -174.5t207.5 -66.5q136 0 258 88z" />
    <glyph glyph-name="ampersand" unicode="&#x26;" horiz-adv-x="889" 
d="M997 223q0 -86 -55 -146t-134 -60q-31 0 -74 16q-77 -50 -169 -50q-77 0 -138 35t-89 94q-65 22 -102.5 71t-37.5 113q0 114 102.5 192.5t250.5 78.5q83 0 167 -26q37 43 75.5 72t58.5 29q17 0 17 -16q0 -29 -98 -105q104 -47 165 -127.5t61 -170.5zM860 626q0 8 -8 8
q-16 0 -53 -29t-71 -67l4 -2l10 -3l13 -6l6 -2q38 26 68.5 57t30.5 44zM753 519q-16 6 -31 11q-19 -24 -37 -53q26 13 68 42zM973 243q0 86 -54.5 157t-155.5 115q-34 -25 -85 -53q-22 -43 -36 -97q28 5 48 5q29 0 54 -8q19 38 24 71q2 14 9 14q6 0 6 -8q0 -22 -27 -81
q88 -38 88 -138q0 -106 -101 -181q26 -10 53 -10q73 0 125 63t52 151zM741 355q-27 7 -51 7q-23 0 -50 -7q-14 -52 -14 -122q0 -17 1 -30q74 68 114 152zM827 233q0 82 -75 118q-47 -92 -124 -159q6 -62 46 -107q66 40 67 95q0 14 10 14q11 0 11 -12q0 -21 -25 -53t-56 -50
q7 -7 29 -24l5 -3q51 38 81.5 87t30.5 94zM712 534q-69 22 -138 22q-137 0 -242 -85.5t-105 -196.5q0 -105 105 -149q-11 30 -11 60q0 117 148 201q39 22 200 83q16 28 43 65zM660 452q-17 -9 -52 -26q-243 -123 -243 -279q0 -14 4 -33q30 -3 40 -3q32 0 71 10
q-15 29 -15 56q0 58 44 108.5t113 73.5q11 38 38 93zM619 348q-58 -26 -94 -74.5t-36 -100.5q0 -22 9 -46q60 19 109 59q-6 30 -6 53q0 48 18 109zM664 80q-42 46 -55 97q-50 -38 -106 -59q29 -52 102 -52q28 0 59 14zM707 46q-25 16 -36 28q-38 -17 -73 -17q-70 0 -112 56
q-42 -12 -76 -12q-15 0 -38 3q19 -49 70 -79.5t113 -30.5q75 0 152 52z" />
    <glyph glyph-name="quotesingle" unicode="'" horiz-adv-x="321" 
d="M479 619q0 -19 -22 -61q-56 -106 -72 -151h-9q15 52 36 154q17 82 48 82q19 0 19 -24z" />
    <glyph glyph-name="parenleft" unicode="(" horiz-adv-x="439" 
d="M854 704q0 -4 -18 -7q-199 -32 -360 -221t-161 -391q0 -95 60 -154q3 -3 3 -5q-1 -3 -3 -3q-6 0 -31 29q-69 79 -69 201q0 136 90.5 272t227.5 207q50 26 133.5 51t120.5 25q7 0 7 -4z" />
    <glyph glyph-name="parenright" unicode=")" horiz-adv-x="439" 
d="M462 497q0 -105 -24.5 -181t-81.5 -150q-66 -85 -147 -138t-199 -88q-84 -25 -102 -25q-5 0 -5 4t12 6q192 36 349.5 227.5t157.5 389.5q0 100 -59 154q-4 3 -4 6t4 3t19 -15q80 -78 80 -193z" />
    <glyph glyph-name="asterisk" unicode="*" horiz-adv-x="712" 
d="M875 342q0 -104 -71.5 -198.5t-170.5 -120.5q28 -21 65 -21q75 0 123 68q2 5 6 5q3 -1 3 -4q0 -8 -28 -33q-48 -43 -104 -43q-42 0 -75 26q-19 -3 -30 -3q-39 0 -83 22q-74 -44 -159 -44q-80 0 -136.5 49t-56.5 119q0 90 92 162q47 37 212 110q4 2 47 22q153 214 237 214
q26 0 26 -25q0 -40 -61.5 -88.5t-165.5 -91.5q-68 -125 -68 -253q0 -102 51 -156q29 20 48 36q-12 39 -12 80q0 96 56.5 185.5t126.5 105.5q2 16 4 54q1 7 4 7t3 -8q0 -17 -3 -47v-5q7 1 16 1q46 0 75 -35t29 -90zM765 648q0 17 -20 17q-38 0 -95 -55.5t-100 -134.5
q215 111 215 173zM850 340q0 54 -23 87t-60 33q-8 0 -13 -1q-13 -129 -51 -210t-119 -157q13 -38 42 -64q88 17 156 111.5t68 200.5zM747 458q-71 -21 -121 -109t-50 -193q0 -27 6 -56q142 141 165 358zM618 26q-25 24 -40 61q-20 -17 -45 -34q33 -27 73 -27h12zM503 44
q-90 50 -90 161q0 104 90 243q-140 -68 -215 -152t-75 -173q0 -56 37 -88t102 -32q81 0 151 41z" />
    <glyph glyph-name="plus" unicode="+" horiz-adv-x="100" 
d="M196 158q0 -1 -2 -3l-5 -9q-30 -43 -88.5 -109.5t-66.5 -66.5q-3 1 -3 2q1 3 3 4q43 42 155 182l4 5l1 -2q1 -2 2 -3z" />
    <glyph glyph-name="comma" unicode="," horiz-adv-x="223" 
d="M151 59q0 -33 -36 -72q-14 -15 -36.5 -29.5t-31.5 -14.5q-3 0 -3 3t4 4q20 7 36.5 20.5t16.5 23.5q0 3 -5 3q-22 0 -22 21q0 19 20 40.5t37 21.5q20 0 20 -21z" />
    <glyph glyph-name="hyphen" unicode="-" horiz-adv-x="358" 
d="M358 133q0 -6 -40 -18.5t-61 -12.5q-20 0 -41 5q-25 6 -38 6q-20 0 -39 -10q-1 -1 -3 -1t-2 2q0 6 38 19t55 13q10 0 42 -7q27 -6 39 -6q23 0 43 10q3 2 5 2t2 -2z" />
    <glyph glyph-name="hyphen" unicode="&#x2010;" horiz-adv-x="358" 
d="M358 133q0 -6 -40 -18.5t-61 -12.5q-20 0 -41 5q-25 6 -38 6q-20 0 -39 -10q-1 -1 -3 -1t-2 2q0 6 38 19t55 13q10 0 42 -7q27 -6 39 -6q23 0 43 10q3 2 5 2t2 -2z" />
    <glyph glyph-name="period" unicode="." horiz-adv-x="223" 
d="M170 57q0 -22 -20 -42t-41 -20t-21 22q0 20 21 40t42 20q19 0 19 -20z" />
    <glyph glyph-name="slash" unicode="/" horiz-adv-x="529" 
d="M710 726l-525 -827h-15l525 827h15z" />
    <glyph glyph-name="zero" unicode="0" 
d="M631 386q0 -111 -112 -238q-136 -154 -252 -154q-58 0 -95.5 42t-37.5 107q0 131 161 267q139 117 222 117q52 0 83 -38.5t31 -102.5zM595 440q0 80 -77 80q-63 0 -146 -74q-78 -71 -134 -169q-59 -105 -59 -184q0 -92 87 -92q107 0 216 150q51 70 82 149.5t31 139.5z
" />
    <glyph glyph-name="one" unicode="1" 
d="M610 507q0 -5 -111 -176q-89 -137 -123 -202.5t-51 -131.5q-17 4 -30 4q-14 0 -53 -6q33 97 203 302q104 125 138 179q-127 -150 -255 -248q-83 -63 -99 -63q-4 0 -4 3t6 6q124 56 360 318l6 7q9 10 11 10t2 -2z" />
    <glyph glyph-name="two" unicode="2" 
d="M632 415q0 -67 -56 -120q-40 -38 -82.5 -60.5t-167.5 -72.5q-156 -63 -215 -134q44 34 95 34q41 0 108 -21q58 -18 88 -18q41 0 76.5 33.5t48.5 85.5q1 6 5 6q2 0 2 -2q0 -28 -33 -74q-61 -85 -152 -85q-34 0 -100 20q-80 24 -101 24q-51 0 -56 -41q-1 -11 -7 -11
q-4 0 -4 4q0 23 39 63q34 35 69.5 57t133.5 68q123 58 192.5 132.5t69.5 148.5q0 31 -23 49t-61 18q-86 0 -186 -88t-100 -164q0 -55 66 -55q52 0 117 51.5t89 111.5q1 5 4 5t3 -3q0 -21 -42 -71q-37 -43 -84.5 -71t-85.5 -28q-37 0 -60 22.5t-23 59.5q0 91 121 171
q99 65 183 65q57 0 93 -30.5t36 -79.5z" />
    <glyph glyph-name="three" unicode="3" 
d="M603 438q0 -116 -201 -151q118 -27 118 -120q0 -70 -80.5 -123.5t-186.5 -53.5q-67 0 -110 27t-43 69q0 44 42.5 74.5t103.5 30.5q46 0 46 -6q0 -3 -3 -3h-4q-18 3 -30 3q-53 0 -90 -30.5t-37 -74.5q0 -36 29 -59t75 -23q89 0 164 63.5t75 139.5q0 63 -77 83
q-42 -6 -69 -6q-25 0 -25 6q0 10 36 10q28 0 58 -5q74 25 118 72t44 102q0 62 -79 62q-68 0 -136.5 -47t-68.5 -95q0 -44 56 -44q34 0 76.5 27t66.5 64q2 5 6 5q2 0 2 -2q0 -5 -18.5 -25.5t-34.5 -33.5q-52 -41 -100 -41q-28 0 -46.5 17t-18.5 43q0 50 69.5 94t147.5 44
q57 0 91 -25t34 -68z" />
    <glyph glyph-name="four" unicode="4" 
d="M782 570q0 -4 -4 -4q-1 0 -5 1q-23 8 -44 8q-127 0 -326 -206q-98 -101 -144 -140t-107 -71q57 15 151 15q35 0 58 -2q27 41 116 164q77 106 96 146q3 6 6 6q2 0 2 -2q0 -1 -1 -3l-5 -10q-6 -12 -69 -125.5t-94 -178.5q30 -2 56 -2q51 0 83 22.5t32 57.5q0 13 -7 28
q-1 2 -1 5t3 3q11 0 11 -36q0 -98 -187 -98q-43 -93 -52 -150q-18 6 -36 6q-23 0 -49 -6q26 70 81 150q-11 0 -52 4q-57 6 -85 6q-27 0 -60 -4q-58 -37 -93 -37q-8 0 -8 5q0 17 94 36q67 40 112 79q43 36 144 140q203 208 331 208q18 0 35.5 -5t17.5 -10z" />
    <glyph glyph-name="five" unicode="5" 
d="M638 537q0 -31 -28 -54.5t-64 -23.5q-27 0 -66.5 14t-60.5 14q-28 0 -41 -34q-28 -75 -72 -135q41 19 82 19q66 0 110 -37.5t44 -93.5q0 -83 -92 -149t-208 -66q-61 0 -99.5 27.5t-38.5 71.5q0 50 49.5 84t123.5 34q42 0 42 -6q-1 -2 -3 -2q-6 0 -17.5 1t-17.5 1
q-65 0 -107 -33.5t-42 -86.5q0 -39 27.5 -61.5t74.5 -22.5q89 0 173.5 74.5t84.5 153.5q0 47 -31.5 74.5t-83.5 27.5q-35 0 -77 -16q-52 -66 -71 -66q-6 0 -6 5q0 19 72 61q86 115 86 198q0 9 -1 12t-1 6q0 6 6 6t6 -16q0 -14 -6 -40q28 48 73 48q18 0 94 -26q26 -9 41 -9
t26.5 11t11.5 26q0 4 -2 9t-2 7q0 6 5 6q6 0 6 -13z" />
    <glyph glyph-name="six" unicode="6" 
d="M647 571q0 -5 -10 -5h-9q-87 0 -215 -124t-191 -269q49 79 114 127.5t123 48.5q49 0 79.5 -30t30.5 -78q0 -86 -95 -168.5t-195 -82.5q-55 0 -87.5 35.5t-32.5 94.5q0 88 73 185t204 184q53 35 113.5 61t88.5 26q9 0 9 -5zM527 277q0 66 -73 66q-77 0 -165 -91t-88 -172
q0 -38 19 -61t51 -23q76 0 166 99t90 182z" />
    <glyph glyph-name="seven" unicode="7" 
d="M640 549q0 -22 -24 -62q-19 -32 -38 -53q-23 -25 -101 -102q-196 -192 -204 -334q-23 5 -45 5q-20 0 -38 -5q17 95 87.5 180.5t229.5 205.5q85 64 112 121q-35 -52 -106 -52q-36 0 -96 22t-77 22q-15 0 -29 -8l-3 -6q-38 -76 -55 -76q-6 0 -6 6q0 25 57 76q11 22 11 38
q0 6 -3 16v2q0 6 6 6t6 -10q0 -18 -11 -45q39 32 79 32q24 0 98 -25q42 -14 69 -14q68 0 68 48q0 4 -1 9v3q0 8 7 8t7 -8z" />
    <glyph glyph-name="eight" unicode="8" 
d="M648 454q0 -86 -207 -147q46 -43 61.5 -69.5t15.5 -59.5q0 -73 -74 -130.5t-168 -57.5q-67 0 -109 30.5t-42 80.5q0 59 58 103t198 91q-49 48 -49 90q0 57 63 104t140 47q48 0 80.5 -23.5t32.5 -58.5zM615 469q0 26 -23 43.5t-57 17.5q-62 0 -109 -36t-47 -83
q0 -27 20 -55q8 -11 39 -45q81 28 129 71t48 87zM468 147q0 41 -27 79q-7 11 -57 65q-221 -81 -221 -207q0 -88 112 -88q79 0 136 44.5t57 106.5z" />
    <glyph glyph-name="nine" unicode="9" 
d="M612 400q0 -83 -75 -179t-203 -178q-57 -36 -120.5 -61.5t-96.5 -25.5q-8 0 -8 5q0 7 12 7h7q89 0 220 118t195 254q-48 -71 -118 -118t-128 -47q-47 0 -75 28.5t-28 76.5q0 87 100 165q48 38 105 62t98 24q51 0 83 -36.5t32 -94.5zM570 442q0 83 -72 83q-75 0 -169 -100
t-94 -180q0 -63 67 -63q44 0 105 36.5t105 88.5q58 69 58 135z" />
    <glyph glyph-name="colon" unicode=":" horiz-adv-x="223" 
d="M258 200q0 -22 -20 -42t-41 -20t-21 22q0 20 20.5 40t42.5 20q19 0 19 -20zM170 57q0 -22 -20 -42t-41 -20t-21 22q0 20 21 40t42 20q19 0 19 -20z" />
    <glyph glyph-name="semicolon" unicode=";" horiz-adv-x="223" 
d="M248 204q0 -22 -20 -42t-41 -20t-21 21t20.5 41t42.5 20q19 0 19 -20zM152 59q0 -33 -36 -72q-14 -15 -36.5 -29.5t-31.5 -14.5q-3 0 -3 3t4 4q20 7 36.5 20.5t16.5 23.5q0 3 -5 3q-22 0 -22 21q0 19 20 40.5t37 21.5q20 0 20 -21z" />
    <glyph glyph-name="less" unicode="&#x3c;" horiz-adv-x="523" 
d="M614 137l-433 186v21l433 186v-21l-410 -176l410 -175v-21z" />
    <glyph glyph-name="equal" unicode="=" horiz-adv-x="108" 
d="M241 226q0 -13 -55.5 -85.5t-105.5 -125.5q-11 -11 -21 -22q-16 -17 -22 -17q-3 1 -3 2q0 2 7 8q38 33 102.5 112.5t96.5 132.5q1 -3 1 -5z" />
    <glyph glyph-name="greater" unicode="&#x3e;" horiz-adv-x="523" 
d="M661 323l-433 -186v21l410 175l-410 176v21l433 -186v-21z" />
    <glyph glyph-name="question" unicode="?" horiz-adv-x="436" 
d="M612 444q0 -77 -93 -135q-34 -21 -164 -71q-134 -51 -134 -106q0 -25 26 -25q44 0 83 57q2 3 4 3q2 -1 2 -3q0 -8 -28 -34q-33 -30 -61 -30q-33 0 -33 31q0 26 31 54q15 13 28 21q18 12 83 48q206 115 206 225q0 80 -96 91q4 -19 4 -37q0 -86 -69 -164.5t-145 -78.5
q-32 0 -53.5 21t-21.5 52q0 80 86.5 146t189.5 66q-25 60 -83 60q-20 0 -38 -7q-4 -2 -5 -2q-3 1 -3 3q0 4 16.5 8.5t29.5 4.5q63 0 90 -67q65 -4 106.5 -41t41.5 -90zM233 57q0 -22 -20 -42t-41 -20t-21 22q0 20 21 40t42 20q19 0 19 -20zM464 533q0 18 -5 37
q-98 0 -184 -81q-79 -74 -79 -139q0 -53 59 -53q70 0 139.5 79t69.5 157z" />
    <glyph glyph-name="at" unicode="@" horiz-adv-x="813" 
d="M795 256q0 -128 -132 -215q-110 -72 -229 -72q-53 0 -93 18q-35 -8 -63 -8q-88 0 -142.5 58t-54.5 150q0 137 117 238t274 101q135 0 229 -78.5t94 -191.5zM759 280q0 108 -79.5 174.5t-209.5 66.5q-152 0 -267.5 -100.5t-115.5 -233.5q0 -16 2 -27q193 247 356 247
q66 0 111 -44.5t45 -109.5q0 -82 -71 -157t-178 -107q35 -14 81 -14q131 0 228.5 91.5t97.5 213.5zM576 273q0 58 -35.5 93t-94.5 35q-82 0 -178 -67.5t-178 -182.5q11 -77 62 -121.5t130 -44.5q23 0 50 6q-70 41 -70 109q0 35 21.5 60t51.5 25q23 0 38.5 -15.5t15.5 -39.5
q0 -16 -7 -16q-4 0 -4 3l1 7q2 4 2 12q0 18 -13.5 30.5t-33.5 12.5q-27 0 -46.5 -23t-19.5 -56q0 -71 74 -106q97 26 165.5 108t68.5 171z" />
    <glyph glyph-name="A" unicode="A" horiz-adv-x="908" 
d="M872 496q0 -5 -18 -26q-50 -57 -94 -57q-29 0 -46.5 20t-17.5 52q0 27 32 88q15 28 15 47q0 25 -27 42t-66 17q-112 0 -207.5 -86t-95.5 -186q0 -50 32 -82.5t83 -32.5q55 0 111 40.5t79 96.5q1 5 4 5q4 0 4 -5q0 -10 -17 -36t-35 -44q-66 -65 -148 -65q-55 0 -89 34.5
t-34 90.5q0 103 99.5 191t215.5 88q51 0 80 -25.5t29 -69.5q0 -34 -23 -79q-21 -41 -21 -56q0 -36 43 -36q49 0 101 72q4 6 7 6q4 0 4 -4zM1395 585q0 -9 -10 -9q-5 0 -33 6q-52 11 -87 11q-79 -24 -139 -93t-137 -223q-118 -237 -303 -280q38 -6 67 -6q90 0 151 58
q59 55 98 118q4 7 7 7t3 -2q0 -8 -56 -76q-52 -64 -95 -88t-105 -24q-36 0 -87 10q-31 -10 -72 -10q-28 0 -28 10q0 12 38 12q27 0 62 -5q76 18 114.5 59.5t149.5 224.5h-188q-119 -126 -185 -179q-153 -124 -288 -124q-77 0 -131 36t-54 88q0 27 16.5 46t39.5 19
q32 0 32 -31q0 -16 -11 -27.5t-26 -11.5q-23 0 -23 22l1 10q1 2 1 5q0 5 -4 5q-5 0 -10 -12t-5 -25q0 -48 50.5 -81t123.5 -33q105 0 231 103q29 23 64 61q70 73 111 114l15 15h-95l6 9q47 0 96 -1q143 159 277.5 232.5t284.5 74.5q35 7 65 7q68 0 68 -22zM1240 591
q-127 -7 -236 -73.5t-251 -224.5h185q63 109 150.5 195t151.5 103z" />
    <glyph glyph-name="B" unicode="B" horiz-adv-x="929" 
d="M1215 508q0 -26 -7 -56t-13 -30q-5 0 -5 5q0 1 1 4q13 34 13 74q0 61 -36.5 98.5t-96.5 37.5q-81 0 -166 -53q68 -51 68 -119q0 -109 -148 -129q122 -43 122 -156q0 -84 -71.5 -147t-167.5 -63q-46 0 -73 24t-27 64q0 62 57.5 123.5t115.5 61.5q32 0 52.5 -20t20.5 -52
q0 -19 -11.5 -47.5t-19.5 -28.5q-5 0 -5 4q0 2 2 6q25 37 25 67q0 28 -18 45t-47 17q-55 0 -108 -58t-53 -119q0 -32 22 -53.5t55 -21.5q74 0 136.5 72.5t62.5 159.5q0 81 -78 119l-28 -4q-12 -1 -24 -1q-37 0 -37 12q0 9 31 9q22 0 58 -9q51 16 80.5 55t29.5 90
q0 49 -38 88q-107 -82 -201 -278q-58 -121 -105.5 -174t-134.5 -96q-102 -50 -182 -50q-65 0 -108.5 30t-43.5 75q0 25 15 43t35 18q30 0 30 -33q0 -17 -10 -28.5t-25 -11.5q-25 0 -24 26q0 10 -2 11q-8 0 -8 -26q0 -41 39.5 -67.5t100.5 -26.5q107 0 194 79
q38 34 65.5 71.5t127.5 189.5q48 73 116 148t114 107q-77 65 -224 65q-206 0 -358 -149q-125 -122 -125 -230q0 -55 35 -87t95 -32q98 0 203 94.5t105 182.5q0 71 -73 71t-156 -81t-83 -152q0 -17 11.5 -30t27.5 -13q8 -1 8 -4q0 -4 -9 -4q-23 0 -39.5 21t-16.5 52
q0 76 83.5 148t171.5 72q84 0 84 -78q0 -94 -107 -191t-211 -97q-68 0 -108.5 41t-40.5 109q0 138 156 252t345 114q142 0 241 -64q89 56 173 56q65 0 105 -39t40 -103z" />
    <glyph glyph-name="C" unicode="C" horiz-adv-x="797" 
d="M936 542q0 -32 -44 -66q40 -59 40 -109q0 -12 -7 -12q-6 0 -6 16q0 49 -34 99q-71 -52 -193 -90.5t-216 -38.5q-13 0 -23 1q-78 -109 -78 -210q0 -69 42.5 -109t116.5 -40q139 0 248 133q66 81 66 153q0 38 -23 60.5t-61 22.5q-61 0 -131 -64t-70 -120q0 -5 3 -5q2 0 4 2
q13 12 24 12q25 0 25 -27q0 -36 -35 -36q-32 0 -32 39q0 70 70.5 138.5t143.5 68.5q94 0 94 -103q0 -107 -102 -194.5t-226 -87.5q-86 0 -145 58.5t-59 143.5q0 83 58 170q-211 39 -211 167q0 76 78.5 127.5t195.5 51.5q164 0 331 -109q29 6 59 6q97 0 97 -48zM928 542
q0 40 -78 40q-24 0 -58 -7q58 -40 96 -93q40 34 40 60zM881 477q-38 54 -101 96q-92 -25 -179 -85.5t-142 -138.5q102 0 225.5 37.5t196.5 90.5zM766 582q-148 86 -316 86q-103 0 -180.5 -49t-77.5 -114q0 -117 198 -151q123 171 376 228z" />
    <glyph glyph-name="D" unicode="D" horiz-adv-x="847" 
d="M1254 502q0 -25 -6 -52.5t-11 -27.5q-3 0 -3 3t1 6q11 30 11 70q0 62 -37 99t-99 37q-119 0 -229 -112q42 -78 42 -165q0 -160 -123 -271.5t-300 -111.5q-55 0 -150 15q-83 -15 -158 -15q-129 0 -129 26q0 13 31.5 22.5t73.5 9.5q51 0 202 -33q102 27 160 84t176 245
q72 114 157 195q-72 120 -231 120q-165 0 -303 -130q-69 -65 -110.5 -144t-41.5 -146q0 -53 33.5 -84.5t88.5 -31.5q93 0 193.5 100.5t100.5 193.5q0 35 -19.5 56.5t-51.5 21.5q-36 0 -36 -12q0 -3 5 -3q3 0 5 1h7q24 0 24 -22q0 -16 -12 -28t-29 -12q-30 0 -30 32
q0 22 19.5 37.5t47.5 15.5q36 0 58 -23.5t22 -61.5q0 -99 -103 -202t-201 -103q-68 0 -112 45.5t-44 115.5q0 152 150 272.5t339 120.5q161 0 242 -119q119 110 242 110q62 0 100 -40t38 -104zM896 396q0 62 -26 117q-66 -75 -118 -189q-69 -150 -144 -217.5t-222 -108.5
q62 -13 132 -13q187 0 303 181q75 117 75 230zM333 -5q-135 19 -201 19q-59 0 -59 -11q0 -17 128 -17q74 0 132 9z" />
    <glyph glyph-name="E" unicode="E" horiz-adv-x="841" 
d="M1037 547q0 -33 -60 -33q-47 0 -225 44q-83 -47 -83 -119q0 -34 24 -48q35 3 52 3q51 0 51 -12q0 -8 -27 -8q-34 0 -74 10q-55 -8 -126 -42q-183 -88 -183 -227q0 -92 100 -117q-18 30 -18 69q0 96 98 177t215 81q53 0 85 -26.5t32 -70.5q0 -95 -104.5 -171.5
t-235.5 -76.5q-26 0 -49 3q47 -63 139 -63q57 0 93 17l6 1q3 -1 3 -4q0 -7 -36 -14.5t-66 -7.5q-102 0 -156 74q-74 17 -116.5 56.5t-42.5 92.5q0 70 58.5 132t156.5 94q59 19 135 28q-54 23 -54 73q0 64 79 107q-113 27 -187 27q-145 0 -246.5 -72t-101.5 -175
q0 -46 26.5 -78.5t64.5 -32.5q26 0 26 8q0 5 -9 3q-26 0 -26 24q0 14 11.5 23.5t27.5 9.5q31 0 31 -30q0 -20 -17.5 -34t-43.5 -14q-45 0 -77 40.5t-32 98.5q0 87 75 159q89 86 251 86q90 0 239 -37q68 33 157 33q66 0 113 -18t47 -43zM1027 548q0 19 -40.5 33.5t-92.5 14.5
q-72 0 -131 -31q130 -42 218 -42q46 0 46 25zM889 232q0 35 -27.5 58t-70.5 23q-105 0 -205 -87t-100 -178q0 -26 16 -54q28 -5 52 -5q115 0 225 80t110 163z" />
    <glyph glyph-name="F" unicode="F" horiz-adv-x="660" 
d="M1240 570q0 -24 -48 -41t-115 -17q-88 0 -215 27q-62 -29 -114 -89t-113 -172q30 -5 50 -8q27 63 78 63q35 0 35 -27q0 -21 -23.5 -34.5t-60.5 -13.5h-10q-1 -2 -12 -26q-13 -28 -35.5 -48t-42.5 -20q-7 0 -7 3t5 4q34 10 68 90q-14 2 -41 6l-9 2q-7 -12 -20 -36
q-42 -75 -68.5 -107.5t-70.5 -63.5q-118 -83 -244 -83q-74 0 -121.5 31t-47.5 80q0 24 14.5 41.5t34.5 17.5q32 0 32 -33q0 -15 -10 -26t-24 -11q-24 0 -24 23q2 12 -3 12q-9 0 -9 -26q0 -41 42.5 -70t103.5 -29q95 0 171 57t167 196q8 12 23 35h-9q-55 0 -76 -42
q-2 -7 -5 -7q-4 0 -4 4q0 19 27.5 36.5t58.5 17.5h14q128 194 268 256q-60 16 -179 43q-53 10 -102 10q-15 0 -28 -1q21 -40 21 -91q0 -107 -83.5 -201t-177.5 -94q-40 0 -65 25t-25 66q0 92 96 186.5t214 119.5q-37 55 -114 55q-125 0 -227 -122q-8 -8 -9 -8q-3 0 -4 3
q0 9 41 47q95 88 196 88q90 0 130 -61q52 13 121 13q43 0 80 -6.5t176 -40.5q109 42 204 42q56 0 90.5 -12.5t34.5 -32.5zM1231 569q0 15 -32 26t-77 11q-106 0 -195 -37l65 -15q82 -19 151 -19q35 0 61.5 10t26.5 24zM789 305q0 21 -24 21q-32 0 -54 -50l-4 -9h12
q31 0 50.5 10.5t19.5 27.5zM544 526q0 32 -16 66q-112 -14 -210.5 -107t-98.5 -185q0 -35 22 -58.5t54 -23.5q85 0 167 102t82 206z" />
    <glyph glyph-name="G" unicode="G" horiz-adv-x="734" 
d="M911 452q0 -12 -38 -56.5t-76 -77.5q-35 -56 -51 -92.5t-40 -114.5q-30 -96 -73.5 -152t-122.5 -100q-113 -63 -232 -63q-101 0 -163 55t-62 143q0 76 47 144t128 110t151 42q6 0 10 -1q0 12 7 43q-9 -1 -21 -1q-79 0 -125.5 34.5t-46.5 92.5q0 100 113 177t259 77
q116 0 190 -58q52 19 76 19q47 0 47 -39q0 -36 -55 -90q4 -27 4 -45q0 -53 -31 -113q-9 -18 -13 -18q-3 0 -3 3q0 2 2 5q36 59 36 125q0 20 -2 37q-82 -72 -182 -125.5t-191 -73.5q-15 -26 -24 -53q129 -22 129 -140v-10q97 27 239 193q32 50 65 88t45 38q3 0 4 -3zM879 633
q0 32 -37 32q-29 0 -68 -19q42 -36 57 -93q48 46 48 80zM824 547q-13 58 -58 96q-87 -44 -173.5 -126.5t-134.5 -168.5q87 20 186.5 74t179.5 125zM756 651q-65 51 -179 51q-137 0 -251 -76t-114 -167q0 -56 45 -87.5t125 -31.5h17q57 187 357 311zM550 134q3 58 -29 95.5
t-93 48.5q-7 -25 -7 -50q0 -43 28 -69.5t74 -26.5q14 0 27 2zM780 298q-132 -146 -224 -171q-10 -67 -62.5 -122t-107.5 -55q-28 0 -47.5 17.5t-19.5 43.5q0 27 18 48.5t41 21.5q34 0 34 -31q0 -14 -11 -25.5t-25 -11.5q-26 0 -26 23q0 4 2 11q1 4 1 7t-3 3
q-7 0 -14.5 -15.5t-7.5 -30.5q0 -23 16.5 -38t41.5 -15q50 0 102.5 54t59.5 113q-11 -2 -25 -2q-62 0 -98.5 42t-36.5 115q-123 -8 -215 -102.5t-92 -212.5q0 -71 52.5 -115t137.5 -44q115 0 209.5 81.5t218.5 289.5q38 64 81 121z" />
    <glyph glyph-name="H" unicode="H" horiz-adv-x="863" 
d="M1365 525q0 -78 -94 -131q-41 -23 -56 -23q-4 0 -4 4q0 3 14 8q55 21 89.5 61t34.5 82q0 39 -27 63.5t-70 24.5q-140 0 -250 -161q-19 -28 -116 -214q-105 -201 -247 -247q43 -5 67 -5q89 0 151 58q54 50 97 116q6 7 8 7t2 -2q0 -5 -46 -64q-54 -70 -99.5 -96t-110.5 -26
q-40 0 -88 7q-36 -10 -66 -10q-25 0 -25 11q0 12 40 12q22 0 56 -6q64 28 99 71.5t107 186.5l8 16h-190q-46 -85 -79.5 -126t-90.5 -80q-124 -85 -240 -85q-68 0 -110 28.5t-42 74.5q0 24 14.5 41.5t34.5 17.5q32 0 32 -32q0 -16 -10 -27t-24 -11q-23 0 -23 23q2 12 -3 12
q-9 0 -9 -26q0 -40 37.5 -65.5t96.5 -25.5q103 0 180.5 61t175.5 220h-150l4 10h152q6 9 20 31q103 166 193 232q19 14 50.5 30.5t39.5 16.5q3 -1 3 -4t-10 -7q-60 -24 -107.5 -83.5t-129.5 -215.5h190q92 163 199 253.5t209 90.5q50 0 81.5 -27t31.5 -70zM732 513
q0 -10 -29 -41q-43 -46 -82 -46q-28 0 -46.5 19.5t-18.5 48.5q0 27 20 67q25 50 25 69q0 25 -23.5 40t-61.5 15q-109 0 -204.5 -87.5t-95.5 -187.5q0 -51 31.5 -83.5t80.5 -32.5q96 0 162 89q1 3 3 3q4 0 4 -4q0 -10 -31 -38q-65 -58 -140 -58q-53 0 -86 34t-33 89
q0 106 98 195t214 89q102 0 102 -90q0 -31 -21 -74t-21 -57q0 -37 40 -37q53 0 106 80q1 2 3 2q4 0 4 -4z" />
    <glyph glyph-name="I" unicode="I" horiz-adv-x="638" 
d="M1017 646q0 -8 -40 -26t-92 -32q-122 -87 -241 -310l-8 -15q6 -1 14 -1q59 0 109.5 36.5t61.5 88.5q2 8 5 8t3 -4q0 -30 -32 -68q-58 -69 -149 -69q-9 0 -17 1l-14 -27q-35 -68 -61.5 -100.5t-70.5 -63.5q-123 -87 -251 -87q-72 0 -118.5 30.5t-46.5 77.5q0 25 14.5 43
t34.5 18q32 0 32 -33q0 -16 -10.5 -27.5t-25.5 -11.5q-23 0 -23 22v10q0 4 -3 5q-9 0 -9 -25q0 -42 41 -70.5t102 -28.5q147 0 265 147q35 43 93 134q-83 36 -83 117q0 97 110 145q56 24 175 44l54 9l46 10q26 20 68.5 39t58.5 19q8 0 8 -5zM871 584l-87 -21
q-119 -28 -189.5 -83t-70.5 -119q0 -61 60 -87q129 207 286 310h1z" />
    <glyph glyph-name="J" unicode="J" horiz-adv-x="563" 
d="M939 677q0 -8 -40 -26t-88 -31q-84 -70 -142 -152.5t-128 -233.5h12q83 0 139 61q28 30 39 80q2 8 6 8t4 -5q0 -55 -60 -103.5t-127 -48.5q-10 0 -17 1q-3 -6 -29 -60q-61 -124 -103 -178t-108 -96q-106 -67 -217 -67q-64 0 -105 29t-41 73q0 25 14 42t34 17q32 0 32 -33
q0 -39 -35 -39q-26 0 -27 32q0 1 -1 3q-8 0 -8 -23q0 -39 39 -65t97 -26q125 0 216 102q35 40 68 96q54 95 107 189l8 14q-49 15 -78.5 53t-29.5 88q0 88 73 147q43 35 86.5 48.5t157.5 27.5q50 6 119 23q91 58 126 58q7 0 7 -5zM797 616q-33 -8 -90 -21q-92 -20 -139.5 -40
t-87.5 -54q-84 -72 -84 -151q0 -77 86 -106q147 265 315 372z" />
    <glyph glyph-name="K" unicode="K" horiz-adv-x="881" 
d="M1375 541q0 -86 -112 -140q-31 -15 -41 -15q-4 0 -4 3q0 4 4 5q59 17 98.5 58.5t39.5 87.5q0 39 -27.5 63.5t-72.5 24.5q-58 0 -111.5 -33t-130.5 -116q-133 -144 -253 -156q45 -25 45 -90q0 -30 -24 -122q-11 -42 -11 -61q0 -35 22 -57.5t56 -22.5q30 0 54 19q6 5 8 5
q3 0 3 -3q0 -9 -24 -19.5t-44 -10.5q-48 0 -82.5 40.5t-34.5 96.5q0 36 28 117q14 40 14 63q0 27 -19 45q-18 -2 -30 -2q-36 0 -36 9q0 7 20 7t44 -9q50 9 90 37t117 105q89 90 159.5 129t141.5 39q49 0 81 -27.5t32 -69.5zM733 513q0 -11 -29 -41q-44 -46 -83 -46
q-28 0 -46.5 19.5t-18.5 48.5q0 26 21 67q25 49 25 69q0 25 -24 40t-62 15q-108 0 -204 -87.5t-96 -187.5q0 -51 31.5 -83.5t80.5 -32.5q44 0 90 25t73 65q2 2 3 2q4 0 4 -4q0 -10 -31 -38q-65 -58 -140 -58q-53 0 -86.5 34t-33.5 89q0 106 98 195t215 89q102 0 102 -90
q0 -31 -32 -95q-11 -22 -11 -36q0 -37 40 -37q30 0 62 27q26 22 44 52q2 3 4 3q4 0 4 -4zM902 584q0 -3 -10 -7q-63 -26 -110 -87.5t-139 -234.5q-43 -81 -83.5 -125.5t-108.5 -85.5q-112 -68 -211 -68q-68 0 -110.5 28.5t-42.5 73.5q0 26 14.5 43t36.5 17q32 0 32 -32
q0 -16 -10.5 -27t-24.5 -11q-24 0 -24 26q0 10 -4 10q-8 0 -8 -27q0 -41 38.5 -66t99.5 -25q107 0 195 78q45 40 74 78.5t109 166.5q103 165 194 232q18 13 50 30t39 17q4 0 4 -4z" />
    <glyph glyph-name="L" unicode="L" horiz-adv-x="759" 
d="M1037 617q0 -35 -85 -133.5t-166 -157.5q-61 -133 -126 -194.5t-175 -90.5q194 -52 232.5 -60.5t73.5 -8.5q51 0 92 37q4 2 5 2q3 -1 3 -2q0 -8 -26 -26q-48 -33 -139 -33q-67 0 -129 13t-189 53q-81 -16 -168 -16q-153 0 -153 47q0 44 117 44q91 0 271 -47
q54 21 95.5 62t105.5 137q-146 -127 -272 -127q-86 0 -137 51t-51 137q0 133 125 251.5t265 118.5q64 0 102.5 -33.5t38.5 -89.5q0 -100 -93.5 -207t-181.5 -107q-37 0 -62.5 23.5t-25.5 57.5q0 26 16.5 45.5t38.5 19.5q30 0 30 -30q0 -16 -11.5 -28.5t-26.5 -12.5
q-24 0 -23 22q1 14 -3 14q-11 0 -11 -30q0 -31 23 -51.5t58 -20.5q80 0 171.5 105t91.5 199q0 50 -34.5 82.5t-88.5 32.5q-129 0 -247.5 -129.5t-118.5 -269.5q0 -66 42 -103.5t116 -37.5q64 0 126.5 31.5t154.5 108.5q77 129 110.5 177.5t80.5 97.5q90 95 138 95
q20 0 20 -18zM1029 617q0 11 -12 11q-36 0 -99 -74q-56 -66 -125 -213q83 68 159.5 157t76.5 119zM392 21q-171 54 -233 54q-64 0 -64 -28q0 -38 150 -38q81 0 147 12z" />
    <glyph glyph-name="M" unicode="M" horiz-adv-x="978" 
d="M1269 620q0 -2 -13 -9q-57 -30 -100.5 -87t-99.5 -176q-81 -172 -144.5 -247t-157.5 -108q43 -6 67 -6q75 0 120 32t128 143q5 7 8 7q2 -1 2 -3q0 -5 -46 -63q-56 -71 -100 -97t-109 -26q-40 0 -86 9q-33 -11 -67 -11q-26 0 -26 10q0 12 36 12q20 0 53 -5h6q52 19 88 59
t86 136q102 194 162 274q57 78 138 132q40 27 52 27q3 0 3 -3zM1504 488q0 -19 -4 -37t-9 -18q-3 0 -3 3t4 21t4 29q0 65 -51.5 110t-126.5 45q-121 0 -247 -118q-50 -47 -85.5 -89.5t-136.5 -176.5q-149 -198 -245 -247q-43 -22 -55 -22q-3 0 -3 3q0 1 10 8q48 36 76 96
q27 55 95 261q58 176 133 252q3 3 3 5l-1 1q-6 0 -28 -22q-64 -64 -129 -180q-106 -192 -108 -194q-67 -107 -149 -165q-103 -74 -208 -74q-67 0 -110 28.5t-43 73.5q0 26 14.5 43t36.5 17q32 0 32 -31q0 -16 -10.5 -27.5t-24.5 -11.5q-24 0 -24 26q0 10 -4 10q-8 0 -8 -27
q0 -40 40 -65.5t102 -25.5q128 0 250 132q49 53 83.5 104t136.5 220q43 72 97 130.5t77 58.5q3 0 3 -3q0 -2 -2 -4q-45 -50 -82 -188q-54 -203 -102 -294t-124 -137q-2 0 -2 -2q1 0 2 -1q11 0 55 31q52 37 96.5 89t161.5 212q83 113 131.5 165.5t107.5 92.5q92 62 186 62
q82 0 135 -48t53 -121zM730 515q0 -11 -28 -42q-42 -47 -81 -47q-27 0 -45.5 19.5t-18.5 48.5q0 28 20 67q25 49 25 69q0 25 -23.5 40t-61.5 15q-109 0 -204.5 -88t-95.5 -187q0 -51 31.5 -83.5t80.5 -32.5q44 0 89 25t73 65q2 2 3 2q4 0 4 -4q0 -10 -31 -38
q-65 -58 -140 -58q-53 0 -86 34t-33 89q0 106 98 195t214 89q48 0 75 -24t27 -66q0 -30 -21 -73.5t-21 -57.5q0 -37 40 -37q46 0 103 82q1 2 3 2q4 0 4 -4z" />
    <glyph glyph-name="N" unicode="N" horiz-adv-x="871" 
d="M1512 481q0 -41 -9 -41q-4 0 -4 3q0 5 2 17t2 18q0 67 -48 110.5t-122 43.5q-147 0 -296 -191q-47 -60 -182 -287q-39 -66 -80.5 -117.5t-54.5 -51.5q-7 0 -7 7q0 10 22 20q43 20 43 100q0 15 -2 50q-5 87 -5 150q0 105 20.5 172.5t67.5 119.5l2 4l-1 1q-15 0 -66 -63
q-28 -34 -49.5 -70t-112.5 -201q-78 -141 -182 -218t-217 -77q-64 0 -105 28.5t-41 72.5q0 26 14.5 43t36.5 17q32 0 32 -31q0 -16 -10.5 -27.5t-24.5 -11.5q-24 0 -24 26q0 10 -4 10q-8 0 -8 -27q0 -40 38.5 -65.5t97.5 -25.5q113 0 210 85t222 296q102 171 163 225
q42 37 54 37q2 0 2 -2q0 -1 -6 -9q-31 -41 -39 -88t-11 -199q-4 -186 -46 -266q-1 0 -1 -2l1 -1q9 0 148 245q102 179 196 259t204 80q78 0 129 -47.5t51 -120.5zM730 515q0 -11 -28 -42q-42 -47 -81 -47q-27 0 -45.5 19.5t-18.5 48.5q0 28 20 67q25 49 25 69q0 25 -23.5 40
t-61.5 15q-109 0 -204.5 -88t-95.5 -187q0 -51 31.5 -83.5t80.5 -32.5q44 0 89 25t73 65q2 2 3 2q4 0 4 -4q0 -10 -31 -38q-65 -58 -140 -58q-53 0 -86 34t-33 89q0 106 98 195t214 89q48 0 75 -24t27 -66q0 -30 -21 -73.5t-21 -57.5q0 -37 40 -37q46 0 103 82q1 2 3 2
q4 0 4 -4z" />
    <glyph glyph-name="O" unicode="O" horiz-adv-x="793" 
d="M907 390q0 -74 -42 -151.5t-114.5 -139t-154.5 -97t-150 -35.5q-90 0 -146 61t-56 159q0 90 56 183t150 161q68 49 152 79t152 30t108 -32.5t40 -87.5q0 -22 -8 -53q13 -39 13 -77zM894 519q0 50 -34.5 80t-91.5 30q-112 0 -227 -75q-110 -72 -180 -184
q-74 -116 -74 -230q0 -72 42.5 -117.5t110.5 -45.5q136 0 274.5 140.5t153.5 294.5q-17 -29 -59.5 -69t-57.5 -40q-4 0 -4 4q0 3 8 7q79 44 114 116q0 61 -35.5 97t-96.5 36q-113 0 -232.5 -121t-119.5 -236q0 -46 21.5 -74.5t56.5 -28.5q17 0 34 9.5t17 19.5q-1 3 -2 3
l-4 -2q-6 -6 -19 -6q-23 0 -23 27q0 16 11 27.5t27 11.5q31 0 31 -35q0 -26 -22 -45t-52 -19q-42 0 -70 34.5t-28 86.5q0 119 124 237.5t249 118.5q53 0 95 -25t57 -66q6 20 6 39z" />
    <glyph glyph-name="P" unicode="P" horiz-adv-x="769" 
d="M1215 508q0 -26 -7 -56t-13 -30q-5 0 -5 5q0 1 1 4q13 34 13 74q0 61 -36.5 98.5t-96.5 37.5q-81 0 -167 -53q73 -59 73 -133q0 -62 -50.5 -108.5t-117.5 -46.5q-26 0 -56.5 10.5t-30.5 19.5q1 3 4 3t8 -3q30 -17 61 -17q55 0 95 48t40 114q0 57 -41 102
q-106 -79 -201 -278q-58 -121 -105.5 -174t-134.5 -96q-102 -50 -182 -50q-65 0 -108.5 30t-43.5 75q0 25 15 43t35 18q30 0 30 -33q0 -17 -10 -28.5t-25 -11.5q-25 0 -24 26q0 10 -2 11q-8 0 -8 -26q0 -41 39.5 -67.5t100.5 -26.5q107 0 194 79q38 34 65 70q29 40 128 190
q49 75 116 149.5t114 106.5q-76 65 -224 65q-206 0 -358 -149q-125 -122 -125 -230q0 -55 35 -87t95 -32q98 0 203 94.5t105 182.5q0 71 -73 71t-156 -81.5t-83 -152.5q0 -17 11.5 -30t27.5 -13q8 0 8 -4t-9 -4q-23 0 -39.5 21t-16.5 52q0 76 83.5 148.5t171.5 72.5
q84 0 84 -78q0 -94 -107 -191t-211 -97q-68 0 -108.5 41t-40.5 109q0 138 156 252t345 114q143 0 241 -64q89 56 173 56q65 0 105 -39t40 -103z" />
    <glyph glyph-name="Q" unicode="Q" horiz-adv-x="702" 
d="M835 450q0 -80 -45.5 -162.5t-125.5 -145.5q-92 -73 -230 -114q160 -48 204 -59t74 -11q45 0 81 33l4 2q3 -1 3 -4q0 -8 -24 -23q-42 -27 -121 -27q-74 0 -121 9q-63 13 -166 56l-12 5q-64 -15 -140 -15q-140 0 -140 45q0 38 108 38q93 0 238 -45q157 50 262 181.5
t105 275.5q0 75 -39 117t-109 42q-143 0 -279.5 -134.5t-136.5 -276.5q0 -60 34.5 -94.5t95.5 -34.5q125 0 223 120q82 101 82 195q0 39 -20.5 64.5t-51.5 25.5q-16 0 -34 -9.5t-18 -17.5q1 -2 3 -2q1 0 7 3.5t14 3.5q24 0 24 -26q0 -16 -11 -27.5t-26 -11.5q-31 0 -31 33
q0 26 21 44.5t50 18.5q42 0 69 -35.5t27 -91.5q0 -112 -101 -204t-225 -92q-78 0 -123.5 46t-45.5 125q0 164 169 286q142 102 285 102q86 0 139.5 -57.5t53.5 -150.5zM342 14q-148 48 -200 48q-57 0 -57 -23q0 -36 132 -36q76 0 125 11z" />
    <glyph glyph-name="R" unicode="R" horiz-adv-x="925" 
d="M1215 508q0 -26 -7 -56t-13 -30q-5 0 -5 5q0 1 1 4q13 34 13 74q0 61 -36.5 98.5t-96.5 37.5q-82 0 -167 -53q72 -58 72 -125q0 -57 -45.5 -97.5t-120.5 -49.5q51 -29 51 -85q0 -37 -26 -113q-17 -49 -17 -78t21 -49.5t51 -20.5q32 0 59 21q7 4 9 4q4 0 4 -4
q0 -8 -27.5 -19t-47.5 -11q-47 0 -78.5 37.5t-31.5 92.5q0 40 35 141q9 26 9 44q0 23 -19 39q-31 -3 -36 -3q-48 0 -48 12q0 8 24 8q29 0 58 -11q58 9 95 53.5t37 105.5q0 48 -37 92l-5 6q-107 -80 -202 -279q-58 -121 -105.5 -174t-134.5 -96q-102 -50 -182 -50
q-65 0 -108.5 30t-43.5 75q0 25 15 43t35 18q30 0 30 -33q0 -17 -10 -28.5t-25 -11.5q-25 0 -24 26q0 10 -2 11q-8 0 -8 -26q0 -41 39.5 -67.5t100.5 -26.5q107 0 194 79q38 34 65 70q29 40 128 190q49 75 116 149.5t114 106.5q-76 65 -224 65q-206 0 -358 -149
q-125 -122 -125 -230q0 -55 35 -87t95 -32q98 0 203 94.5t105 182.5q0 71 -73 71t-156 -81.5t-83 -152.5q0 -17 11.5 -30t27.5 -13q8 0 8 -4t-9 -4q-23 0 -39.5 21t-16.5 52q0 76 83.5 148.5t171.5 72.5q84 0 84 -78q0 -94 -107 -191t-211 -97q-68 0 -108.5 41t-40.5 109
q0 138 156 252t345 114q143 0 241 -64q89 56 173 56q65 0 105 -39t40 -103z" />
    <glyph glyph-name="S" unicode="S" horiz-adv-x="707" 
d="M994 638q0 -23 -47 -67.5t-115 -84.5q-9 -28 -26 -101q-27 -115 -50 -163t-76 -98q-152 -144 -341 -144q-54 0 -96 18q-23 -45 -23 -78q0 -42 28 -77q3 -3 3 -7t-5 -4q-11 0 -24 30.5t-13 56.5q0 38 25 84q-102 53 -102 181q0 83 49 164.5t137 146.5q113 83 223 83
q60 0 95.5 -33.5t35.5 -91.5q0 -31 -9 -64q72 48 127 81q35 77 88.5 132t92.5 55q23 0 23 -19zM985 637q0 12 -14 12q-32 0 -72.5 -45t-62.5 -106q64 40 106.5 79.5t42.5 59.5zM646 367l-32 -22q-184 -127 -266 -211q21 -11 44 -11q68 0 143 72t111 172zM784 457
q-57 -36 -125 -82q-32 -103 -113 -181.5t-155 -78.5q-22 0 -49 12q-55 -57 -94 -120q40 -18 91 -18q91 0 177 52t148 144q29 43 45.5 80t53.5 139q9 25 21 53zM663 455q0 51 -32.5 82.5t-85.5 31.5q-131 0 -254 -137t-123 -283q0 -96 71 -137q33 55 95 120q-32 27 -32 66
q0 29 18.5 50t44.5 21q33 0 33 -30q0 -16 -12 -27.5t-29 -11.5q-24 0 -24 23q0 8 5 16q2 6 2 7q0 3 -3 3q-8 0 -17 -17.5t-9 -34.5q0 -32 30 -58q98 104 310 242q12 43 12 74z" />
    <glyph glyph-name="T" unicode="T" horiz-adv-x="587" 
d="M1236 599q0 -26 -53 -44.5t-129 -18.5t-190 21q-60 -31 -110 -92.5t-107 -173.5t-83.5 -149.5t-73.5 -72.5q-122 -91 -254 -91q-71 0 -115.5 30t-44.5 77q0 24 14 41t34 17q32 0 32 -33q0 -16 -10 -27t-24 -11q-23 0 -23 22q0 12 -4 12q-8 0 -8 -24q0 -40 41 -67t100 -27
q131 0 235 118q49 55 126 182q126 206 263 271q-59 13 -179 36q-45 7 -90 7q-7 0 -41 -2q23 -43 23 -98q0 -107 -81.5 -201.5t-174.5 -94.5q-38 0 -62.5 26t-24.5 66q0 56 42 123.5t109.5 118t147.5 70.5q-39 52 -110 52q-60 0 -121.5 -35t-107.5 -95q-7 -9 -9 -9q-3 0 -4 3
q0 8 40 48q96 96 201 96q82 0 124 -57q60 17 136 17q39 0 73 -5.5t169 -32.5q113 49 217 49q107 0 107 -42zM1228 598q0 14 -27.5 24t-69.5 10q-104 0 -203 -44q12 -2 65 -12q78 -15 139 -15q40 0 68 11t28 26zM546 526q0 39 -18 72q-109 -18 -203.5 -112.5t-94.5 -186.5
q0 -35 21.5 -59t53.5 -24q83 0 162 102t79 208z" />
    <glyph glyph-name="U" unicode="U" horiz-adv-x="901" 
d="M1154 604q-339 -465 -339 -600q0 -33 21.5 -54.5t55.5 -21.5q58 0 114 62q4 5 7 5t3 -4q0 -5 -17 -20q-58 -51 -107 -51q-47 0 -77.5 36t-30.5 91q0 94 97 247q-6 -7 -16 -21l-23 -32q-89 -123 -170 -193t-135 -70q-35 0 -56.5 25.5t-21.5 67.5q0 44 23.5 88t106.5 152
q86 113 109.5 157t23.5 94q0 47 -34.5 74t-93.5 27q-149 0 -287 -136t-138 -283q0 -55 31 -88.5t82 -33.5q97 0 187 111q94 116 94 212q0 81 -69 81q-17 0 -32 -8t-15 -17q0 -4 4 -4q2 0 7 2t9 2q25 0 25 -24q0 -16 -11.5 -27.5t-27.5 -11.5q-30 0 -30 32q0 26 21.5 45.5
t51.5 19.5q35 0 55.5 -24.5t20.5 -65.5q0 -96 -92.5 -214t-197.5 -118q-62 0 -99 42t-37 112q0 160 168 292q65 51 141.5 82t137.5 31q74 0 115 -40t41 -111q0 -61 -30 -115t-148 -211q-52 -69 -68 -98.5t-16 -55.5q0 -24 14.5 -39.5t37.5 -15.5q74 0 203 147.5t336 467.5
q26 -2 29 -2q19 0 47 5z" />
    <glyph glyph-name="V" unicode="V" horiz-adv-x="749" 
d="M1506 695q0 -12 -14 -12h-8q-27 3 -44 3q-126 0 -297 -110q-82 -53 -138 -107t-208 -227q-179 -204 -270 -270q-48 -35 -53 -35q-3 0 -3 3l11 15q86 112 148 265t62 256q0 165 -134 165q-53 0 -121.5 -36t-125.5 -94q-62 -63 -98.5 -140.5t-36.5 -144.5q0 -61 32.5 -96
t88.5 -35q108 0 211 139q73 99 73 177q0 35 -17.5 56t-46.5 21q-16 0 -32.5 -7.5t-16.5 -15.5q0 -3 3 -3h4q14 2 15 2q22 0 22 -24q0 -15 -11.5 -26t-27.5 -11q-30 0 -30 31q0 26 22 44.5t52 18.5q33 0 53 -23t20 -61q0 -96 -96 -211t-198 -115q-65 0 -105.5 45t-40.5 116
q0 136 136 268.5t275 132.5q83 0 134 -57.5t51 -150.5q0 -100 -56 -210t-181 -255q-5 -6 -5 -7l1 -1q8 0 61 45q41 35 84 82q39 42 206 232q99 112 174 177t168 118q152 87 268 87q40 0 40 -14z" />
    <glyph glyph-name="W" unicode="W" horiz-adv-x="924" 
d="M1692 740q0 -12 -15 -12h-7q-15 2 -38 2q-112 0 -271 -101q-91 -58 -152.5 -119t-211.5 -243q-181 -219 -282 -294q-34 -25 -39 -25q-3 0 -3 2l14 15q62 63 128 245q59 163 93.5 237.5t73.5 124.5q9 12 9 13l-1 1q-2 0 -6 -5l-5 -5l-12 -15q-32 -40 -149 -194
q-185 -250 -325 -360q-75 -59 -87 -59q-3 1 -3 3t6 7q96 87 183.5 262.5t87.5 279.5q0 71 -34.5 113t-94.5 42q-127 0 -251.5 -141.5t-124.5 -284.5q0 -59 32.5 -96t84.5 -37q111 0 209 151q64 98 64 175q0 36 -18 58t-47 22q-17 0 -34 -8.5t-17 -17.5q0 -3 3 -3q2 0 5 1
q12 2 16 2q22 0 22 -25q0 -15 -11.5 -26t-27.5 -11q-30 0 -30 33q0 25 22.5 44.5t51.5 19.5q34 0 54 -24t20 -65q0 -92 -84 -207q-93 -127 -199 -127q-61 0 -101 47t-40 119q0 67 36 140.5t98 133.5q140 136 269 136q76 0 127.5 -59.5t51.5 -146.5q0 -93 -77 -226.5
t-187 -228.5q-11 -10 -11 -11q0 -2 2 -2q15 0 97 85q116 121 314 381q57 75 111.5 134t67.5 59q3 0 3 -3q0 -1 -3 -5q-31 -41 -50 -83q-21 -49 -65 -182q-48 -146 -88 -223t-102 -141q-1 -2 -2 -3q0 -2 2 -2q8 0 70 64q43 44 240 283q102 123 182.5 195t181.5 128
q137 77 239 77q35 0 35 -14z" />
    <glyph glyph-name="X" unicode="X" horiz-adv-x="1004" 
d="M1298 576q0 -17 -9.5 -36t-17.5 -19q-5 0 -5 5q0 2 8 10q15 15 15 39q0 29 -23 48t-58 19q-110 0 -285 -146q-72 -60 -153 -141l-7 -7l-4 -9l-5 -14q-68 -190 -68 -235q0 -101 93 -101q86 0 184.5 101.5t98.5 180.5q0 36 -22 57.5t-59 21.5q-40 0 -90.5 -29.5
t-89.5 -76.5q-8 -9 -11 -9q-3 1 -3 3q0 6 24 29q94 92 173 92q39 0 66 -28.5t27 -69.5q0 -93 -102 -187t-203 -94q-57 0 -95 40t-38 99q0 68 41 158q-10 -9 -40 -40q-128 -138 -225 -200.5t-183 -62.5q-59 0 -97.5 28t-38.5 72q0 25 13 41.5t33 16.5q33 0 33 -32
q0 -15 -10 -26.5t-23 -11.5q-21 0 -23 23q-1 11 -5 11q-7 0 -7 -21q0 -39 33 -64.5t84 -25.5q147 0 416 265q13 13 47 46l50 122q29 78 29 129q0 49 -28.5 77.5t-78.5 28.5q-130 0 -265 -116q-140 -121 -140 -248q0 -49 34 -79.5t90 -30.5q118 0 227 123q78 88 78 162
q0 30 -20 49t-51 19q-70 0 -150.5 -81.5t-80.5 -152.5q0 -20 12.5 -34.5t29.5 -13.5q6 0 6 -2q0 -4 -7 -4q-27 0 -43.5 20t-16.5 54q0 77 81.5 149.5t167.5 72.5q36 0 58.5 -21t22.5 -55q0 -96 -110 -199q-102 -95 -202 -95q-66 0 -105.5 38t-39.5 102q0 139 159 251
q140 99 263 99q67 0 108 -39.5t41 -103.5q0 -59 -36 -150q5 4 109 108q86 85 170.5 134t146.5 49q44 0 73 -23t29 -59z" />
    <glyph glyph-name="Y" unicode="Y" horiz-adv-x="931" 
d="M1208 543q0 -1 -4 -4q-85 -59 -154.5 -159.5t-155.5 -282.5q-73 -156 -198.5 -249.5t-258.5 -93.5q-66 0 -108.5 30.5t-42.5 78.5q0 28 17.5 48.5t42.5 20.5q32 0 32 -30q0 -16 -11 -28t-26 -12q-26 0 -26 24q0 4 1.5 9t1.5 8t-2 3q-7 0 -13.5 -14t-6.5 -29
q0 -44 39 -72.5t99 -28.5q81 0 154.5 44.5t119.5 103.5t139 227q32 59 77 129q-108 -130 -161 -179q-99 -92 -161 -92q-38 0 -61.5 28t-23.5 73q0 46 26.5 94t110.5 155q108 137 108 224q0 114 -138 114q-154 0 -308 -140q-64 -58 -106.5 -137t-42.5 -140q0 -58 34 -93
t91 -35q101 0 194 96q111 115 111 213q0 35 -19.5 56t-51.5 21q-71 0 -150 -88t-79 -168q0 -51 49 -51h2q5 0 5 -3q0 -4 -12 -4q-27 0 -44 22.5t-17 58.5q0 83 80 162t165 79q37 0 59 -23t22 -62q0 -88 -90 -194q-105 -124 -223 -124q-66 0 -106 44.5t-40 117.5
q0 146 153 268q76 61 163.5 96.5t160.5 35.5q77 0 121.5 -43t44.5 -119q0 -60 -27.5 -117t-107.5 -161q-70 -90 -88.5 -122t-18.5 -63q0 -61 58 -61q54 0 129.5 66.5t199.5 223.5q128 162 257 248l6 4q4 2 5 2q5 0 5 -6z" />
    <glyph glyph-name="Z" unicode="Z" horiz-adv-x="653" 
d="M995 610q0 -26 -72 -90q-58 -52 -121 -70q-5 -8 -38 -70q-58 -112 -132.5 -172t-190.5 -88q82 -5 131 -43t49 -99q0 -116 -136 -213q-128 -91 -240 -91q-63 0 -104.5 29.5t-41.5 73.5q0 25 14 42t35 17q31 0 31 -32q0 -16 -10.5 -28t-24.5 -12q-11 0 -19.5 7.5t-7.5 16.5
l1 7v2q0 2 -2 2q-8 0 -8 -24q0 -39 38 -65t95 -26q105 0 216 99.5t111 203.5q0 116 -138 127q-54 -19 -91 -19q-15 0 -15 7q0 8 26.5 13.5t60.5 5.5h16q71 32 128 81.5t140 153.5q48 61 77 93q-65 1 -95 32.5t-32 99.5q-3 84 -88 84q-122 0 -247.5 -128.5t-125.5 -253.5
q0 -56 32.5 -89.5t86.5 -33.5q95 0 191 102t96 203q0 35 -18.5 56.5t-49.5 21.5q-64 0 -137.5 -88t-73.5 -164q0 -47 45 -53q6 0 6 -4t-6 -4q-28 0 -48 24.5t-20 58.5q0 79 77 159t153 80q38 0 59.5 -23.5t21.5 -64.5q0 -106 -99 -210t-199 -104q-63 0 -101.5 43t-38.5 113
q0 125 131 243q139 125 272 125q84 0 120 -56q12 -19 15 -31.5t11 -66.5q9 -65 67 -64q147 170 201 170q17 0 17 -16zM984 607q0 9 -10 9q-22 0 -69.5 -44t-96.5 -110q75 23 146 100q30 33 30 45z" />
    <glyph glyph-name="bracketleft" unicode="[" horiz-adv-x="620" 
d="M711 153q0 -3 -5 -8l-21 -29q-92 -127 -136 -127q-23 0 -37.5 17t-14.5 43q0 23 9 41.5t45 70.5q41 59 41 77q0 20 -20 20q-64 0 -221 -265q-10 2 -27 2q-20 0 -34 -2l69 110q68 108 68 133q0 22 -18 22q-27 0 -88 -77.5t-121 -187.5q-11 2 -29 2q-19 0 -33 -2l70 110
q72 113 72 138q0 17 -31 17h-55l-40 -78q-72 -141 -125.5 -216t-121.5 -131q-94 -78 -175 -78q-36 0 -36 10q0 4 5 4q4 0 6 -1q16 -4 33 -4q66 0 133 59q41 36 72 86q26 39 120 212l75 137h-52l4 7h52q62 106 138.5 183.5t117.5 77.5q22 0 22 -23q0 -43 -61.5 -109
t-161.5 -129h59q53 0 53 -50q0 -31 -29 -79q88 129 131 129q20 0 33.5 -16.5t13.5 -41.5q0 -28 -26 -71q93 129 139 129q22 0 36 -17.5t14 -44.5q0 -29 -24 -70q-22 -32 -43 -63q-23 -34 -23 -54t20 -20q32 0 126 123l16 21l8 11q2 5 5 5t3 -3zM416 504q0 16 -16 16
q-37 0 -101 -85q-35 -47 -97 -160q81 55 147.5 126.5t66.5 102.5z" />
    <glyph glyph-name="backslash" unicode="\" horiz-adv-x="355" 
d="M447 153q0 -5 -29 -36q-39 -41 -69 -41q-37 0 -37 43q0 17 6 35q-32 -28 -49.5 -51.5t-68.5 -109.5q-26 2 -29 2t-31 -2l80 130q59 96 59 120q0 15 -21 15h-64l-40 -78q-72 -140 -126 -215.5t-121 -131.5q-94 -78 -175 -78q-36 0 -36 10q0 4 5 4q4 0 6 -1q16 -4 33 -4
q66 0 133 59q41 36 72 85q25 40 120 213l75 137h-52l4 7h53q62 105 138 183t117 78q22 0 22 -23q0 -43 -62.5 -109.5t-160.5 -128.5h56q55 0 55 -49q0 -39 -37 -101q24 28 48 48q19 43 46 72.5t49 29.5q15 0 15 -14q0 -22 -99 -86l-6 -5q-8 -20 -8 -37q0 -41 32 -41
q37 0 82 63q10 11 12 11q3 -1 3 -3zM416 504q0 16 -16 16q-38 0 -101 -85q-38 -51 -97 -160q79 53 146.5 125.5t67.5 103.5z" />
    <glyph glyph-name="bracketright" unicode="]" horiz-adv-x="467" 
d="M558 153q0 -10 -71 -95q-58 -69 -91 -69q-22 0 -37 17t-15 42q0 23 9 41t48 75.5t39 73.5q0 20 -21 20q-33 0 -92 -71t-128 -194q-24 2 -29 2q-17 0 -32 -2l76 121q67 107 67 125q0 19 -30 19h-57l-40 -78q-73 -142 -126 -216.5t-121 -130.5q-94 -78 -175 -78
q-36 0 -36 10q0 4 5 4q4 0 6 -1q16 -4 33 -4q67 0 133 59q41 36 73 86q25 41 119 212l75 137h-52l4 7h52q63 107 138.5 184t116.5 77q22 0 22 -23q0 -43 -62 -109.5t-161 -128.5h64q49 0 49 -52q0 -30 -37 -86q59 80 89.5 109t57.5 29q21 0 35.5 -17.5t14.5 -43.5
q0 -23 -9.5 -41.5t-57.5 -91.5q-24 -36 -24 -55q0 -20 20 -20q44 0 150 155q2 5 5 5t3 -3zM416 504q0 16 -16 16q-37 0 -101 -85q-35 -47 -97 -160q81 55 147.5 126.5t66.5 102.5z" />
    <glyph glyph-name="asciicircum" unicode="^" horiz-adv-x="500" 
d="M661 393h-27l-180 259l-179 -259h-25l192 274h26z" />
    <glyph glyph-name="underscore" unicode="_" horiz-adv-x="500" 
d="M546 -104h-500v21h500v-21z" />
    <glyph glyph-name="grave" unicode="`" horiz-adv-x="500" 
d="M437 312q-1 -2 -3 -2q-12 0 -31.5 36t-30.5 77l42 29q-8 -24 -8 -47q0 -51 27 -87q4 -4 4 -6z" />
    <glyph glyph-name="a" unicode="a" horiz-adv-x="344" 
d="M434 153q0 -10 -71 -95q-58 -69 -91 -69q-22 0 -36.5 16.5t-14.5 42.5t16 57q-49 -68 -75 -92t-50 -24q-26 0 -43.5 22t-17.5 56q0 94 132 166q58 32 94 32q30 0 30 -29q0 -9 -4 -22l25 47q15 -3 26 -3q13 0 34 3l-86 -143q-45 -75 -45 -99q0 -23 19 -23t62 44.5
t88 110.5q2 5 5 5t3 -3zM300 234q0 24 -22 24q-45 0 -118 -88t-73 -142q0 -32 28 -32q34 0 117 112q68 92 68 126z" />
    <glyph glyph-name="b" unicode="b" horiz-adv-x="263" 
d="M353 493l-219 -346q51 70 76.5 94t48.5 24q27 0 44.5 -22t17.5 -56q0 -74 -94 -145q-70 -53 -124 -53q-25 0 -41 19t-16 50q0 37 47 112l202 324q13 -4 28 -4q12 0 30 3zM285 225q0 33 -27 33q-36 0 -122 -118q-64 -88 -64 -118q0 -26 25 -26q44 0 116 88t72 141z" />
    <glyph glyph-name="c" unicode="c" horiz-adv-x="242" 
d="M333 153q0 -7 -69 -82q-75 -82 -128 -82q-34 0 -58.5 26t-24.5 62q0 41 33.5 85t89.5 76q47 27 77 27q36 0 36 -43q0 -34 -22.5 -67.5t-45.5 -33.5q-22 0 -22 22q0 26 45 48q35 17 35 45q0 22 -24 22q-40 0 -99.5 -80.5t-59.5 -135.5q0 -46 43 -46q32 0 83 42t100 110
q6 8 9 8q2 -1 2 -3z" />
    <glyph glyph-name="d" unicode="d" horiz-adv-x="344" 
d="M534 494q-183 -291 -231 -372.5t-48 -103.5t20 -22q44 0 151 155q2 5 5 5t3 -3q0 -2 -5 -8l-21 -29q-92 -127 -136 -127q-22 0 -36.5 17t-14.5 43t18 61q-85 -121 -127 -121q-26 0 -43.5 22t-17.5 56q0 81 100 146q79 52 125 52q30 0 30 -29q0 -14 -8 -31l174 292
q16 -5 32 -5q4 0 30 2zM299 232q0 26 -24 26q-44 0 -116 -88t-72 -141q0 -33 27 -33q39 0 134 136q51 73 51 100z" />
    <glyph glyph-name="e" unicode="e" horiz-adv-x="246" 
d="M337 153q0 -2 -9 -13l-21 -26q-101 -125 -173 -125q-35 0 -58 24.5t-23 61.5q0 88 123 155q64 35 105 35q17 0 29.5 -10.5t12.5 -25.5q0 -35 -45.5 -59.5t-153.5 -46.5q-33 -50 -33 -84q0 -42 45 -42q77 0 189 151q6 8 10 8q2 -1 2 -3zM296 243q0 16 -17 16
q-26 0 -68 -36t-83 -93q70 18 119 51t49 62z" />
    <glyph glyph-name="f" unicode="f" horiz-adv-x="133" 
d="M422 503q0 -43 -61.5 -109t-161.5 -129h84l-4 -7h-85l-40 -78q-74 -144 -126 -217t-121 -130q-94 -78 -175 -78q-36 0 -36 10q0 5 5 5q4 0 6 -1q17 -5 33 -5q66 0 133 59q41 36 72 85q25 39 120 213l75 137h-52l4 7h53q62 106 138 183.5t117 77.5q22 0 22 -23zM416 504
q0 16 -16 16q-37 0 -101 -85q-32 -43 -96 -160q80 55 146.5 126.5t66.5 102.5z" />
    <glyph glyph-name="g" unicode="g" horiz-adv-x="335" 
d="M425 153q0 -8 -53 -67q-59 -65 -153 -117l-24 -44q-67 -123 -147.5 -188t-138.5 -65q-21 0 -34.5 12.5t-13.5 31.5q0 100 226 203q49 22 63 30l83 153q-54 -72 -76.5 -92.5t-45.5 -20.5q-26 0 -43.5 22.5t-17.5 54.5q0 84 110 153q74 46 116 46q29 0 29 -32q0 -9 -4 -21
l27 49q14 -3 23 -3q13 0 37 3q-3 -4 -43 -73l-121 -209q64 36 102.5 70t86.5 97q8 10 10 10q2 -1 2 -3zM300 233q0 25 -24 25q-44 0 -116.5 -88t-72.5 -141q0 -33 28 -33q29 0 98 87q87 110 87 150zM145 -59q-9 -5 -55 -28q-223 -110 -223 -198q0 -15 11.5 -25.5t28.5 -10.5
q54 0 105 55t127 197z" />
    <glyph glyph-name="h" unicode="h" horiz-adv-x="313" 
d="M403 154q0 -4 -5 -9l-21 -29q-92 -127 -137 -127q-23 0 -38 16.5t-15 42.5q0 34 37 89q58 86 58 102q0 19 -20 19q-29 0 -79 -56.5t-135 -210.5q-15 3 -25 3q-11 0 -29 -3l72 130q15 28 45 82q16 26 99 168l74 126q15 -3 25 -3q19 0 37 5q-50 -82 -151 -244
q-3 -5 -76 -126q92 136 145 136q21 0 36 -18t15 -44q0 -33 -43 -97q-48 -71 -48 -89q0 -21 21 -21q38 0 126 123l15 21l9 11q2 5 6 5q2 0 2 -2z" />
    <glyph glyph-name="i" unicode="i" horiz-adv-x="168" 
d="M251 355q0 -17 -14.5 -32t-31.5 -15q-22 0 -22 22q0 16 15 31t32 15q21 0 21 -21zM258 153q0 -2 -5 -8l-21 -29q-92 -127 -140 -127q-23 0 -38.5 16t-15.5 41q0 28 34 86l76 129q15 -3 24 -3q13 0 37 3l-111 -182q-24 -39 -24 -61t23 -22q44 0 153 155q2 5 5 5t3 -3z" />
    <glyph glyph-name="j" unicode="j" horiz-adv-x="151" 
d="M256 354q0 -17 -14.5 -31t-31.5 -14q-20 0 -20 21q0 16 14.5 30.5t30.5 14.5q21 0 21 -21zM242 154q0 -7 -55 -69t-151 -116l-25 -43q-75 -130 -149 -190q-78 -64 -134 -64q-50 0 -50 46q0 56 76 115q41 32 70 49q45 25 137 65l7 3l85 152q36 62 92 159q14 -3 23 -3
q14 0 36 3q-39 -63 -118 -200l-45 -82q63 35 102.5 70t86.5 97q6 10 10 10q2 0 2 -2zM-36 -59q-139 -71 -177 -97q-102 -70 -102 -128q0 -16 12 -26.5t29 -10.5q51 0 102 57q42 48 130 195z" />
    <glyph glyph-name="k" unicode="k" horiz-adv-x="301" 
d="M350 499q-29 -48 -88 -144l-84 -136q-42 -68 -71 -123q-33 -61 -53 -95l-6 -10q-13 3 -26 3q-11 0 -32 -3q11 19 25 43l57 99q12 22 38 66l179 300q20 -4 30 -4t31 4zM392 153q0 -2 -5 -8l-21 -29q-92 -127 -139 -127q-21 0 -37 14t-16 32q0 16 27 70q10 20 10 29
q0 11 -16 20q-19 -8 -31 -8q-17 0 -17 10q0 8 16 8t29 -5q24 11 78 73q29 33 59 33q37 0 37 -35q0 -23 -18.5 -46.5t-37.5 -23.5q-21 0 -21 19q0 18 32 38q13 8 13 23q0 12 -15 12q-21 0 -53 -37q-40 -47 -66 -58q51 -23 51 -54q0 -17 -24 -66q-10 -20 -10 -28q0 -13 16 -13
q46 0 150 155q3 5 6 5t3 -3z" />
    <glyph glyph-name="l" unicode="l" horiz-adv-x="160" 
d="M347 499q-205 -341 -239 -401t-34 -80q0 -22 19 -22q41 0 150 155q2 5 6 5q2 -1 2 -3q0 -3 -5 -8l-21 -29q-92 -127 -136 -127q-21 0 -34.5 15.5t-13.5 40.5q0 27 12.5 52t84.5 145q89 147 149 255q15 -4 26 -4q18 0 34 6z" />
    <glyph glyph-name="m" unicode="m" horiz-adv-x="544" 
d="M634 153q0 -2 -5 -8l-21 -29q-92 -127 -136 -127q-23 0 -37.5 17t-14.5 44q0 22 9 40.5t45 70.5q41 59 41 77q0 20 -20 20q-64 0 -221 -265q-10 2 -27 2q-20 0 -34 -2l69 110q68 108 68 133q0 22 -18 22q-27 0 -88 -77.5t-121 -187.5q-11 2 -29 2q-19 0 -33 -2l70 110
q72 113 72 140q0 15 -11 15q-24 0 -99 -105q-5 -7 -8 -7q-2 1 -2 3q0 5 44.5 60.5t68.5 55.5q16 0 27 -15t11 -35q0 -28 -29 -79q88 129 131 129q20 0 33.5 -16.5t13.5 -41.5q0 -28 -26 -71q93 129 139 129q21 0 35.5 -18t14.5 -44q0 -23 -11 -45.5t-55 -87.5
q-24 -36 -24 -54q0 -20 20 -20q38 0 126 123l15 21l9 11q2 5 5 5t3 -3z" />
    <glyph glyph-name="n" unicode="n" horiz-adv-x="391" 
d="M482 153q0 -10 -71 -95q-58 -69 -91 -69q-22 0 -37 17t-15 42q0 22 9 40.5t48 76t39 73.5q0 20 -21 20q-71 0 -220 -265q-24 2 -29 2q-17 0 -32 -2l76 121q65 103 65 129q0 15 -12 15q-25 0 -98 -105q-5 -6 -7 -7q-3 0 -3 3q0 2 2 4l9 12q75 100 101 100q16 0 28 -15
t12 -36q0 -31 -37 -87q58 79 89 108.5t57 29.5q22 0 36.5 -17.5t14.5 -43.5q0 -32 -45.5 -100.5t-45.5 -87.5q0 -20 20 -20q44 0 150 155q2 5 5 5t3 -3z" />
    <glyph glyph-name="o" unicode="o" horiz-adv-x="290" 
d="M380 154q0 -8 -29 -37q-43 -43 -79 -43q-15 0 -27 6q-64 -91 -121 -91q-29 0 -50 24t-21 58q0 75 99 145q69 49 114 49q42 0 42 -45q0 -56 -59 -135q10 -6 22 -6q22 0 51 20.5t48 49.5q6 7 8 7t2 -2zM301 219q0 40 -36 40q-44 0 -108 -85t-64 -143q0 -34 32 -34
q53 0 115 87q-14 15 -14 32q0 24 19 49.5t37 25.5q8 0 11 -10q8 17 8 38z" />
    <glyph glyph-name="p" unicode="p" horiz-adv-x="265" 
d="M323 187q0 -80 -99 -145q-80 -53 -126 -53q-31 0 -31 29q0 9 5 24l-187 -312q-17 4 -28 4q-16 0 -32 -6l401 659q13 -4 26 -4t32 4l-145 -234q52 69 76 90.5t47 21.5q26 0 43.5 -22.5t17.5 -55.5zM287 226q0 32 -28 32q-36 0 -120 -115q-65 -89 -65 -122q0 -25 23 -25
q45 0 117.5 87.5t72.5 142.5z" />
    <glyph glyph-name="q" unicode="q" horiz-adv-x="289" 
d="M386 262q-46 -78 -157 -259q-59 -99 -137 -229q-8 -13 -25 -40q-16 4 -31 4q-16 0 -31 -4l229 367q-2 -3 -19 -25q-65 -87 -105 -87q-25 0 -42.5 22.5t-17.5 55.5q0 78 100 145q80 53 126 53q30 0 30 -29q0 -10 -7 -28l29 53q9 -2 23 -2q11 0 35 3zM299 234q0 24 -22 24
q-44 0 -117 -88t-73 -142q0 -32 28 -32q34 0 116 110q68 92 68 128z" />
    <glyph glyph-name="r" unicode="r" horiz-adv-x="278" 
d="M369 153q0 -4 -29 -36q-37 -41 -70 -41q-37 0 -37 43q0 14 6 35q-31 -27 -50 -53.5t-67 -107.5q-26 2 -30 2q-2 0 -30 -2l80 130q60 98 60 121q0 14 -11 14q-27 0 -99 -105q-5 -7 -8 -7q-2 1 -2 3t2 4l9 12q75 100 102 100q39 0 39 -50q0 -38 -40 -100q25 29 48 48
q19 43 46.5 72.5t49.5 29.5q15 0 15 -13q0 -23 -68 -67q-10 -7 -32 -20l-6 -5q-7 -22 -7 -37q0 -41 31 -41q38 0 83 63q10 11 12 11q3 0 3 -3z" />
    <glyph glyph-name="s" unicode="s" horiz-adv-x="195" 
d="M256 343q0 -20 -61 -78q-3 -15 -3 -26q0 -29 26 -90q13 -31 13 -52q0 -44 -43 -76t-101 -32q-33 0 -53 19t-20 50q0 37 26 71.5t54 34.5q5 0 9 -2l39 48q18 21 47 58q8 34 25.5 58.5t33.5 24.5q8 0 8 -8zM188 150q0 14 -1 28.5t-1 41.5q0 22 2 37q-27 -35 -79 -98
q9 -8 9 -19q0 -29 -47 -39q-19 -4 -33 -20.5t-14 -34.5q0 -20 14 -33t35 -13q41 0 78 47.5t37 102.5z" />
    <glyph glyph-name="t" unicode="t" horiz-adv-x="165" 
d="M271 265l-4 -7h-64l-109 -186q-20 -34 -20 -54q0 -22 23 -22q45 0 150 155q3 5 6 5t3 -3q0 -2 -5 -8l-21 -29q-92 -127 -138 -127q-23 0 -38.5 16.5t-15.5 41.5q0 29 26 73l82 138h-50l5 7h49l57 95q15 -4 28 -4t28 4l-56 -95h64z" />
    <glyph glyph-name="u" unicode="u" horiz-adv-x="313" 
d="M404 153q0 -11 -71 -95q-59 -69 -93 -69q-21 0 -36 17t-15 42q0 19 19 53l-10 -13q-45 -58 -65 -77q-24 -22 -44 -22q-22 0 -36.5 16.5t-14.5 41.5q0 28 22 65l89 149q17 -3 26 -3t33 3l-116 -191q-18 -30 -18 -52t19 -22q49 0 158 184l48 81q15 -3 25 -3q13 0 35 3
l-78 -127q-56 -91 -56 -117q0 -21 20 -21q39 0 127 123l15 21l9 11q2 5 5 5t3 -3z" />
    <glyph glyph-name="v" unicode="v" horiz-adv-x="273" 
d="M364 154q0 -6 -31 -38q-42 -44 -74 -44q-22 0 -36 23q-43 -60 -70.5 -83t-55.5 -23q-25 0 -42 17t-17 42q0 29 33 84l77 129q24 -2 32 -2q18 0 29 2l-102 -165q-34 -56 -34 -77q0 -23 26 -23q24 0 49 22t72 83q-4 15 -4 26q0 44 27 91t53 47q12 0 12 -14q0 -36 -81 -151
q10 -22 32 -22q37 0 90 66q10 12 13 12q2 0 2 -2z" />
    <glyph glyph-name="w" unicode="w" horiz-adv-x="424" 
d="M515 154q0 -6 -31 -38q-42 -44 -74 -44q-21 0 -36 23q-43 -60 -70.5 -83t-55.5 -23q-25 0 -41.5 16.5t-16.5 41.5q0 20 13 49q-73 -107 -115 -107q-21 0 -35.5 17t-14.5 41q0 28 29 77l81 137q20 -3 29 -3q8 0 32 3l-111 -181q-26 -42 -26 -62q0 -22 20 -22q22 0 65.5 49
t86.5 122l55 94q26 -2 33 -2q17 0 28 2l-102 -165q-34 -55 -34 -76q0 -24 25 -24q50 0 121 105q-3 18 -3 27q0 44 27.5 90.5t52.5 46.5q11 0 11 -15q0 -41 -80 -150q12 -22 32 -22q37 0 90 66q10 12 13 12q2 0 2 -2z" />
    <glyph glyph-name="x" unicode="x" horiz-adv-x="348" 
d="M438 153l-2 -4l-6 -8q-64 -85 -99.5 -118.5t-65.5 -33.5q-29 0 -51 22.5t-22 52.5q0 13 7 37q-66 -112 -116 -112q-16 0 -26.5 12t-10.5 29q0 25 18 46.5t39 21.5q26 0 26 -25q0 -28 -40 -39q-22 -6 -22 -22q0 -15 18 -15q36 0 83 66q74 104 74 165q0 30 -27 30
q-46 0 -119 -101q-8 -11 -11 -11q-2 1 -2 3q0 9 48.5 62.5t86.5 53.5q29 0 48 -20t19 -50q0 -15 -7 -33q67 103 116 103q37 0 37 -40q0 -24 -16 -44.5t-35 -20.5q-24 0 -24 25q0 24 35 34q22 7 22 23t-20 16q-41 0 -100.5 -83.5t-59.5 -141.5q0 -37 35 -37q51 0 157 149
q8 11 10 11q3 0 3 -3z" />
    <glyph glyph-name="y" unicode="y" horiz-adv-x="308" 
d="M398 153q0 -8 -54 -67q-59 -65 -155 -118l-24 -43q-71 -127 -148 -189q-80 -64 -138 -64q-20 0 -33.5 12.5t-13.5 31.5q0 98 226 203q19 9 56 26l7 4l86 153q-51 -70 -74 -91.5t-46 -21.5q-20 0 -35 17t-15 40q0 28 35 87l75 127q11 -2 26 -2q13 0 35 3l-96 -156
q-41 -67 -41 -87q0 -22 20 -22q53 0 162 187l45 77q11 -2 27 -2q14 0 33 3q-61 -96 -164 -282q59 31 100 67t92 101q7 9 9 9q3 0 3 -3zM116 -59q-8 -4 -55 -28q-222 -110 -222 -198q0 -37 41 -37q52 0 103 56.5t127 196.5z" />
    <glyph glyph-name="z" unicode="z" horiz-adv-x="279" 
d="M384 260q0 -16 -45 -42q-50 -42 -169 -132q-15 -11 -41 -31l14 1q23 2 41.5 -15.5t23.5 -45.5q28 16 77.5 65.5t73.5 86.5q6 9 9 9q2 0 2 -2q0 -10 -54 -70t-107 -97v-13q0 -54 -38.5 -115.5t-95.5 -99.5q-124 -82 -198 -82q-57 0 -57 46q0 54 78 113q41 31 210 105
q33 15 62 31q8 22 8 41q0 37 -39 37q-11 0 -17 -1l-7 -6l-18 -17q-46 -43 -59 -43q-12 0 -12 11q0 31 90 59q136 103 208 161l-10 -7q-27 -19 -50 -19q-16 0 -40 20t-39 20q-30 0 -91 -76q-6 -6 -8 -6q-2 1 -2 3q0 8 45 56q54 58 92 58q15 0 65 -32q17 -11 31 -11q7 0 15 4
l6 8l16 20q11 14 22 14q8 0 8 -6zM167 -36q-12 -7 -139 -66q-94 -43 -148 -90.5t-54 -86.5q0 -38 50 -38q70 0 161 88t130 193z" />
    <glyph glyph-name="braceleft" unicode="{" horiz-adv-x="439" 
d="M709 702q0 -6 -18 -7q-80 -6 -118.5 -50t-82.5 -178q-46 -141 -214 -163q2 0 10 -1q68 -5 68 -43q0 -37 -65 -149q-62 -107 -62 -137q0 -37 65 -36q29 0 29 -3q0 -9 -25 -9q-65 0 -79 3q-49 9 -49 47q0 28 18.5 69t75.5 138q40 68 40 87q0 28 -41 28q-7 0 -7 4q0 5 18 8
q63 9 93 44t73 147q31 81 63.5 121t82.5 62.5t106 22.5q19 0 19 -5z" />
    <glyph glyph-name="bar" unicode="|" horiz-adv-x="500" 
d="M419 -167h-19v834h19v-834z" />
    <glyph glyph-name="braceright" unicode="}" horiz-adv-x="439" 
d="M509 639q0 -24 -14.5 -52.5t-88.5 -146.5q-42 -67 -42 -90q0 -17 15 -29t35 -11q11 0 11 -5t-13 -7q-49 -7 -70 -27t-51 -87q-50 -111 -69 -143q-51 -85 -113 -105q-32 -10 -119 -10q-16 0 -16 6t31 6q66 -1 102.5 33t84.5 139q55 121 92.5 155t118.5 39q-88 14 -88 68
q0 30 44 95q67 99 82.5 127.5t15.5 50.5q0 51 -64 50q-12 0 -12 4q0 8 25 8q103 0 103 -68z" />
    <glyph glyph-name="asciitilde" unicode="~" horiz-adv-x="667" 
d="M799 698q-54 -93 -124 -93q-37 0 -138 54q-56 30 -91 30q-56 0 -105 -86l-17 11q55 93 124 93q39 0 119 -44q73 -40 107 -40q58 0 109 85z" />
    <glyph glyph-name="nonbreakingspace" unicode="&#xa0;" horiz-adv-x="177" 
 />
    <glyph glyph-name="exclamdown" unicode="&#xa1;" horiz-adv-x="287" 
d="M452 543q0 -20 -21 -40t-42 -20q-19 0 -19 20q0 22 20 42t41 20t21 -22zM372 450q0 -2 -6 -11q-46 -67 -161 -330q-28 -65 -47.5 -90t-41.5 -25q-29 0 -29 29q0 15 18 43.5t94 133.5q121 166 162 248q3 6 7 6t4 -4z" />
    <glyph glyph-name="cent" unicode="&#xa2;" 
d="M534 491q0 -4 -3 -9l-66 -108q42 -8 42 -45q0 -34 -30.5 -60.5t-69.5 -26.5q-38 0 -38 35q0 16 7 16q2 -1 2 -3l-1 -3l-1 -9q0 -26 25 -26q26 0 56 32.5t30 60.5q0 23 -26 23q-46 0 -110 -78t-64 -134q0 -42 41 -42q64 0 129 98q3 5 5 6q4 0 4 -4q0 -5 -18 -28.5
t-34 -38.5q-43 -40 -88 -40q-8 0 -16 2l-86 -149q-4 -6 -7 -6q-5 0 -5 5q0 4 5 10l85 142q-54 23 -54 78q0 61 66 120t141 66l65 111q5 9 9 9q5 0 5 -4z" />
    <glyph glyph-name="sterling" unicode="&#xa3;" horiz-adv-x="618" 
d="M742 -3q0 -27 -25 -44t-65 -17q-82 0 -136 65q-51 -13 -92 -13q-101 0 -173.5 60t-72.5 143q0 111 131 190q54 33 161 67q21 7 65 22q42 66 99 116.5t89 50.5q18 0 18 -16q0 -23 -57 -69t-139 -89q-25 -52 -39 -94q23 4 41 4q67 0 110.5 -42.5t43.5 -108.5
q0 -72 -47 -130t-127 -87q50 -61 123 -61q23 0 44.5 7.5t21.5 15.5q-1 2 -3 2l-5 -1q-6 -3 -13 -3q-23 0 -23 25q0 16 11.5 27.5t27.5 11.5q31 0 31 -32zM732 621q0 8 -8 8q-27 0 -83.5 -49.5t-88.5 -101.5q61 28 120.5 75.5t59.5 67.5zM683 234q0 57 -38.5 94t-97.5 37
q-21 0 -44 -6q-30 -91 -30 -177q0 -55 17 -106q42 11 73.5 42t31.5 60q0 14 11 14q10 0 10 -11q0 -28 -39.5 -64.5t-83.5 -49.5q12 -29 22 -44q72 33 120 93t48 118zM484 354q-60 -23 -100 -73.5t-40 -104.5q0 -46 31.5 -75.5t80.5 -29.5q11 0 21 2q-21 60 -21 120
q0 70 28 161zM529 456q-1 0 -116 -61q-67 -35 -108 -74q-85 -81 -85 -167q0 -64 57 -109.5t136 -45.5q45 0 91 19q-11 16 -24 46q-24 -2 -25 -2q-56 0 -95.5 34.5t-39.5 83.5q0 62 46 112.5t122 72.5q18 49 41 91z" />
    <glyph glyph-name="currency" unicode="&#xa4;" horiz-adv-x="508" 
d="M609 75l-10 -10l-91 92q-50 -40 -107 -40q-59 0 -109 40l-92 -92l-9 10l92 92q-45 43 -45 108q0 63 45 108l-92 92l9 9l92 -91q46 40 109 40q56 0 107 -40l91 91l10 -9l-92 -92q44 -44 44 -109t-44 -107zM542 275q0 62 -40 102t-102 40q-59 0 -101 -41.5t-42 -100.5
t42 -100t103 -41t100.5 40t39.5 101z" />
    <glyph glyph-name="yen" unicode="&#xa5;" 
d="M720 517q0 -6 -22 -7q-96 -4 -247 -222h129l-6 -9h-129q-15 -22 -37 -55h154l-6 -9h-154q-47 -74 -131 -235q-19 6 -33 6q-16 0 -34 -6l133 235h-115l5 9h115q12 23 31 55h-133l5 9h133q79 145 79 183q0 41 -63 41t-113 -39t-50 -88q0 -43 51 -43q23 0 49.5 15t42.5 37
q1 3 4 3q2 -1 2 -3q0 -3 -18 -21q-38 -37 -82 -37q-28 0 -46 15.5t-18 40.5q0 47 54.5 86.5t120.5 39.5q85 0 85 -72q0 -63 -53 -178l-6 -13q179 267 295 267q8 0 8 -5z" />
    <glyph glyph-name="brokenbar" unicode="&#xa6;" horiz-adv-x="500" 
d="M419 347h-19v320h19v-320zM419 -167h-19v320h19v-320z" />
    <glyph glyph-name="section" unicode="&#xa7;" 
d="M673 592q0 -4 -4 -4t-16 9q-42 31 -86 31q-52 0 -87.5 -33.5t-35.5 -83.5q0 -28 32 -150q19 -73 19 -144q0 -116 -69.5 -198.5t-167.5 -82.5q-41 0 -91.5 20.5t-50.5 36.5q0 5 5 5q4 0 29 -18q44 -31 94 -31q52 0 93 39t41 89q0 29 -11 72q-38 147 -38 216
q0 119 62.5 198t157.5 79q34 0 79 -18t45 -32zM509 625q-138 -48 -138 -211q0 -61 24 -179q16 -79 16 -121q0 -93 -92 -153q134 51 134 217q0 51 -20.5 148t-20.5 146q0 106 97 153z" />
    <glyph glyph-name="dieresis" unicode="&#xa8;" horiz-adv-x="500" 
d="M500 360q0 -18 -13.5 -32.5t-29.5 -14.5q-24 0 -24 22q0 17 14.5 31t31.5 14q21 0 21 -20zM417 360q0 -18 -13.5 -32.5t-29.5 -14.5q-24 0 -24 23q0 17 14.5 30.5t31.5 13.5q21 0 21 -20z" />
    <glyph glyph-name="copyright" unicode="&#xa9;" horiz-adv-x="768" 
d="M882 343q0 -150 -110.5 -260.5t-259.5 -110.5q-132 0 -222 89.5t-90 220.5q0 151 111.5 261t263.5 110q129 0 218 -90t89 -220zM869 341q0 129 -86.5 214.5t-217.5 85.5q-140 0 -246 -107.5t-106 -249.5q0 -127 86.5 -213.5t213.5 -86.5q143 0 249.5 106.5t106.5 250.5z
M744 438q0 -49 -41 -88.5t-93 -39.5q-22 0 -38 10.5t-16 25.5q0 5 3 5q2 -1 2 -3q3 -25 31 -25q46 0 90 44t44 89t-50 45q-74 0 -178 -82q-58 -45 -91 -101t-33 -107q0 -91 100 -91q99 0 192 135q10 14 13 14t3 -3q0 -16 -53 -72q-78 -83 -156 -83q-57 0 -97.5 39.5
t-40.5 94.5q0 57 41.5 115t110.5 96q97 54 177 54q36 0 58 -19.5t22 -52.5z" />
    <glyph glyph-name="ordfeminine" unicode="&#xaa;" horiz-adv-x="291" 
d="M580 503q0 -43 -62 -109t-161 -129h84l-3 -7h-85l-41 -78q-76 -145 -127.5 -218t-118.5 -129q-93 -78 -176 -78q-36 0 -36 10q0 5 5 5q4 0 6 -1q19 -5 33 -5q66 0 133 59q42 37 72 84q23 38 120 214l75 137h-104l-40 -78q-74 -144 -126 -217t-121 -130q-94 -78 -175 -78
q-36 0 -36 10q0 5 5 5q4 0 6 -1q17 -5 33 -5q66 0 133 59q41 36 72 85q25 39 120 213l75 137h-52l4 7h53q62 106 138 183.5t117 77.5q22 0 22 -23q0 -43 -61.5 -109t-161.5 -129h104q58 101 136 181t119 80q22 0 22 -23zM574 504q0 16 -16 16q-37 0 -101 -85
q-40 -53 -96 -160q78 53 145.5 125.5t67.5 103.5zM416 504q0 16 -16 16q-37 0 -101 -85q-32 -43 -96 -160q80 55 146.5 126.5t66.5 102.5z" />
    <glyph glyph-name="guillemotleft" unicode="&#xab;" horiz-adv-x="448" 
d="M509 343q0 -16 -60 -79q-3 -8 -3 -20q0 -23 4 -36.5t27 -68.5q9 -22 9 -45q0 -41 -43 -73t-99 -32q-32 0 -53.5 17t-21.5 42v10q-55 -69 -94 -69q-19 0 -32 10q-35 -10 -54 -10q-75 0 -75 69q0 37 26 71.5t54 34.5q5 0 9 -2l39 48q34 40 47 58q7 34 24.5 58.5t34.5 24.5
q8 0 8 -8q0 -18 -61 -78q-3 -15 -3 -26q0 -29 26 -90q13 -30 13 -51q0 -66 -79 -96q12 -6 22 -6q37 0 95 71q8 41 30.5 68.5t49.5 27.5q4 0 8 -1q47 55 86 106q20 83 58 83q8 0 8 -8zM443 149q0 6 -2 36t-2 35q0 12 3 36q-18 -21 -40 -49q-25 -32 -39 -48q9 -7 9 -19
q0 -27 -44 -39q-50 -13 -50 -55q0 -18 14.5 -31.5t34.5 -13.5q42 0 79 47t37 101zM188 150q0 12 -1 35t-1 35q0 9 2 37q-45 -57 -79 -98q9 -6 9 -18q0 -30 -47 -40q-19 -4 -33 -20t-14 -35t14 -32t35 -13q42 0 78.5 47.5t36.5 101.5z" />
    <glyph glyph-name="logicalnot" unicode="&#xac;" horiz-adv-x="523" 
d="M614 0h-19v249h-414v18h433v-267z" />
    <glyph glyph-name="sfthyphen" unicode="&#xad;" horiz-adv-x="358" 
d="M358 133q0 -6 -40 -18.5t-61 -12.5q-20 0 -41 5q-25 6 -38 6q-20 0 -39 -10q-1 -1 -3 -1t-2 2q0 6 38 19t55 13q10 0 42 -7q27 -6 39 -6q23 0 43 10q3 2 5 2t2 -2z" />
    <glyph glyph-name="registered" unicode="&#xae;" horiz-adv-x="768" 
d="M882 343q0 -150 -110.5 -260.5t-259.5 -110.5q-132 0 -222 89.5t-90 220.5q0 151 111.5 261t263.5 110q129 0 218 -90t89 -220zM869 341q0 129 -86.5 214.5t-217.5 85.5q-140 0 -246 -107.5t-106 -249.5q0 -127 86.5 -213.5t213.5 -86.5q143 0 249.5 106.5t106.5 250.5z
M778 521q0 -2 -14 -4q-25 -3 -66 -26q52 -33 52 -84q0 -70 -101 -84q42 -22 42 -64q0 -15 -10 -56q-11 -45 -11 -58q0 -38 36 -38q26 0 44 23q4 4 5 4q2 0 2 -3q-1 -8 -20 -18.5t-33 -10.5q-27 0 -46.5 24.5t-19.5 57.5q0 21 14 64q10 31 10 47t-18 26q-24 -2 -32 -2
q-23 0 -23 6q0 5 17 5q20 0 38 -6q72 22 72 96q0 38 -31 61q-78 -58 -118 -171q-43 -121 -104 -164q-47 -33 -95 -33q-37 0 -63 21t-26 50q0 19 11.5 32t27.5 13q25 0 25 -27q0 -28 -25 -28q-23 0 -23 20q0 5 4 16q1 1 1 3t-2 2q-4 0 -9 -10.5t-5 -20.5q0 -26 24.5 -45.5
t58.5 -19.5q41 0 76 42q20 25 74 144q49 108 162 181q-43 33 -101 33q-85 0 -157 -57.5t-72 -124.5q0 -57 66 -57q11 0 30.5 5.5t22.5 5.5t3 -2q0 -4 -20 -9t-38 -5q-34 0 -55.5 19t-21.5 50q0 74 69 128.5t162 54.5q65 0 125 -32q58 29 79 29q7 0 7 -3z" />
    <glyph glyph-name="macron" unicode="&#xaf;" horiz-adv-x="500" 
d="M509 348l-3 -9h-221l3 9h221z" />
    <glyph glyph-name="macron" unicode="&#x2c9;" horiz-adv-x="500" 
d="M509 348l-3 -9h-221l3 9h221z" />
    <glyph glyph-name="degree" unicode="&#xb0;" 
d="M578 535q0 -35 -26 -60.5t-62 -25.5t-62 25.5t-26 60.5q0 36 26 61t63 25q36 0 61.5 -25.5t25.5 -60.5zM562 535q0 30 -21 51t-52 21q-29 0 -50 -21.5t-21 -50.5q0 -30 21 -51t51 -21q29 0 50.5 21.5t21.5 50.5z" />
    <glyph glyph-name="plusminus" unicode="&#xb1;" horiz-adv-x="781" 
d="M889 333q0 -139 -97.5 -236t-236.5 -97q-138 0 -235.5 97t-97.5 235q0 141 98 238t240 97q135 0 232 -98.5t97 -235.5z" />
    <glyph glyph-name="twosuperior" unicode="&#xb2;" horiz-adv-x="318" 
d="M522 511q0 -53 -64 -95q-32 -21 -125 -57q-80 -31 -124 -71q21 16 50 16q21 0 49 -8l48 -14q10 -3 21 -3q57 0 76 69q1 5 4 5t3 -3q0 -16 -21 -45q-38 -52 -93 -52q-21 0 -89 22q-18 6 -33 6q-31 0 -34 -23q0 -8 -5 -8q-4 0 -4 4q0 13 24 38q32 33 125 75q73 33 116 77.5
t43 87.5q0 39 -50 39q-53 0 -113.5 -52t-60.5 -97q0 -31 39 -31q32 0 70.5 29.5t54.5 66.5q1 4 4 4t3 -3q0 -14 -26 -43q-54 -60 -105 -60q-52 0 -52 50q0 52 59.5 97t127.5 45q36 0 59 -18.5t23 -47.5z" />
    <glyph glyph-name="threesuperior" unicode="&#xb3;" horiz-adv-x="318" 
d="M501 525q0 -69 -119 -91q69 -16 69 -71q0 -42 -50 -74t-117 -32q-41 0 -68.5 16.5t-27.5 41.5q0 27 27 45.5t66 18.5q29 0 29 -5q0 -3 -4 -3l-8 1h-10q-34 0 -56.5 -17t-22.5 -43q0 -22 17.5 -35t45.5 -13q53 0 98.5 37.5t45.5 81.5q0 36 -45 49q-19 -4 -42 -4h-6
q-11 0 -11 5q0 7 23 7q17 0 36 -3q97 34 97 102q0 36 -46 36q-41 0 -82.5 -27.5t-41.5 -55.5q0 -25 33 -25q45 0 86 54q2 3 5 3q2 0 2 -2q0 -12 -33 -37t-62 -25q-41 0 -41 38q0 32 40.5 57.5t92.5 25.5q36 0 58 -15.5t22 -40.5z" />
    <glyph glyph-name="acute" unicode="&#xb4;" horiz-adv-x="500" 
d="M567 412q-47 -37 -121 -68q-57 -24 -65 -24q-2 0 -3 1q0 1 6 4q114 55 163 118z" />
    <glyph glyph-name="mu" unicode="&#xb5;" horiz-adv-x="348" 
d="M438 153q0 -2 -5 -8l-21 -29q-92 -127 -137 -127q-22 0 -37 17t-15 42q0 20 19 53q-69 -112 -115 -112q-32 0 -32 37q0 10 1 16l-174 -312q-29 4 -34 4q-13 0 -29 -6l323 533q17 -3 27 -3q8 0 33 3l-116 -191q-15 -25 -15 -47q0 -27 21 -27q46 0 153 184l47 81
q17 -3 25 -3q12 0 36 3l-79 -127q-55 -88 -55 -117q0 -21 20 -21q44 0 151 155q2 5 5 5t3 -3z" />
    <glyph glyph-name="mu" unicode="&#x3bc;" horiz-adv-x="348" 
d="M438 153q0 -2 -5 -8l-21 -29q-92 -127 -137 -127q-22 0 -37 17t-15 42q0 20 19 53q-69 -112 -115 -112q-32 0 -32 37q0 10 1 16l-174 -312q-29 4 -34 4q-13 0 -29 -6l323 533q17 -3 27 -3q8 0 33 3l-116 -191q-15 -25 -15 -47q0 -27 21 -27q46 0 153 184l47 81
q17 -3 25 -3q12 0 36 3l-79 -127q-55 -88 -55 -117q0 -21 20 -21q44 0 151 155q2 5 5 5t3 -3z" />
    <glyph glyph-name="paragraph" unicode="&#xb6;" horiz-adv-x="827" 
d="M1203 511q0 -28 -5 -52.5t-10 -24.5q-3 1 -3 4q0 9 4.5 33t4.5 38q0 60 -37 97t-98 37q-97 0 -189 -81q-52 -46 -89.5 -105.5t-109 -209t-211.5 -218.5q-99 -49 -179 -49q-77 0 -122 39t-45 105q0 28 16.5 72.5t27.5 44.5q3 -1 3 -4q0 -2 -4 -8q-34 -55 -34 -105
q0 -62 42.5 -99t113.5 -37q91 0 164 55t154 185q92 148 151 222.5t129 131.5q-56 26 -106 26q-93 0 -157 -64.5t-64 -158.5q0 -93 48 -93q12 0 22 7q0 1 1 1q2 0 2 -2q0 -6 -19.5 -12t-38.5 -6q-65 0 -112 43.5t-47 102.5q0 83 93.5 140.5t228.5 57.5q85 0 157 -36
q91 64 175 64q63 0 103 -39.5t40 -101.5z" />
    <glyph glyph-name="middot" unicode="&#xb7;" horiz-adv-x="231" 
d="M234 132q0 -24 -19.5 -44t-43.5 -20t-24 23q0 22 20.5 43t42.5 21q24 0 24 -23z" />
    <glyph glyph-name="cedilla" unicode="&#xb8;" horiz-adv-x="500" 
d="M266 -49q0 -36 -42 -36q-19 0 -53 17t-34 27q0 3 3 3t8 -4q28 -19 54 -19q14 0 24.5 9t10.5 20q0 15 -20 38l8 -2q41 -29 41 -53z" />
    <glyph glyph-name="onesuperior" unicode="&#xb9;" horiz-adv-x="318" 
d="M501 565q0 -3 -67 -105q-89 -136 -106 -200q-13 3 -22 3q-13 0 -34 -4q21 58 126 182q44 52 71 89q-68 -71 -126.5 -120.5t-75.5 -49.5q-3 0 -4 3q0 3 13 9q74 37 218 192q3 4 5 4q2 -1 2 -3z" />
    <glyph glyph-name="ordmasculine" unicode="&#xba;" horiz-adv-x="312" 
d="M422 503q0 -43 -61.5 -109t-161.5 -129h98l57 95q15 -4 28 -4t28 4l-56 -95h64l-4 -7h-64l-109 -186q-20 -34 -20 -54q0 -22 23 -22q39 0 127 123l15 21l9 11q2 5 5 5t3 -3q0 -2 -5 -8l-21 -29q-92 -127 -137 -127q-24 0 -39.5 16.5t-15.5 41.5q0 29 26 73l82 138h-99
l-40 -78q-72 -141 -125.5 -215.5t-121.5 -131.5q-94 -78 -175 -78q-36 0 -36 10q0 4 5 4q4 0 6 -1q16 -4 33 -4q66 0 133 59q41 36 72 85q25 40 120 213l75 137h-52l4 7h53q62 106 138 183.5t117 77.5q22 0 22 -23zM416 504q0 16 -16 16q-37 0 -101 -85q-32 -43 -96 -160
q80 55 146.5 126.5t66.5 102.5z" />
    <glyph glyph-name="guillemotright" unicode="&#xbb;" horiz-adv-x="519" 
d="M818 477q0 -79 -96 -133.5t-235 -54.5q-59 0 -103 6q-13 -27 -96 -161q94 136 145 136q22 0 36.5 -17.5t14.5 -43.5q0 -32 -43 -97q-48 -72 -48 -90q0 -20 19 -20q23 0 66 48q50 56 84 108q5 7 7 7q3 0 3 -3t-52 -71q-73 -96 -112 -96q-22 0 -37 16.5t-15 42.5
q0 34 37 88q58 85 58 101q0 20 -19 20q-69 0 -221 -267q-15 4 -29 4q-11 0 -28 -4l96 162q-112 -163 -161 -163q-20 0 -35.5 16.5t-15.5 38.5q0 32 26 75l113 185q-81 -2 -108 -10h-3q-3 0 -3 2q0 15 118 15l62 101q14 -3 23 -3q19 0 36 6l-64 -107l22 -1q39 -2 79 -7
q81 124 140 180q107 101 208 101q59 0 95 -30t36 -80zM805 489q0 41 -32 66t-85 25q-71 0 -127 -45t-123 -154q-11 -18 -50 -80q65 -5 96 -5q166 0 260 81q61 53 61 112zM335 301q-10 2 -101 7l-140 -230q-21 -34 -21 -54q0 -22 20 -22q57 0 242 299z" />
    <glyph glyph-name="onequarter" unicode="&#xbc;" horiz-adv-x="651" 
d="M535 565q0 -1 -1 -3l-3 -4q-38 -51 -76 -99q-106 -134 -130 -199q-10 2 -22 2q-10 0 -34 -3q28 59 147 182q43 45 83 89q-75 -70 -141 -120t-83 -50q-3 1 -3 3t15 9q78 35 240 191q4 4 6 4t2 -2zM810 341q0 -4 -4 -4q-1 0 -10.5 2.5t-18.5 2.5q-77 0 -213 -122
q-102 -92 -158 -121q33 8 80 8q17 0 36 -3q21 28 82 98q44 51 70 87q1 4 5 4q2 0 2 -2q0 -1 -1 -3l-14 -21q-42 -63 -108 -165h25q36 0 58 14t22 36q0 3 -2 13q-1 1 -1 3q1 3 3 3q6 0 6 -17q0 -66 -120 -66q-34 -59 -42 -89q-16 3 -25 3q-6 0 -32 -3q22 43 60 89
q-66 6 -81 6q-13 0 -37 -2q-36 -23 -60 -23q-5 0 -5 4q0 11 61 24q66 34 172 129q139 125 218 125q32 0 32 -10zM699 562q0 -4 -64 -73q-68 -74 -209.5 -255.5t-202.5 -273.5q-13 6 -29 6q-14 0 -25 -2q94 112 275 311q163 178 246 281l4 5q1 3 4 3q1 0 1 -2z" />
    <glyph glyph-name="onehalf" unicode="&#xbd;" horiz-adv-x="651" 
d="M491 564q0 -3 -67 -105q-87 -132 -105 -199q-10 2 -22 2q-10 0 -34 -3q20 57 126 182q43 51 71 89q-66 -70 -126 -120t-77 -50q-3 1 -3 3q0 3 13 9q71 34 217 191q3 4 5 4q2 -1 2 -3zM714 249q0 -52 -64 -95q-30 -20 -125 -57q-81 -31 -123 -71q22 15 49 15q29 0 67 -13
q35 -12 52 -12q57 0 76 70q1 5 4 5t3 -3q0 -16 -21 -46q-37 -52 -93 -52q-23 0 -64 14.5t-59 14.5q-30 0 -33 -23q0 -8 -5 -8q-4 0 -4 4q0 14 24 38q34 34 124 75q73 33 115.5 77.5t42.5 87.5q0 39 -49 39q-52 0 -112.5 -52t-60.5 -97q0 -31 39 -31q32 0 70.5 29.5
t54.5 66.5q1 4 4 4t3 -3q0 -13 -26 -43q-53 -60 -105 -60t-52 51t59.5 96t127.5 45q35 0 58 -18.5t23 -47.5zM676 562q0 -4 -64 -73q-68 -74 -209.5 -255.5t-202.5 -273.5q-13 6 -29 6q-14 0 -25 -2q94 112 275 311q163 178 246 281l4 5q1 3 4 3q1 0 1 -2z" />
    <glyph glyph-name="threequarters" unicode="&#xbe;" horiz-adv-x="651" 
d="M505 524q0 -69 -119 -90q69 -16 69 -71q0 -43 -50 -75t-117 -32q-42 0 -69 16.5t-27 42.5t27 44.5t65 18.5q30 0 30 -5q0 -3 -3 -3h-3q-10 2 -18 2q-32 0 -54.5 -17.5t-22.5 -43.5q0 -48 63 -48q53 0 98.5 37.5t45.5 81.5q0 37 -45 49q-24 -4 -43 -4q-16 0 -16 5
q0 7 23 7q18 0 36 -2q97 32 97 102q0 36 -47 36q-41 0 -82 -28t-41 -56q0 -25 32 -25q46 0 87 54q1 4 5 4q2 0 2 -2q0 -11 -32 -36.5t-63 -25.5q-41 0 -41 38q0 32 40.5 57.5t92.5 25.5q80 0 80 -57zM808 341q0 -4 -4 -4l-11 2.5t-18 2.5q-79 0 -199 -122q-92 -93 -143 -121
q34 7 82 7q20 0 34 -2q10 16 70 98q47 64 59 87q1 4 4 4t3 -3l-1 -2l-3 -6l-8 -15l-14 -24q-7 -12 -20 -37q-32 -57 -56 -104h28q73 0 73 46q0 7 -4 16q-1 1 -1 3q0 3 3 3q8 0 8 -22q0 -60 -114 -60q-27 -58 -31 -89q-15 3 -23 3q-9 0 -32 -3q13 36 48 89q-8 1 -29 3
q-33 3 -52 3q-13 0 -36 -2q-36 -23 -57 -23q-6 0 -6 4q0 10 58 24q63 36 156 129q125 125 202 125q34 0 34 -10zM733 562q0 -3 -64 -73q-69 -75 -206 -250.5t-207 -278.5q-12 6 -29 6q-13 0 -24 -2q306 369 499 570l26 27q1 3 4 3q1 0 1 -2z" />
    <glyph glyph-name="questiondown" unicode="&#xbf;" horiz-adv-x="436" 
d="M542 550q0 -20 -21 -40t-41 -20t-20 20q0 22 20 42t41 20t21 -22zM509 208q0 -80 -85.5 -146t-190.5 -67q25 -60 83 -60q19 0 38 7q4 2 5 2q3 -1 3 -3q0 -4 -16.5 -8.5t-29.5 -4.5q-63 0 -90 67q-65 4 -106.5 41t-41.5 90q0 77 93 136q33 21 164 71q135 52 135 106
q0 25 -27 25q-43 0 -83 -58q-1 -3 -4 -3q-2 0 -2 2q0 9 28 35q33 31 63 31q32 0 32 -31q0 -26 -32 -55q-17 -16 -111 -68q-206 -114 -206 -226q0 -82 97 -90q-5 18 -5 36q0 86 69.5 164.5t145.5 78.5q32 0 53 -20.5t21 -51.5zM494 220q0 53 -59 53q-70 0 -139.5 -79
t-69.5 -158q0 -17 5 -36q99 0 184 81q79 75 79 139z" />
    <glyph glyph-name="Agrave" unicode="&#xc0;" horiz-adv-x="908" 
d="M1249 703q-1 -2 -3 -2q-13 0 -33.5 37t-30.5 80l44 30q-9 -24 -9 -49q0 -53 28 -89l1 -2q3 -3 3 -5zM872 496q0 -5 -18 -26q-50 -57 -94 -57q-29 0 -46.5 20t-17.5 52q0 27 32 88q15 28 15 47q0 25 -27 42t-66 17q-112 0 -207.5 -86t-95.5 -186q0 -50 32 -82.5t83 -32.5
q55 0 111 40.5t79 96.5q1 5 4 5q4 0 4 -5q0 -10 -17 -36t-35 -44q-66 -65 -148 -65q-55 0 -89 34.5t-34 90.5q0 103 99.5 191t215.5 88q51 0 80 -25.5t29 -69.5q0 -34 -23 -79q-21 -41 -21 -56q0 -36 43 -36q49 0 101 72q4 6 7 6q4 0 4 -4zM1395 585q0 -9 -10 -9q-5 0 -33 6
q-52 11 -87 11q-79 -24 -139 -93t-137 -223q-118 -237 -303 -280q38 -6 67 -6q90 0 151 58q59 55 98 118q4 7 7 7t3 -2q0 -8 -56 -76q-52 -64 -95 -88t-105 -24q-36 0 -87 10q-31 -10 -72 -10q-28 0 -28 10q0 12 38 12q27 0 62 -5q76 18 114.5 59.5t149.5 224.5h-188
q-119 -126 -185 -179q-153 -124 -288 -124q-77 0 -131 36t-54 88q0 27 16.5 46t39.5 19q32 0 32 -31q0 -16 -11 -27.5t-26 -11.5q-23 0 -23 22l1 10q1 2 1 5q0 5 -4 5q-5 0 -10 -12t-5 -25q0 -48 50.5 -81t123.5 -33q105 0 231 103q29 23 64 61q70 73 111 114l15 15h-95l6 9
q47 0 96 -1q143 159 277.5 232.5t284.5 74.5q35 7 65 7q68 0 68 -22zM1240 591q-127 -7 -236 -73.5t-251 -224.5h185q63 109 150.5 195t151.5 103z" />
    <glyph glyph-name="Aacute" unicode="&#xc1;" horiz-adv-x="908" 
d="M1414 811q-47 -35 -125 -69q-57 -25 -67 -25q-3 0 -3 2q0 1 6 4q48 23 98 58.5t70 62.5zM872 496q0 -5 -18 -26q-50 -57 -94 -57q-29 0 -46.5 20t-17.5 52q0 27 32 88q15 28 15 47q0 25 -27 42t-66 17q-112 0 -207.5 -86t-95.5 -186q0 -50 32 -82.5t83 -32.5
q55 0 111 40.5t79 96.5q1 5 4 5q4 0 4 -5q0 -10 -17 -36t-35 -44q-66 -65 -148 -65q-55 0 -89 34.5t-34 90.5q0 103 99.5 191t215.5 88q51 0 80 -25.5t29 -69.5q0 -34 -23 -79q-21 -41 -21 -56q0 -36 43 -36q49 0 101 72q4 6 7 6q4 0 4 -4zM1395 585q0 -9 -10 -9q-5 0 -33 6
q-52 11 -87 11q-79 -24 -139 -93t-137 -223q-118 -237 -303 -280q38 -6 67 -6q90 0 151 58q59 55 98 118q4 7 7 7t3 -2q0 -8 -56 -76q-52 -64 -95 -88t-105 -24q-36 0 -87 10q-31 -10 -72 -10q-28 0 -28 10q0 12 38 12q27 0 62 -5q76 18 114.5 59.5t149.5 224.5h-188
q-119 -126 -185 -179q-153 -124 -288 -124q-77 0 -131 36t-54 88q0 27 16.5 46t39.5 19q32 0 32 -31q0 -16 -11 -27.5t-26 -11.5q-23 0 -23 22l1 10q1 2 1 5q0 5 -4 5q-5 0 -10 -12t-5 -25q0 -48 50.5 -81t123.5 -33q105 0 231 103q29 23 64 61q70 73 111 114l15 15h-95l6 9
q47 0 96 -1q143 159 277.5 232.5t284.5 74.5q35 7 65 7q68 0 68 -22zM1240 591q-127 -7 -236 -73.5t-251 -224.5h185q63 109 150.5 195t151.5 103z" />
    <glyph glyph-name="Acircumflex" unicode="&#xc2;" horiz-adv-x="908" 
d="M1311 844q-3 -36 -9 -122q0 -4 -2 -4q-2 1 -2 4q-3 50 -12 69q-29 -20 -91 -47t-78 -27q-3 0 -3 2q1 1 7 4q54 23 110.5 59t79.5 62zM872 496q0 -5 -18 -26q-50 -57 -94 -57q-29 0 -46.5 20t-17.5 52q0 27 32 88q15 28 15 47q0 25 -27 42t-66 17q-112 0 -207.5 -86
t-95.5 -186q0 -50 32 -82.5t83 -32.5q55 0 111 40.5t79 96.5q1 5 4 5q4 0 4 -5q0 -10 -17 -36t-35 -44q-66 -65 -148 -65q-55 0 -89 34.5t-34 90.5q0 103 99.5 191t215.5 88q51 0 80 -25.5t29 -69.5q0 -34 -23 -79q-21 -41 -21 -56q0 -36 43 -36q49 0 101 72q4 6 7 6
q4 0 4 -4zM1395 585q0 -9 -10 -9q-5 0 -33 6q-52 11 -87 11q-79 -24 -139 -93t-137 -223q-118 -237 -303 -280q38 -6 67 -6q90 0 151 58q59 55 98 118q4 7 7 7t3 -2q0 -8 -56 -76q-52 -64 -95 -88t-105 -24q-36 0 -87 10q-31 -10 -72 -10q-28 0 -28 10q0 12 38 12
q27 0 62 -5q76 18 114.5 59.5t149.5 224.5h-188q-119 -126 -185 -179q-153 -124 -288 -124q-77 0 -131 36t-54 88q0 27 16.5 46t39.5 19q32 0 32 -31q0 -16 -11 -27.5t-26 -11.5q-23 0 -23 22l1 10q1 2 1 5q0 5 -4 5q-5 0 -10 -12t-5 -25q0 -48 50.5 -81t123.5 -33
q105 0 231 103q29 23 64 61q70 73 111 114l15 15h-95l6 9q47 0 96 -1q143 159 277.5 232.5t284.5 74.5q35 7 65 7q68 0 68 -22zM1240 591q-127 -7 -236 -73.5t-251 -224.5h185q63 109 150.5 195t151.5 103z" />
    <glyph glyph-name="Atilde" unicode="&#xc3;" horiz-adv-x="908" 
d="M1364 758q0 -7 -28 -20t-42 -13q-15 0 -44 7l-10 2q-48 12 -62 12q-13 0 -28 -7q-4 -3 -7 -3t-3 2q0 3 24.5 18t46.5 15q12 0 60 -11q43 -10 56 -10q17 0 29 8q4 2 5 2q3 -1 3 -2zM872 496q0 -5 -18 -26q-50 -57 -94 -57q-29 0 -46.5 20t-17.5 52q0 27 32 88q15 28 15 47
q0 25 -27 42t-66 17q-112 0 -207.5 -86t-95.5 -186q0 -50 32 -82.5t83 -32.5q55 0 111 40.5t79 96.5q1 5 4 5q4 0 4 -5q0 -10 -17 -36t-35 -44q-66 -65 -148 -65q-55 0 -89 34.5t-34 90.5q0 103 99.5 191t215.5 88q51 0 80 -25.5t29 -69.5q0 -34 -23 -79q-21 -41 -21 -56
q0 -36 43 -36q49 0 101 72q4 6 7 6q4 0 4 -4zM1395 585q0 -9 -10 -9q-5 0 -33 6q-52 11 -87 11q-79 -24 -139 -93t-137 -223q-118 -237 -303 -280q38 -6 67 -6q90 0 151 58q59 55 98 118q4 7 7 7t3 -2q0 -8 -56 -76q-52 -64 -95 -88t-105 -24q-36 0 -87 10q-31 -10 -72 -10
q-28 0 -28 10q0 12 38 12q27 0 62 -5q76 18 114.5 59.5t149.5 224.5h-188q-119 -126 -185 -179q-153 -124 -288 -124q-77 0 -131 36t-54 88q0 27 16.5 46t39.5 19q32 0 32 -31q0 -16 -11 -27.5t-26 -11.5q-23 0 -23 22l1 10q1 2 1 5q0 5 -4 5q-5 0 -10 -12t-5 -25
q0 -48 50.5 -81t123.5 -33q105 0 231 103q29 23 64 61q70 73 111 114l15 15h-95l6 9q47 0 96 -1q143 159 277.5 232.5t284.5 74.5q35 7 65 7q68 0 68 -22zM1240 591q-127 -7 -236 -73.5t-251 -224.5h185q63 109 150.5 195t151.5 103z" />
    <glyph glyph-name="Adieresis" unicode="&#xc4;" horiz-adv-x="908" 
d="M1324 763q0 -19 -14 -33.5t-31 -14.5q-24 0 -24 23q0 17 15 31.5t32 14.5q22 0 22 -21zM1239 763q0 -19 -14 -33.5t-31 -14.5q-24 0 -24 23q0 17 15 31.5t32 14.5q22 0 22 -21zM872 496q0 -5 -18 -26q-50 -57 -94 -57q-29 0 -46.5 20t-17.5 52q0 27 32 88q15 28 15 47
q0 25 -27 42t-66 17q-112 0 -207.5 -86t-95.5 -186q0 -50 32 -82.5t83 -32.5q55 0 111 40.5t79 96.5q1 5 4 5q4 0 4 -5q0 -10 -17 -36t-35 -44q-66 -65 -148 -65q-55 0 -89 34.5t-34 90.5q0 103 99.5 191t215.5 88q51 0 80 -25.5t29 -69.5q0 -34 -23 -79q-21 -41 -21 -56
q0 -36 43 -36q49 0 101 72q4 6 7 6q4 0 4 -4zM1395 585q0 -9 -10 -9q-5 0 -33 6q-52 11 -87 11q-79 -24 -139 -93t-137 -223q-118 -237 -303 -280q38 -6 67 -6q90 0 151 58q59 55 98 118q4 7 7 7t3 -2q0 -8 -56 -76q-52 -64 -95 -88t-105 -24q-36 0 -87 10q-31 -10 -72 -10
q-28 0 -28 10q0 12 38 12q27 0 62 -5q76 18 114.5 59.5t149.5 224.5h-188q-119 -126 -185 -179q-153 -124 -288 -124q-77 0 -131 36t-54 88q0 27 16.5 46t39.5 19q32 0 32 -31q0 -16 -11 -27.5t-26 -11.5q-23 0 -23 22l1 10q1 2 1 5q0 5 -4 5q-5 0 -10 -12t-5 -25
q0 -48 50.5 -81t123.5 -33q105 0 231 103q29 23 64 61q70 73 111 114l15 15h-95l6 9q47 0 96 -1q143 159 277.5 232.5t284.5 74.5q35 7 65 7q68 0 68 -22zM1240 591q-127 -7 -236 -73.5t-251 -224.5h185q63 109 150.5 195t151.5 103z" />
    <glyph glyph-name="Aring" unicode="&#xc5;" horiz-adv-x="908" 
d="M1349 798q0 -31 -26 -59t-55 -28q-30 0 -30 29q0 31 27 59t57 28q27 0 27 -29zM872 496q0 -5 -18 -26q-50 -57 -94 -57q-29 0 -46.5 20t-17.5 52q0 27 32 88q15 28 15 47q0 25 -27 42t-66 17q-112 0 -207.5 -86t-95.5 -186q0 -50 32 -82.5t83 -32.5q55 0 111 40.5
t79 96.5q1 5 4 5q4 0 4 -5q0 -10 -17 -36t-35 -44q-66 -65 -148 -65q-55 0 -89 34.5t-34 90.5q0 103 99.5 191t215.5 88q51 0 80 -25.5t29 -69.5q0 -34 -23 -79q-21 -41 -21 -56q0 -36 43 -36q49 0 101 72q4 6 7 6q4 0 4 -4zM1395 585q0 -9 -10 -9q-5 0 -33 6q-52 11 -87 11
q-79 -24 -139 -93t-137 -223q-118 -237 -303 -280q38 -6 67 -6q90 0 151 58q59 55 98 118q4 7 7 7t3 -2q0 -8 -56 -76q-52 -64 -95 -88t-105 -24q-36 0 -87 10q-31 -10 -72 -10q-28 0 -28 10q0 12 38 12q27 0 62 -5q76 18 114.5 59.5t149.5 224.5h-188q-119 -126 -185 -179
q-153 -124 -288 -124q-77 0 -131 36t-54 88q0 27 16.5 46t39.5 19q32 0 32 -31q0 -16 -11 -27.5t-26 -11.5q-23 0 -23 22l1 10q1 2 1 5q0 5 -4 5q-5 0 -10 -12t-5 -25q0 -48 50.5 -81t123.5 -33q105 0 231 103q29 23 64 61q70 73 111 114l15 15h-95l6 9q47 0 96 -1
q143 159 277.5 232.5t284.5 74.5q35 7 65 7q68 0 68 -22zM1337 800q0 16 -15 16q-21 0 -46 -27.5t-25 -50.5q0 -16 15 -16q20 0 45.5 28t25.5 50zM1240 591q-127 -7 -236 -73.5t-251 -224.5h185q63 109 150.5 195t151.5 103z" />
    <glyph glyph-name="AE" unicode="&#xc6;" horiz-adv-x="1291" 
d="M856 496q0 -5 -18 -26q-49 -57 -94 -57q-29 0 -46.5 20t-17.5 52q0 29 33 88q15 27 15 47q0 25 -27 42t-66 17q-112 0 -208 -85.5t-96 -186.5q0 -51 32.5 -83t82.5 -32q56 0 112 40t79 97q1 5 4 5q4 0 4 -5q0 -10 -17 -36t-35 -44q-67 -65 -149 -65q-55 0 -89 34.5
t-34 89.5q0 104 99 192t217 88q51 0 80 -25.5t29 -69.5q0 -36 -22.5 -78.5t-22.5 -56.5q0 -36 43 -36q48 0 101 72q3 6 7 6t4 -4zM1487 547q0 -33 -60 -33q-44 0 -140 23q-9 2 -64 16q-15 4 -20 6q-83 -48 -83 -119q0 -35 24 -49q32 3 49 3q54 0 54 -12q0 -8 -23 -8
q-42 0 -78 11q-46 -7 -106 -33.5t-102 -58.5h85l-5 -8h-90q-92 -77 -92 -168q0 -93 101 -119q-18 29 -18 68q0 98 98 178.5t216 80.5q53 0 84.5 -26.5t31.5 -69.5q0 -96 -104.5 -172.5t-235.5 -76.5q-26 0 -49 3q43 -63 140 -63q54 0 92 17l6 1q3 -1 3 -4q0 -7 -36 -14.5
t-66 -7.5q-105 0 -156 74q-73 14 -116 55.5t-43 96.5q0 76 77 147h-116q-148 -160 -258.5 -231t-212.5 -71q-79 0 -133 36t-54 88q0 27 16.5 46t39.5 19q32 0 32 -31q0 -16 -11 -27t-26 -11q-23 0 -23 22q0 7 1 9.5t1 5.5q0 5 -4 5q-5 0 -10 -12t-5 -25q0 -49 49.5 -82.5
t121.5 -33.5q123 0 258 124q49 45 165 169q-57 0 -95 -1l7 10q46 0 96 -1q143 164 234 228.5t178 64.5q23 0 63 -9q68 31 152 31q66 0 113 -18t47 -43zM1477 548q0 19 -40.5 33.5t-92.5 14.5q-69 0 -130 -31q131 -42 216 -42q47 0 47 25zM1164 572q-36 6 -51 6
q-71 0 -139 -53.5t-221 -231.5h118q94 75 263 97q-54 22 -54 72q0 65 84 110zM1340 233q0 35 -28 58t-71 23q-105 0 -204.5 -87.5t-99.5 -179.5q0 -27 16 -53q25 -5 50 -5q117 0 227 79.5t110 164.5z" />
    <glyph glyph-name="Ccedilla" unicode="&#xc7;" horiz-adv-x="797" 
d="M936 542q0 -32 -44 -66q40 -59 40 -109q0 -12 -7 -12q-6 0 -6 16q0 49 -34 99q-71 -52 -193 -90.5t-216 -38.5q-13 0 -23 1q-78 -109 -78 -210q0 -69 42.5 -109t116.5 -40q139 0 248 133q66 81 66 153q0 38 -23 60.5t-61 22.5q-61 0 -131 -64t-70 -120q0 -5 3 -5q2 0 4 2
q13 12 24 12q25 0 25 -27q0 -36 -35 -36q-32 0 -32 39q0 70 70.5 138.5t143.5 68.5q94 0 94 -103q0 -107 -102 -194.5t-226 -87.5q-45 0 -91 20q40 -27 40 -54q0 -43 -48 -43q-23 0 -62 20t-39 32q1 3 3 3q3 0 10 -5q30 -22 62 -22q16 0 28 10.5t12 24.5q0 26 -33 50
q-86 63 -86 166q0 81 58 170q-211 39 -211 167q0 76 78.5 127.5t195.5 51.5q164 0 331 -109q29 6 59 6q97 0 97 -48zM928 542q0 40 -78 40q-24 0 -58 -7q58 -40 96 -93q40 34 40 60zM881 477q-38 54 -101 96q-92 -25 -179 -85.5t-142 -138.5q102 0 225.5 37.5t196.5 90.5z
M766 582q-148 86 -316 86q-103 0 -180.5 -49t-77.5 -114q0 -117 198 -151q123 171 376 228z" />
    <glyph glyph-name="Egrave" unicode="&#xc8;" horiz-adv-x="841" 
d="M930 703q-1 -2 -3 -2q-13 0 -33.5 37t-30.5 80l44 30q-9 -24 -9 -49q0 -53 28 -89l1 -2q3 -3 3 -5zM1037 547q0 -33 -60 -33q-47 0 -225 44q-83 -47 -83 -119q0 -34 24 -48q35 3 52 3q51 0 51 -12q0 -8 -27 -8q-34 0 -74 10q-55 -8 -126 -42q-183 -88 -183 -227
q0 -92 100 -117q-18 30 -18 69q0 96 98 177t215 81q53 0 85 -26.5t32 -70.5q0 -95 -104.5 -171.5t-235.5 -76.5q-26 0 -49 3q47 -63 139 -63q57 0 93 17l6 1q3 -1 3 -4q0 -7 -36 -14.5t-66 -7.5q-102 0 -156 74q-74 17 -116.5 56.5t-42.5 92.5q0 70 58.5 132t156.5 94
q59 19 135 28q-54 23 -54 73q0 64 79 107q-113 27 -187 27q-145 0 -246.5 -72t-101.5 -175q0 -46 26.5 -78.5t64.5 -32.5q26 0 26 8q0 5 -9 3q-26 0 -26 24q0 14 11.5 23.5t27.5 9.5q31 0 31 -30q0 -20 -17.5 -34t-43.5 -14q-45 0 -77 40.5t-32 98.5q0 87 75 159
q89 86 251 86q90 0 239 -37q68 33 157 33q66 0 113 -18t47 -43zM1027 548q0 19 -40.5 33.5t-92.5 14.5q-72 0 -131 -31q130 -42 218 -42q46 0 46 25zM889 232q0 35 -27.5 58t-70.5 23q-105 0 -205 -87t-100 -178q0 -26 16 -54q28 -5 52 -5q115 0 225 80t110 163z" />
    <glyph glyph-name="Eacute" unicode="&#xc9;" horiz-adv-x="841" 
d="M1118 811q-47 -35 -125 -69q-57 -25 -67 -25q-3 0 -3 2q0 1 6 4q48 23 98 58.5t70 62.5zM1037 547q0 -33 -60 -33q-47 0 -225 44q-83 -47 -83 -119q0 -34 24 -48q35 3 52 3q51 0 51 -12q0 -8 -27 -8q-34 0 -74 10q-55 -8 -126 -42q-183 -88 -183 -227q0 -92 100 -117
q-18 30 -18 69q0 96 98 177t215 81q53 0 85 -26.5t32 -70.5q0 -95 -104.5 -171.5t-235.5 -76.5q-26 0 -49 3q47 -63 139 -63q57 0 93 17l6 1q3 -1 3 -4q0 -7 -36 -14.5t-66 -7.5q-102 0 -156 74q-74 17 -116.5 56.5t-42.5 92.5q0 70 58.5 132t156.5 94q59 19 135 28
q-54 23 -54 73q0 64 79 107q-113 27 -187 27q-145 0 -246.5 -72t-101.5 -175q0 -46 26.5 -78.5t64.5 -32.5q26 0 26 8q0 5 -9 3q-26 0 -26 24q0 14 11.5 23.5t27.5 9.5q31 0 31 -30q0 -20 -17.5 -34t-43.5 -14q-45 0 -77 40.5t-32 98.5q0 87 75 159q89 86 251 86
q90 0 239 -37q68 33 157 33q66 0 113 -18t47 -43zM1027 548q0 19 -40.5 33.5t-92.5 14.5q-72 0 -131 -31q130 -42 218 -42q46 0 46 25zM889 232q0 35 -27.5 58t-70.5 23q-105 0 -205 -87t-100 -178q0 -26 16 -54q28 -5 52 -5q115 0 225 80t110 163z" />
    <glyph glyph-name="Ecircumflex" unicode="&#xca;" horiz-adv-x="841" 
d="M1038 844q-3 -36 -9 -122q0 -4 -2 -4q-2 1 -2 4q-3 50 -12 69q-29 -20 -91 -47t-78 -27q-3 0 -3 2q1 1 7 4q54 23 110.5 59t79.5 62zM1037 547q0 -33 -60 -33q-47 0 -225 44q-83 -47 -83 -119q0 -34 24 -48q35 3 52 3q51 0 51 -12q0 -8 -27 -8q-34 0 -74 10
q-55 -8 -126 -42q-183 -88 -183 -227q0 -92 100 -117q-18 30 -18 69q0 96 98 177t215 81q53 0 85 -26.5t32 -70.5q0 -95 -104.5 -171.5t-235.5 -76.5q-26 0 -49 3q47 -63 139 -63q57 0 93 17l6 1q3 -1 3 -4q0 -7 -36 -14.5t-66 -7.5q-102 0 -156 74q-74 17 -116.5 56.5
t-42.5 92.5q0 70 58.5 132t156.5 94q59 19 135 28q-54 23 -54 73q0 64 79 107q-113 27 -187 27q-145 0 -246.5 -72t-101.5 -175q0 -46 26.5 -78.5t64.5 -32.5q26 0 26 8q0 5 -9 3q-26 0 -26 24q0 14 11.5 23.5t27.5 9.5q31 0 31 -30q0 -20 -17.5 -34t-43.5 -14
q-45 0 -77 40.5t-32 98.5q0 87 75 159q89 86 251 86q90 0 239 -37q68 33 157 33q66 0 113 -18t47 -43zM1027 548q0 19 -40.5 33.5t-92.5 14.5q-72 0 -131 -31q130 -42 218 -42q46 0 46 25zM889 232q0 35 -27.5 58t-70.5 23q-105 0 -205 -87t-100 -178q0 -26 16 -54
q28 -5 52 -5q115 0 225 80t110 163z" />
    <glyph glyph-name="Edieresis" unicode="&#xcb;" horiz-adv-x="841" 
d="M1006 763q0 -19 -14 -33.5t-31 -14.5q-24 0 -24 23q0 17 15 31.5t32 14.5q22 0 22 -21zM921 763q0 -19 -14 -33.5t-31 -14.5q-24 0 -24 23q0 17 15 31.5t32 14.5q22 0 22 -21zM1037 547q0 -33 -60 -33q-47 0 -225 44q-83 -47 -83 -119q0 -34 24 -48q35 3 52 3
q51 0 51 -12q0 -8 -27 -8q-34 0 -74 10q-55 -8 -126 -42q-183 -88 -183 -227q0 -92 100 -117q-18 30 -18 69q0 96 98 177t215 81q53 0 85 -26.5t32 -70.5q0 -95 -104.5 -171.5t-235.5 -76.5q-26 0 -49 3q47 -63 139 -63q57 0 93 17l6 1q3 -1 3 -4q0 -7 -36 -14.5t-66 -7.5
q-102 0 -156 74q-74 17 -116.5 56.5t-42.5 92.5q0 70 58.5 132t156.5 94q59 19 135 28q-54 23 -54 73q0 64 79 107q-113 27 -187 27q-145 0 -246.5 -72t-101.5 -175q0 -46 26.5 -78.5t64.5 -32.5q26 0 26 8q0 5 -9 3q-26 0 -26 24q0 14 11.5 23.5t27.5 9.5q31 0 31 -30
q0 -20 -17.5 -34t-43.5 -14q-45 0 -77 40.5t-32 98.5q0 87 75 159q89 86 251 86q90 0 239 -37q68 33 157 33q66 0 113 -18t47 -43zM1027 548q0 19 -40.5 33.5t-92.5 14.5q-72 0 -131 -31q130 -42 218 -42q46 0 46 25zM889 232q0 35 -27.5 58t-70.5 23q-105 0 -205 -87
t-100 -178q0 -26 16 -54q28 -5 52 -5q115 0 225 80t110 163z" />
    <glyph glyph-name="Igrave" unicode="&#xcc;" horiz-adv-x="638" 
d="M887 703q-1 -2 -3 -2q-13 0 -33.5 37t-30.5 80l44 30q-9 -24 -9 -49q0 -53 28 -89l1 -2q3 -3 3 -5zM1017 646q0 -8 -40 -26t-92 -32q-122 -87 -241 -310l-8 -15q6 -1 14 -1q59 0 109.5 36.5t61.5 88.5q2 8 5 8t3 -4q0 -30 -32 -68q-58 -69 -149 -69q-9 0 -17 1l-14 -27
q-35 -68 -61.5 -100.5t-70.5 -63.5q-123 -87 -251 -87q-72 0 -118.5 30.5t-46.5 77.5q0 25 14.5 43t34.5 18q32 0 32 -33q0 -16 -10.5 -27.5t-25.5 -11.5q-23 0 -23 22v10q0 4 -3 5q-9 0 -9 -25q0 -42 41 -70.5t102 -28.5q147 0 265 147q35 43 93 134q-83 36 -83 117
q0 97 110 145q56 24 175 44l54 9l46 10q26 20 68.5 39t58.5 19q8 0 8 -5zM871 584l-87 -21q-119 -28 -189.5 -83t-70.5 -119q0 -61 60 -87q129 207 286 310h1z" />
    <glyph glyph-name="Iacute" unicode="&#xcd;" horiz-adv-x="638" 
d="M1086 811q-47 -35 -125 -69q-57 -25 -67 -25q-3 0 -3 2q0 1 6 4q48 23 98 58.5t70 62.5zM1017 646q0 -8 -40 -26t-92 -32q-122 -87 -241 -310l-8 -15q6 -1 14 -1q59 0 109.5 36.5t61.5 88.5q2 8 5 8t3 -4q0 -30 -32 -68q-58 -69 -149 -69q-9 0 -17 1l-14 -27
q-35 -68 -61.5 -100.5t-70.5 -63.5q-123 -87 -251 -87q-72 0 -118.5 30.5t-46.5 77.5q0 25 14.5 43t34.5 18q32 0 32 -33q0 -16 -10.5 -27.5t-25.5 -11.5q-23 0 -23 22v10q0 4 -3 5q-9 0 -9 -25q0 -42 41 -70.5t102 -28.5q147 0 265 147q35 43 93 134q-83 36 -83 117
q0 97 110 145q56 24 175 44l54 9l46 10q26 20 68.5 39t58.5 19q8 0 8 -5zM871 584l-87 -21q-119 -28 -189.5 -83t-70.5 -119q0 -61 60 -87q129 207 286 310h1z" />
    <glyph glyph-name="Icircumflex" unicode="&#xce;" horiz-adv-x="638" 
d="M938 844q-3 -36 -9 -122q0 -4 -2 -4q-2 1 -2 4q-3 50 -12 69q-29 -20 -91 -47t-78 -27q-3 0 -3 2q1 1 7 4q54 23 110.5 59t79.5 62zM1017 646q0 -8 -40 -26t-92 -32q-122 -87 -241 -310l-8 -15q6 -1 14 -1q59 0 109.5 36.5t61.5 88.5q2 8 5 8t3 -4q0 -30 -32 -68
q-58 -69 -149 -69q-9 0 -17 1l-14 -27q-35 -68 -61.5 -100.5t-70.5 -63.5q-123 -87 -251 -87q-72 0 -118.5 30.5t-46.5 77.5q0 25 14.5 43t34.5 18q32 0 32 -33q0 -16 -10.5 -27.5t-25.5 -11.5q-23 0 -23 22v10q0 4 -3 5q-9 0 -9 -25q0 -42 41 -70.5t102 -28.5
q147 0 265 147q35 43 93 134q-83 36 -83 117q0 97 110 145q56 24 175 44l54 9l46 10q26 20 68.5 39t58.5 19q8 0 8 -5zM871 584l-87 -21q-119 -28 -189.5 -83t-70.5 -119q0 -61 60 -87q129 207 286 310h1z" />
    <glyph glyph-name="Idieresis" unicode="&#xcf;" horiz-adv-x="638" 
d="M962 763q0 -19 -14 -33.5t-31 -14.5q-24 0 -24 23q0 17 15 31.5t32 14.5q22 0 22 -21zM877 763q0 -19 -14 -33.5t-31 -14.5q-24 0 -24 23q0 17 15 31.5t32 14.5q22 0 22 -21zM1017 646q0 -8 -40 -26t-92 -32q-122 -87 -241 -310l-8 -15q6 -1 14 -1q59 0 109.5 36.5
t61.5 88.5q2 8 5 8t3 -4q0 -30 -32 -68q-58 -69 -149 -69q-9 0 -17 1l-14 -27q-35 -68 -61.5 -100.5t-70.5 -63.5q-123 -87 -251 -87q-72 0 -118.5 30.5t-46.5 77.5q0 25 14.5 43t34.5 18q32 0 32 -33q0 -16 -10.5 -27.5t-25.5 -11.5q-23 0 -23 22v10q0 4 -3 5q-9 0 -9 -25
q0 -42 41 -70.5t102 -28.5q147 0 265 147q35 43 93 134q-83 36 -83 117q0 97 110 145q56 24 175 44l54 9l46 10q26 20 68.5 39t58.5 19q8 0 8 -5zM871 584l-87 -21q-119 -28 -189.5 -83t-70.5 -119q0 -61 60 -87q129 207 286 310h1z" />
    <glyph glyph-name="Eth" unicode="&#xd0;" horiz-adv-x="847" 
d="M1254 502q0 -25 -6 -52.5t-11 -27.5q-3 0 -3 3t1 6q11 30 11 70q0 62 -37 99t-99 37q-121 0 -229 -113q42 -78 42 -164q0 -160 -123 -271.5t-300 -111.5q-55 0 -150 15q-83 -15 -158 -15q-129 0 -129 26q0 13 31.5 22.5t73.5 9.5q51 0 202 -33q96 25 152.5 76t146.5 195
h-80l3 9h83q97 157 188 244q-71 120 -231 120q-165 0 -303 -130q-69 -65 -110.5 -144t-41.5 -146q0 -53 33.5 -84.5t88.5 -31.5q93 0 193.5 100t100.5 194q0 35 -20 56.5t-51 21.5q-36 0 -36 -13q0 -3 5 -3h5q2 1 7 1q24 0 24 -22q0 -16 -12 -28t-29 -12q-30 0 -30 32
q0 22 19.5 38t47.5 16q36 0 58 -23.5t22 -61.5q0 -99 -103 -202t-201 -103q-68 0 -112 45.5t-44 115.5q0 152 150 272.5t339 120.5q161 0 242 -119q121 110 242 110q62 0 100 -39.5t38 -104.5zM896 396q0 61 -26 117q-59 -66 -138 -231h94l-3 -9h-96q-52 -113 -130 -176
t-211 -99q62 -13 132 -13q187 0 303 180q75 116 75 231zM333 -5q-135 19 -201 19q-59 0 -59 -11q0 -17 128 -17q74 0 132 9z" />
    <glyph glyph-name="Ntilde" unicode="&#xd1;" horiz-adv-x="871" 
d="M1197 758q0 -7 -28 -20t-42 -13q-15 0 -44 7l-10 2q-48 12 -62 12q-13 0 -28 -7q-4 -3 -7 -3t-3 2q0 3 24.5 18t46.5 15q12 0 60 -11q43 -10 56 -10q17 0 29 8q4 2 5 2q3 -1 3 -2zM1512 481q0 -41 -9 -41q-4 0 -4 3q0 5 2 17t2 18q0 67 -48 110.5t-122 43.5
q-147 0 -296 -191q-47 -60 -182 -287q-39 -66 -80.5 -117.5t-54.5 -51.5q-7 0 -7 7q0 10 22 20q43 20 43 100q0 15 -2 50q-5 87 -5 150q0 105 20.5 172.5t67.5 119.5l2 4l-1 1q-15 0 -66 -63q-28 -34 -49.5 -70t-112.5 -201q-78 -141 -182 -218t-217 -77q-64 0 -105 28.5
t-41 72.5q0 26 14.5 43t36.5 17q32 0 32 -31q0 -16 -10.5 -27.5t-24.5 -11.5q-24 0 -24 26q0 10 -4 10q-8 0 -8 -27q0 -40 38.5 -65.5t97.5 -25.5q113 0 210 85t222 296q102 171 163 225q42 37 54 37q2 0 2 -2q0 -1 -6 -9q-31 -41 -39 -88t-11 -199q-4 -186 -46 -266
q-1 0 -1 -2l1 -1q9 0 148 245q102 179 196 259t204 80q78 0 129 -47.5t51 -120.5zM730 515q0 -11 -28 -42q-42 -47 -81 -47q-27 0 -45.5 19.5t-18.5 48.5q0 28 20 67q25 49 25 69q0 25 -23.5 40t-61.5 15q-109 0 -204.5 -88t-95.5 -187q0 -51 31.5 -83.5t80.5 -32.5
q44 0 89 25t73 65q2 2 3 2q4 0 4 -4q0 -10 -31 -38q-65 -58 -140 -58q-53 0 -86 34t-33 89q0 106 98 195t214 89q48 0 75 -24t27 -66q0 -30 -21 -73.5t-21 -57.5q0 -37 40 -37q46 0 103 82q1 2 3 2q4 0 4 -4z" />
    <glyph glyph-name="Ograve" unicode="&#xd2;" horiz-adv-x="793" 
d="M850 703q-1 -2 -3 -2q-13 0 -33.5 37t-30.5 80l44 30q-9 -24 -9 -49q0 -53 28 -89l1 -2q3 -3 3 -5zM907 390q0 -74 -42 -151.5t-114.5 -139t-154.5 -97t-150 -35.5q-90 0 -146 61t-56 159q0 90 56 183t150 161q68 49 152 79t152 30t108 -32.5t40 -87.5q0 -22 -8 -53
q13 -39 13 -77zM894 519q0 50 -34.5 80t-91.5 30q-112 0 -227 -75q-110 -72 -180 -184q-74 -116 -74 -230q0 -72 42.5 -117.5t110.5 -45.5q136 0 274.5 140.5t153.5 294.5q-17 -29 -59.5 -69t-57.5 -40q-4 0 -4 4q0 3 8 7q79 44 114 116q0 61 -35.5 97t-96.5 36
q-113 0 -232.5 -121t-119.5 -236q0 -46 21.5 -74.5t56.5 -28.5q17 0 34 9.5t17 19.5q-1 3 -2 3l-4 -2q-6 -6 -19 -6q-23 0 -23 27q0 16 11 27.5t27 11.5q31 0 31 -35q0 -26 -22 -45t-52 -19q-42 0 -70 34.5t-28 86.5q0 119 124 237.5t249 118.5q53 0 95 -25t57 -66
q6 20 6 39z" />
    <glyph glyph-name="Oacute" unicode="&#xd3;" horiz-adv-x="793" 
d="M957 811q-47 -35 -125 -69q-57 -25 -67 -25q-3 0 -3 2q0 1 6 4q48 23 98 58.5t70 62.5zM907 390q0 -74 -42 -151.5t-114.5 -139t-154.5 -97t-150 -35.5q-90 0 -146 61t-56 159q0 90 56 183t150 161q68 49 152 79t152 30t108 -32.5t40 -87.5q0 -22 -8 -53q13 -39 13 -77z
M894 519q0 50 -34.5 80t-91.5 30q-112 0 -227 -75q-110 -72 -180 -184q-74 -116 -74 -230q0 -72 42.5 -117.5t110.5 -45.5q136 0 274.5 140.5t153.5 294.5q-17 -29 -59.5 -69t-57.5 -40q-4 0 -4 4q0 3 8 7q79 44 114 116q0 61 -35.5 97t-96.5 36q-113 0 -232.5 -121
t-119.5 -236q0 -46 21.5 -74.5t56.5 -28.5q17 0 34 9.5t17 19.5q-1 3 -2 3l-4 -2q-6 -6 -19 -6q-23 0 -23 27q0 16 11 27.5t27 11.5q31 0 31 -35q0 -26 -22 -45t-52 -19q-42 0 -70 34.5t-28 86.5q0 119 124 237.5t249 118.5q53 0 95 -25t57 -66q6 20 6 39z" />
    <glyph glyph-name="Ocircumflex" unicode="&#xd4;" horiz-adv-x="793" 
d="M900 844q-3 -36 -9 -122q0 -4 -2 -4q-2 1 -2 4q-3 50 -12 69q-29 -20 -91 -47t-78 -27q-3 0 -3 2q1 1 7 4q54 23 110.5 59t79.5 62zM907 390q0 -74 -42 -151.5t-114.5 -139t-154.5 -97t-150 -35.5q-90 0 -146 61t-56 159q0 90 56 183t150 161q68 49 152 79t152 30
t108 -32.5t40 -87.5q0 -22 -8 -53q13 -39 13 -77zM894 519q0 50 -34.5 80t-91.5 30q-112 0 -227 -75q-110 -72 -180 -184q-74 -116 -74 -230q0 -72 42.5 -117.5t110.5 -45.5q136 0 274.5 140.5t153.5 294.5q-17 -29 -59.5 -69t-57.5 -40q-4 0 -4 4q0 3 8 7q79 44 114 116
q0 61 -35.5 97t-96.5 36q-113 0 -232.5 -121t-119.5 -236q0 -46 21.5 -74.5t56.5 -28.5q17 0 34 9.5t17 19.5q-1 3 -2 3l-4 -2q-6 -6 -19 -6q-23 0 -23 27q0 16 11 27.5t27 11.5q31 0 31 -35q0 -26 -22 -45t-52 -19q-42 0 -70 34.5t-28 86.5q0 119 124 237.5t249 118.5
q53 0 95 -25t57 -66q6 20 6 39z" />
    <glyph glyph-name="Otilde" unicode="&#xd5;" horiz-adv-x="793" 
d="M953 758q0 -7 -28 -20t-42 -13q-15 0 -44 7l-10 2q-48 12 -62 12q-13 0 -28 -7q-4 -3 -7 -3t-3 2q0 3 24.5 18t46.5 15q12 0 60 -11q43 -10 56 -10q17 0 29 8q4 2 5 2q3 -1 3 -2zM907 390q0 -74 -42 -151.5t-114.5 -139t-154.5 -97t-150 -35.5q-90 0 -146 61t-56 159
q0 90 56 183t150 161q68 49 152 79t152 30t108 -32.5t40 -87.5q0 -22 -8 -53q13 -39 13 -77zM894 519q0 50 -34.5 80t-91.5 30q-112 0 -227 -75q-110 -72 -180 -184q-74 -116 -74 -230q0 -72 42.5 -117.5t110.5 -45.5q136 0 274.5 140.5t153.5 294.5q-17 -29 -59.5 -69
t-57.5 -40q-4 0 -4 4q0 3 8 7q79 44 114 116q0 61 -35.5 97t-96.5 36q-113 0 -232.5 -121t-119.5 -236q0 -46 21.5 -74.5t56.5 -28.5q17 0 34 9.5t17 19.5q-1 3 -2 3l-4 -2q-6 -6 -19 -6q-23 0 -23 27q0 16 11 27.5t27 11.5q31 0 31 -35q0 -26 -22 -45t-52 -19
q-42 0 -70 34.5t-28 86.5q0 119 124 237.5t249 118.5q53 0 95 -25t57 -66q6 20 6 39z" />
    <glyph glyph-name="Odieresis" unicode="&#xd6;" horiz-adv-x="793" 
d="M913 763q0 -19 -14 -33.5t-31 -14.5q-24 0 -24 23q0 17 15 31.5t32 14.5q22 0 22 -21zM828 763q0 -19 -14 -33.5t-31 -14.5q-24 0 -24 23q0 17 15 31.5t32 14.5q22 0 22 -21zM907 390q0 -74 -42 -151.5t-114.5 -139t-154.5 -97t-150 -35.5q-90 0 -146 61t-56 159
q0 90 56 183t150 161q68 49 152 79t152 30t108 -32.5t40 -87.5q0 -22 -8 -53q13 -39 13 -77zM894 519q0 50 -34.5 80t-91.5 30q-112 0 -227 -75q-110 -72 -180 -184q-74 -116 -74 -230q0 -72 42.5 -117.5t110.5 -45.5q136 0 274.5 140.5t153.5 294.5q-17 -29 -59.5 -69
t-57.5 -40q-4 0 -4 4q0 3 8 7q79 44 114 116q0 61 -35.5 97t-96.5 36q-113 0 -232.5 -121t-119.5 -236q0 -46 21.5 -74.5t56.5 -28.5q17 0 34 9.5t17 19.5q-1 3 -2 3l-4 -2q-6 -6 -19 -6q-23 0 -23 27q0 16 11 27.5t27 11.5q31 0 31 -35q0 -26 -22 -45t-52 -19
q-42 0 -70 34.5t-28 86.5q0 119 124 237.5t249 118.5q53 0 95 -25t57 -66q6 20 6 39z" />
    <glyph glyph-name="multiply" unicode="&#xd7;" horiz-adv-x="781" 
d="M889 333q0 -139 -97.5 -236t-236.5 -97q-138 0 -235.5 97t-97.5 235q0 141 98 238t240 97q135 0 232 -98.5t97 -235.5z" />
    <glyph glyph-name="Oslash" unicode="&#xd8;" horiz-adv-x="793" 
d="M907 390q0 -74 -42 -151.5t-114.5 -139t-154.5 -97t-150 -35.5q-35 0 -72 11l-55 -79h-16l59 84q-118 59 -118 204q0 91 55.5 183.5t150.5 160.5q68 49 152 79t152 30q32 0 61 -8l67 94h16l-69 -99q73 -34 73 -106q0 -22 -8 -54q13 -39 13 -77zM894 519q0 70 -70 101
l-39 -55q35 -8 63.5 -32t39.5 -53q6 20 6 39zM766 560q-21 3 -28 3q-110 0 -228 -119t-118 -231q0 -78 55 -108zM869 430q2 102 -89 127l-321 -458q25 -7 43 -7q29 0 54.5 12.5t25.5 26.5q0 4 -3 4l-3 -2q-8 -6 -18 -6q-23 0 -23 27q0 39 38 39q30 0 30 -34q0 -31 -29 -53
t-70 -22q-22 0 -50 8l-73 -105q31 -10 59 -10q136 0 274.5 140.5t153.5 294.5q-17 -29 -59.5 -69t-57.5 -40q-4 0 -4 4q0 3 8 7q79 44 114 116zM811 625q-28 5 -45 5q-111 0 -225 -75q-110 -73 -180 -185q-74 -117 -74 -230q0 -100 82 -147l73 104q-72 41 -72 131
q0 112 123.5 227.5t242.5 115.5q10 0 35 -3z" />
    <glyph glyph-name="Ugrave" unicode="&#xd9;" horiz-adv-x="901" 
d="M983 703q-1 -2 -3 -2q-13 0 -33.5 37t-30.5 80l44 30q-9 -24 -9 -49q0 -53 28 -89l1 -2q3 -3 3 -5zM1154 604q-339 -465 -339 -600q0 -33 21.5 -54.5t55.5 -21.5q58 0 114 62q4 5 7 5t3 -4q0 -5 -17 -20q-58 -51 -107 -51q-47 0 -77.5 36t-30.5 91q0 94 97 247
q-6 -7 -16 -21l-23 -32q-89 -123 -170 -193t-135 -70q-35 0 -56.5 25.5t-21.5 67.5q0 44 23.5 88t106.5 152q86 113 109.5 157t23.5 94q0 47 -34.5 74t-93.5 27q-149 0 -287 -136t-138 -283q0 -55 31 -88.5t82 -33.5q97 0 187 111q94 116 94 212q0 81 -69 81q-17 0 -32 -8
t-15 -17q0 -4 4 -4q2 0 7 2t9 2q25 0 25 -24q0 -16 -11.5 -27.5t-27.5 -11.5q-30 0 -30 32q0 26 21.5 45.5t51.5 19.5q35 0 55.5 -24.5t20.5 -65.5q0 -96 -92.5 -214t-197.5 -118q-62 0 -99 42t-37 112q0 160 168 292q65 51 141.5 82t137.5 31q74 0 115 -40t41 -111
q0 -61 -30 -115t-148 -211q-52 -69 -68 -98.5t-16 -55.5q0 -24 14.5 -39.5t37.5 -15.5q74 0 203 147.5t336 467.5q26 -2 29 -2q19 0 47 5z" />
    <glyph glyph-name="Uacute" unicode="&#xda;" horiz-adv-x="901" 
d="M1148 811q-47 -35 -125 -69q-57 -25 -67 -25q-3 0 -3 2q0 1 6 4q48 23 98 58.5t70 62.5zM1154 604q-339 -465 -339 -600q0 -33 21.5 -54.5t55.5 -21.5q58 0 114 62q4 5 7 5t3 -4q0 -5 -17 -20q-58 -51 -107 -51q-47 0 -77.5 36t-30.5 91q0 94 97 247q-6 -7 -16 -21
l-23 -32q-89 -123 -170 -193t-135 -70q-35 0 -56.5 25.5t-21.5 67.5q0 44 23.5 88t106.5 152q86 113 109.5 157t23.5 94q0 47 -34.5 74t-93.5 27q-149 0 -287 -136t-138 -283q0 -55 31 -88.5t82 -33.5q97 0 187 111q94 116 94 212q0 81 -69 81q-17 0 -32 -8t-15 -17
q0 -4 4 -4q2 0 7 2t9 2q25 0 25 -24q0 -16 -11.5 -27.5t-27.5 -11.5q-30 0 -30 32q0 26 21.5 45.5t51.5 19.5q35 0 55.5 -24.5t20.5 -65.5q0 -96 -92.5 -214t-197.5 -118q-62 0 -99 42t-37 112q0 160 168 292q65 51 141.5 82t137.5 31q74 0 115 -40t41 -111q0 -61 -30 -115
t-148 -211q-52 -69 -68 -98.5t-16 -55.5q0 -24 14.5 -39.5t37.5 -15.5q74 0 203 147.5t336 467.5q26 -2 29 -2q19 0 47 5z" />
    <glyph glyph-name="Ucircumflex" unicode="&#xdb;" horiz-adv-x="901" 
d="M1068 844q-3 -36 -9 -122q0 -4 -2 -4q-2 1 -2 4q-3 50 -12 69q-29 -20 -91 -47t-78 -27q-3 0 -3 2q1 1 7 4q54 23 110.5 59t79.5 62zM1154 604q-339 -465 -339 -600q0 -33 21.5 -54.5t55.5 -21.5q58 0 114 62q4 5 7 5t3 -4q0 -5 -17 -20q-58 -51 -107 -51q-47 0 -77.5 36
t-30.5 91q0 94 97 247q-6 -7 -16 -21l-23 -32q-89 -123 -170 -193t-135 -70q-35 0 -56.5 25.5t-21.5 67.5q0 44 23.5 88t106.5 152q86 113 109.5 157t23.5 94q0 47 -34.5 74t-93.5 27q-149 0 -287 -136t-138 -283q0 -55 31 -88.5t82 -33.5q97 0 187 111q94 116 94 212
q0 81 -69 81q-17 0 -32 -8t-15 -17q0 -4 4 -4q2 0 7 2t9 2q25 0 25 -24q0 -16 -11.5 -27.5t-27.5 -11.5q-30 0 -30 32q0 26 21.5 45.5t51.5 19.5q35 0 55.5 -24.5t20.5 -65.5q0 -96 -92.5 -214t-197.5 -118q-62 0 -99 42t-37 112q0 160 168 292q65 51 141.5 82t137.5 31
q74 0 115 -40t41 -111q0 -61 -30 -115t-148 -211q-52 -69 -68 -98.5t-16 -55.5q0 -24 14.5 -39.5t37.5 -15.5q74 0 203 147.5t336 467.5q26 -2 29 -2q19 0 47 5z" />
    <glyph glyph-name="Udieresis" unicode="&#xdc;" horiz-adv-x="901" 
d="M1058 763q0 -19 -14 -33.5t-31 -14.5q-24 0 -24 23q0 17 15 31.5t32 14.5q22 0 22 -21zM973 763q0 -19 -14 -33.5t-31 -14.5q-24 0 -24 23q0 17 15 31.5t32 14.5q22 0 22 -21zM1154 604q-339 -465 -339 -600q0 -33 21.5 -54.5t55.5 -21.5q58 0 114 62q4 5 7 5t3 -4
q0 -5 -17 -20q-58 -51 -107 -51q-47 0 -77.5 36t-30.5 91q0 94 97 247q-6 -7 -16 -21l-23 -32q-89 -123 -170 -193t-135 -70q-35 0 -56.5 25.5t-21.5 67.5q0 44 23.5 88t106.5 152q86 113 109.5 157t23.5 94q0 47 -34.5 74t-93.5 27q-149 0 -287 -136t-138 -283
q0 -55 31 -88.5t82 -33.5q97 0 187 111q94 116 94 212q0 81 -69 81q-17 0 -32 -8t-15 -17q0 -4 4 -4q2 0 7 2t9 2q25 0 25 -24q0 -16 -11.5 -27.5t-27.5 -11.5q-30 0 -30 32q0 26 21.5 45.5t51.5 19.5q35 0 55.5 -24.5t20.5 -65.5q0 -96 -92.5 -214t-197.5 -118
q-62 0 -99 42t-37 112q0 160 168 292q65 51 141.5 82t137.5 31q74 0 115 -40t41 -111q0 -61 -30 -115t-148 -211q-52 -69 -68 -98.5t-16 -55.5q0 -24 14.5 -39.5t37.5 -15.5q74 0 203 147.5t336 467.5q26 -2 29 -2q19 0 47 5z" />
    <glyph glyph-name="Yacute" unicode="&#xdd;" horiz-adv-x="931" 
d="M1220 811q-47 -35 -125 -69q-57 -25 -67 -25q-3 0 -3 2q0 1 6 4q48 23 98 58.5t70 62.5zM1208 543q0 -1 -4 -4q-85 -59 -154.5 -159.5t-155.5 -282.5q-73 -156 -198.5 -249.5t-258.5 -93.5q-66 0 -108.5 30.5t-42.5 78.5q0 28 17.5 48.5t42.5 20.5q32 0 32 -30
q0 -16 -11 -28t-26 -12q-26 0 -26 24q0 4 1.5 9t1.5 8t-2 3q-7 0 -13.5 -14t-6.5 -29q0 -44 39 -72.5t99 -28.5q81 0 154.5 44.5t119.5 103.5t139 227q32 59 77 129q-108 -130 -161 -179q-99 -92 -161 -92q-38 0 -61.5 28t-23.5 73q0 46 26.5 94t110.5 155q108 137 108 224
q0 114 -138 114q-154 0 -308 -140q-64 -58 -106.5 -137t-42.5 -140q0 -58 34 -93t91 -35q101 0 194 96q111 115 111 213q0 35 -19.5 56t-51.5 21q-71 0 -150 -88t-79 -168q0 -51 49 -51h2q5 0 5 -3q0 -4 -12 -4q-27 0 -44 22.5t-17 58.5q0 83 80 162t165 79q37 0 59 -23
t22 -62q0 -88 -90 -194q-105 -124 -223 -124q-66 0 -106 44.5t-40 117.5q0 146 153 268q76 61 163.5 96.5t160.5 35.5q77 0 121.5 -43t44.5 -119q0 -60 -27.5 -117t-107.5 -161q-70 -90 -88.5 -122t-18.5 -63q0 -61 58 -61q54 0 129.5 66.5t199.5 223.5q128 162 257 248l6 4
q4 2 5 2q5 0 5 -6z" />
    <glyph glyph-name="Thorn" unicode="&#xde;" horiz-adv-x="748" 
d="M1192 512q0 -29 -5 -53.5t-11 -24.5q-3 1 -3 4l2 8q8 32 8 61q0 62 -37 99t-98 37q-124 0 -231 -121q87 -51 87 -133q0 -62 -50.5 -107.5t-120.5 -45.5q-19 0 -38 4.5t-19 9.5q0 4 4 4h1q23 -10 49 -10q53 0 91 46t38 111q0 67 -51 110q-38 -49 -64 -94.5t-85 -170.5
q-69 -145 -210 -218q-93 -48 -184 -48q-65 0 -108 30t-43 75q0 25 15 42.5t35 17.5q30 0 30 -33q0 -39 -35 -39q-25 0 -24 26q0 10 -2 11q-8 0 -8 -26q0 -42 40 -69t102 -27q121 0 215 99q29 30 55 68q24 35 113 176q64 102 147 189q-37 21 -91 24q4 -16 4 -28
q0 -79 -73 -158.5t-145 -79.5q-33 0 -54.5 21.5t-21.5 55.5q0 74 85 134.5t191 60.5h6q-22 70 -77 70q-10 0 -24 -4.5t-18 -4.5q-3 0 -3 3q0 4 16 8.5t32 4.5q56 0 81 -77q58 -3 100 -22q124 124 245 124q62 0 102 -39.5t40 -100.5zM703 520q0 9 -3 24q-95 0 -180 -65.5
t-85 -138.5q0 -56 56 -56q68 0 140 80t72 156z" />
    <glyph glyph-name="germandbls" unicode="&#xdf;" horiz-adv-x="291" 
d="M423 501q0 -62 -103 -157q-57 -52 -57 -90q0 -29 30 -69q38 -50 38 -84q0 -44 -41.5 -77.5t-96.5 -33.5q-74 0 -74 69q0 38 24 71.5t51 33.5q25 0 25 -24t-45 -39t-45 -55q0 -20 14 -33t35 -13q38 0 73 46.5t35 98.5q0 27 -22 76q-15 34 -15 54q0 26 14 45.5t65 64.5
q89 79 89 119q0 15 -15 15q-30 0 -78 -55q-59 -68 -148.5 -242t-143.5 -252t-125 -138q-91 -76 -176 -76q-34 0 -34 8q0 5 5 5q7 0 20.5 -2.5t20.5 -2.5q76 0 152 80q37 39 62 79.5t120 216.5q36 67 66 118h-54l4 7h53q74 123 145.5 191.5t109.5 68.5q22 0 22 -24z" />
    <glyph glyph-name="agrave" unicode="&#xe0;" horiz-adv-x="344" 
d="M336 312q-1 -2 -3 -2q-12 0 -31.5 36t-30.5 77l42 29q-8 -24 -8 -47q0 -51 27 -87q4 -4 4 -6zM434 153q0 -10 -71 -95q-58 -69 -91 -69q-22 0 -36.5 16.5t-14.5 42.5t16 57q-49 -68 -75 -92t-50 -24q-26 0 -43.5 22t-17.5 56q0 94 132 166q58 32 94 32q30 0 30 -29
q0 -9 -4 -22l25 47q15 -3 26 -3q13 0 34 3l-86 -143q-45 -75 -45 -99q0 -23 19 -23t62 44.5t88 110.5q2 5 5 5t3 -3zM300 234q0 24 -22 24q-45 0 -118 -88t-73 -142q0 -32 28 -32q34 0 117 112q68 92 68 126z" />
    <glyph glyph-name="aacute" unicode="&#xe1;" horiz-adv-x="344" 
d="M489 412q-47 -37 -121 -68q-57 -24 -65 -24q-2 0 -3 1q0 1 6 4q114 55 163 118zM434 153q0 -10 -71 -95q-58 -69 -91 -69q-22 0 -36.5 16.5t-14.5 42.5t16 57q-49 -68 -75 -92t-50 -24q-26 0 -43.5 22t-17.5 56q0 94 132 166q58 32 94 32q30 0 30 -29q0 -9 -4 -22l25 47
q15 -3 26 -3q13 0 34 3l-86 -143q-45 -75 -45 -99q0 -23 19 -23t62 44.5t88 110.5q2 5 5 5t3 -3zM300 234q0 24 -22 24q-45 0 -118 -88t-73 -142q0 -32 28 -32q34 0 117 112q68 92 68 126z" />
    <glyph glyph-name="acircumflex" unicode="&#xe2;" horiz-adv-x="344" 
d="M396 440q-5 -61 -8 -119q0 -4 -2 -4t-3 11q-3 42 -11 60q-31 -20 -89.5 -46t-74.5 -26q-3 0 -3 2q1 1 7 4q54 22 108.5 57t75.5 61zM434 153q0 -10 -71 -95q-58 -69 -91 -69q-22 0 -36.5 16.5t-14.5 42.5t16 57q-49 -68 -75 -92t-50 -24q-26 0 -43.5 22t-17.5 56
q0 94 132 166q58 32 94 32q30 0 30 -29q0 -9 -4 -22l25 47q15 -3 26 -3q13 0 34 3l-86 -143q-45 -75 -45 -99q0 -23 19 -23t62 44.5t88 110.5q2 5 5 5t3 -3zM300 234q0 24 -22 24q-45 0 -118 -88t-73 -142q0 -32 28 -32q34 0 117 112q68 92 68 126z" />
    <glyph glyph-name="atilde" unicode="&#xe3;" horiz-adv-x="344" 
d="M432 355q0 -7 -27 -19.5t-41 -12.5q-15 0 -43 7l-10 2q-46 12 -60 12q-11 0 -27 -7q-5 -3 -7 -3q-3 0 -3 2q0 7 27 19.5t42 12.5q17 0 59 -10l22 -5q21 -5 32 -5q16 0 29 7q4 2 5 2q2 0 2 -2zM434 153q0 -10 -71 -95q-58 -69 -91 -69q-22 0 -36.5 16.5t-14.5 42.5t16 57
q-49 -68 -75 -92t-50 -24q-26 0 -43.5 22t-17.5 56q0 94 132 166q58 32 94 32q30 0 30 -29q0 -9 -4 -22l25 47q15 -3 26 -3q13 0 34 3l-86 -143q-45 -75 -45 -99q0 -23 19 -23t62 44.5t88 110.5q2 5 5 5t3 -3zM300 234q0 24 -22 24q-45 0 -118 -88t-73 -142q0 -32 28 -32
q34 0 117 112q68 92 68 126z" />
    <glyph glyph-name="adieresis" unicode="&#xe4;" horiz-adv-x="344" 
d="M406 360q0 -18 -13.5 -32.5t-29.5 -14.5q-24 0 -24 22q0 17 14.5 31t31.5 14q21 0 21 -20zM323 360q0 -18 -13.5 -32.5t-29.5 -14.5q-24 0 -24 23q0 17 14.5 30.5t31.5 13.5q21 0 21 -20zM434 153q0 -10 -71 -95q-58 -69 -91 -69q-22 0 -36.5 16.5t-14.5 42.5t16 57
q-49 -68 -75 -92t-50 -24q-26 0 -43.5 22t-17.5 56q0 94 132 166q58 32 94 32q30 0 30 -29q0 -9 -4 -22l25 47q15 -3 26 -3q13 0 34 3l-86 -143q-45 -75 -45 -99q0 -23 19 -23t62 44.5t88 110.5q2 5 5 5t3 -3zM300 234q0 24 -22 24q-45 0 -118 -88t-73 -142q0 -32 28 -32
q34 0 117 112q68 92 68 126z" />
    <glyph glyph-name="aring" unicode="&#xe5;" horiz-adv-x="344" 
d="M407 394q0 -29 -24.5 -56t-52.5 -27t-28 28q0 29 25.5 55.5t53.5 26.5q26 0 26 -27zM434 153q0 -10 -71 -95q-58 -69 -91 -69q-22 0 -36.5 16.5t-14.5 42.5t16 57q-49 -68 -75 -92t-50 -24q-26 0 -43.5 22t-17.5 56q0 94 132 166q58 32 94 32q30 0 30 -29q0 -9 -4 -22
l25 47q15 -3 26 -3q13 0 34 3l-86 -143q-45 -75 -45 -99q0 -23 19 -23t62 44.5t88 110.5q2 5 5 5t3 -3zM397 396q0 16 -15 16q-20 0 -44.5 -27t-24.5 -49q0 -16 14 -16q20 0 45 27t25 49zM300 234q0 24 -22 24q-45 0 -118 -88t-73 -142q0 -32 28 -32q34 0 117 112
q68 92 68 126z" />
    <glyph glyph-name="ae" unicode="&#xe6;" horiz-adv-x="440" 
d="M531 154q0 -7 -54 -68q-86 -97 -151 -97q-61 0 -80 62q-96 -62 -145 -62q-21 0 -35 13t-14 32q0 78 203 94q35 49 35 88q0 42 -49 42q-75 0 -146 -102q-7 -10 -10 -10q-2 1 -2 3q0 8 50 60q54 56 111 56q31 0 53 -17.5t27 -45.5q87 63 144 63q47 0 47 -42q0 -72 -200 -99
q-34 -50 -34 -86q0 -42 48 -42q77 0 193 155q4 5 7 5q2 0 2 -2zM492 241q0 16 -22 16q-61 0 -152 -127q67 14 120.5 47.5t53.5 63.5zM252 122q-78 -12 -123 -41t-45 -67q0 -18 21 -18q26 0 67 35.5t80 90.5z" />
    <glyph glyph-name="ccedilla" unicode="&#xe7;" horiz-adv-x="242" 
d="M333 153q0 -8 -69 -82q-77 -82 -128 -82q-15 0 -36 9q37 -24 37 -47q0 -36 -42 -36q-19 0 -53 17t-34 27q0 3 3 3t8 -4q28 -19 54 -19q14 0 24 9t10 21q0 18 -18 35q-36 34 -36 72q0 42 33 85.5t90 76.5q47 27 77 27q36 0 36 -43q0 -34 -22.5 -67.5t-45.5 -33.5
q-22 0 -22 22q0 26 44 48q36 18 36 45q0 22 -24 22q-41 0 -100 -81t-59 -136q0 -45 43 -45q46 0 106 63q57 59 77 89q5 8 9 8q2 -1 2 -3z" />
    <glyph glyph-name="egrave" unicode="&#xe8;" horiz-adv-x="246" 
d="M321 312q-1 -2 -3 -2q-12 0 -31.5 36t-30.5 77l42 29q-8 -24 -8 -47q0 -51 27 -87q4 -4 4 -6zM337 153q0 -2 -9 -13l-21 -26q-101 -125 -173 -125q-35 0 -58 24.5t-23 61.5q0 88 123 155q64 35 105 35q17 0 29.5 -10.5t12.5 -25.5q0 -35 -45.5 -59.5t-153.5 -46.5
q-33 -50 -33 -84q0 -42 45 -42q77 0 189 151q6 8 10 8q2 -1 2 -3zM296 243q0 16 -17 16q-26 0 -68 -36t-83 -93q70 18 119 51t49 62z" />
    <glyph glyph-name="eacute" unicode="&#xe9;" horiz-adv-x="246" 
d="M474 412q-47 -37 -121 -68q-57 -24 -65 -24q-2 0 -3 1q0 1 6 4q114 55 163 118zM337 153q0 -2 -9 -13l-21 -26q-101 -125 -173 -125q-35 0 -58 24.5t-23 61.5q0 88 123 155q64 35 105 35q17 0 29.5 -10.5t12.5 -25.5q0 -35 -45.5 -59.5t-153.5 -46.5q-33 -50 -33 -84
q0 -42 45 -42q77 0 189 151q6 8 10 8q2 -1 2 -3zM296 243q0 16 -17 16q-26 0 -68 -36t-83 -93q70 18 119 51t49 62z" />
    <glyph glyph-name="ecircumflex" unicode="&#xea;" horiz-adv-x="246" 
d="M382 440q-5 -61 -8 -119q0 -4 -2 -4t-3 11q-3 42 -11 60q-31 -20 -89.5 -46t-74.5 -26q-3 0 -3 2q1 1 7 4q54 22 108.5 57t75.5 61zM337 153q0 -2 -9 -13l-21 -26q-101 -125 -173 -125q-35 0 -58 24.5t-23 61.5q0 88 123 155q64 35 105 35q17 0 29.5 -10.5t12.5 -25.5
q0 -35 -45.5 -59.5t-153.5 -46.5q-33 -50 -33 -84q0 -42 45 -42q77 0 189 151q6 8 10 8q2 -1 2 -3zM296 243q0 16 -17 16q-26 0 -68 -36t-83 -93q70 18 119 51t49 62z" />
    <glyph glyph-name="edieresis" unicode="&#xeb;" horiz-adv-x="246" 
d="M385 360q0 -18 -13.5 -32.5t-29.5 -14.5q-24 0 -24 22q0 17 14.5 31t31.5 14q21 0 21 -20zM302 360q0 -18 -13.5 -32.5t-29.5 -14.5q-24 0 -24 23q0 17 14.5 30.5t31.5 13.5q21 0 21 -20zM337 153q0 -2 -9 -13l-21 -26q-101 -125 -173 -125q-35 0 -58 24.5t-23 61.5
q0 88 123 155q64 35 105 35q17 0 29.5 -10.5t12.5 -25.5q0 -35 -45.5 -59.5t-153.5 -46.5q-33 -50 -33 -84q0 -42 45 -42q77 0 189 151q6 8 10 8q2 -1 2 -3zM296 243q0 16 -17 16q-26 0 -68 -36t-83 -93q70 18 119 51t49 62z" />
    <glyph glyph-name="igrave" unicode="&#xec;" horiz-adv-x="168" 
d="M225 312q-1 -2 -3 -2q-12 0 -31.5 36t-30.5 77l42 29q-8 -24 -8 -47q0 -51 27 -87q4 -4 4 -6zM258 153q0 -2 -5 -8l-21 -29q-92 -127 -140 -127q-23 0 -38.5 16t-15.5 41q0 28 34 86l76 129q15 -3 24 -3q13 0 37 3l-111 -182q-24 -39 -24 -61t23 -22q44 0 153 155
q2 5 5 5t3 -3z" />
    <glyph glyph-name="iacute" unicode="&#xed;" horiz-adv-x="168" 
d="M378 412q-47 -37 -121 -68q-57 -24 -65 -24q-2 0 -3 1q0 1 6 4q114 55 163 118zM258 153q0 -2 -5 -8l-21 -29q-92 -127 -140 -127q-23 0 -38.5 16t-15.5 41q0 28 34 86l76 129q15 -3 24 -3q13 0 37 3l-111 -182q-24 -39 -24 -61t23 -22q44 0 153 155q2 5 5 5t3 -3z" />
    <glyph glyph-name="icircumflex" unicode="&#xee;" horiz-adv-x="168" 
d="M286 440q-5 -61 -8 -119q0 -4 -2 -4t-3 11q-3 42 -11 60q-31 -20 -89.5 -46t-74.5 -26q-3 0 -3 2q1 1 7 4q54 22 108.5 57t75.5 61zM258 153q0 -2 -5 -8l-21 -29q-92 -127 -140 -127q-23 0 -38.5 16t-15.5 41q0 28 34 86l76 129q15 -3 24 -3q13 0 37 3l-111 -182
q-24 -39 -24 -61t23 -22q44 0 153 155q2 5 5 5t3 -3z" />
    <glyph glyph-name="idieresis" unicode="&#xef;" horiz-adv-x="168" 
d="M289 360q0 -18 -13.5 -32.5t-29.5 -14.5q-24 0 -24 22q0 17 14.5 31t31.5 14q21 0 21 -20zM206 360q0 -18 -13.5 -32.5t-29.5 -14.5q-24 0 -24 23q0 17 14.5 30.5t31.5 13.5q21 0 21 -20zM258 153q0 -2 -5 -8l-21 -29q-92 -127 -140 -127q-23 0 -38.5 16t-15.5 41
q0 28 34 86l76 129q15 -3 24 -3q13 0 37 3l-111 -182q-24 -39 -24 -61t23 -22q44 0 153 155q2 5 5 5t3 -3z" />
    <glyph glyph-name="eth" unicode="&#xf0;" horiz-adv-x="290" 
d="M415 461l-70 -25q32 -63 32 -135q0 -132 -105 -234q-80 -78 -144 -78q-32 0 -53.5 23.5t-21.5 58.5q0 77 98 146q69 48 114 48q44 0 44 -45q0 -6 -3 -24q33 86 33 157q0 41 -11 77l-76 -28l-2 7l75 28q-23 65 -78 74q-7 1 -7 4q1 2 4 2q49 0 97 -74l72 26zM301 221
q0 38 -37 38q-44 0 -107.5 -84.5t-63.5 -142.5q0 -35 34 -35q46 0 110 82.5t64 141.5z" />
    <glyph glyph-name="ntilde" unicode="&#xf1;" horiz-adv-x="391" 
d="M462 355q0 -7 -27 -19.5t-41 -12.5q-15 0 -43 7l-10 2q-46 12 -60 12q-11 0 -27 -7q-5 -3 -7 -3q-3 0 -3 2q0 7 27 19.5t42 12.5q17 0 59 -10l22 -5q21 -5 32 -5q16 0 29 7q4 2 5 2q2 0 2 -2zM482 153q0 -10 -71 -95q-58 -69 -91 -69q-22 0 -37 17t-15 42q0 22 9 40.5
t48 76t39 73.5q0 20 -21 20q-71 0 -220 -265q-24 2 -29 2q-17 0 -32 -2l76 121q65 103 65 129q0 15 -12 15q-25 0 -98 -105q-5 -6 -7 -7q-3 0 -3 3q0 2 2 4l9 12q75 100 101 100q16 0 28 -15t12 -36q0 -31 -37 -87q58 79 89 108.5t57 29.5q22 0 36.5 -17.5t14.5 -43.5
q0 -32 -45.5 -100.5t-45.5 -87.5q0 -20 20 -20q44 0 150 155q2 5 5 5t3 -3z" />
    <glyph glyph-name="ograve" unicode="&#xf2;" horiz-adv-x="290" 
d="M332 312q-1 -2 -3 -2q-12 0 -31.5 36t-30.5 77l42 29q-8 -24 -8 -47q0 -51 27 -87q4 -4 4 -6zM380 154q0 -8 -29 -37q-43 -43 -79 -43q-15 0 -27 6q-64 -91 -121 -91q-29 0 -50 24t-21 58q0 75 99 145q69 49 114 49q42 0 42 -45q0 -56 -59 -135q10 -6 22 -6q22 0 51 20.5
t48 49.5q6 7 8 7t2 -2zM301 219q0 40 -36 40q-44 0 -108 -85t-64 -143q0 -34 32 -34q53 0 115 87q-14 15 -14 32q0 24 19 49.5t37 25.5q8 0 11 -10q8 17 8 38z" />
    <glyph glyph-name="oacute" unicode="&#xf3;" horiz-adv-x="290" 
d="M462 412q-47 -37 -121 -68q-57 -24 -65 -24q-2 0 -3 1q0 1 6 4q114 55 163 118zM380 154q0 -8 -29 -37q-43 -43 -79 -43q-15 0 -27 6q-64 -91 -121 -91q-29 0 -50 24t-21 58q0 75 99 145q69 49 114 49q42 0 42 -45q0 -56 -59 -135q10 -6 22 -6q22 0 51 20.5t48 49.5
q6 7 8 7t2 -2zM301 219q0 40 -36 40q-44 0 -108 -85t-64 -143q0 -34 32 -34q53 0 115 87q-14 15 -14 32q0 24 19 49.5t37 25.5q8 0 11 -10q8 17 8 38z" />
    <glyph glyph-name="ocircumflex" unicode="&#xf4;" horiz-adv-x="290" 
d="M381 440q-5 -61 -8 -119q0 -4 -2 -4t-3 11q-3 42 -11 60q-31 -20 -89.5 -46t-74.5 -26q-3 0 -3 2q1 1 7 4q54 22 108.5 57t75.5 61zM380 154q0 -8 -29 -37q-43 -43 -79 -43q-15 0 -27 6q-64 -91 -121 -91q-29 0 -50 24t-21 58q0 75 99 145q69 49 114 49q42 0 42 -45
q0 -56 -59 -135q10 -6 22 -6q22 0 51 20.5t48 49.5q6 7 8 7t2 -2zM301 219q0 40 -36 40q-44 0 -108 -85t-64 -143q0 -34 32 -34q53 0 115 87q-14 15 -14 32q0 24 19 49.5t37 25.5q8 0 11 -10q8 17 8 38z" />
    <glyph glyph-name="otilde" unicode="&#xf5;" horiz-adv-x="290" 
d="M406 355q0 -7 -27 -19.5t-41 -12.5q-15 0 -43 7l-10 2q-46 12 -60 12q-11 0 -27 -7q-5 -3 -7 -3q-3 0 -3 2q0 7 27 19.5t42 12.5q17 0 59 -10l22 -5q21 -5 32 -5q16 0 29 7q4 2 5 2q2 0 2 -2zM380 154q0 -8 -29 -37q-43 -43 -79 -43q-15 0 -27 6q-64 -91 -121 -91
q-29 0 -50 24t-21 58q0 75 99 145q69 49 114 49q42 0 42 -45q0 -56 -59 -135q10 -6 22 -6q22 0 51 20.5t48 49.5q6 7 8 7t2 -2zM301 219q0 40 -36 40q-44 0 -108 -85t-64 -143q0 -34 32 -34q53 0 115 87q-14 15 -14 32q0 24 19 49.5t37 25.5q8 0 11 -10q8 17 8 38z" />
    <glyph glyph-name="odieresis" unicode="&#xf6;" horiz-adv-x="290" 
d="M378 360q0 -18 -13.5 -32.5t-29.5 -14.5q-24 0 -24 22q0 17 14.5 31t31.5 14q21 0 21 -20zM295 360q0 -18 -13.5 -32.5t-29.5 -14.5q-24 0 -24 23q0 17 14.5 30.5t31.5 13.5q21 0 21 -20zM380 154q0 -8 -29 -37q-43 -43 -79 -43q-15 0 -27 6q-64 -91 -121 -91
q-29 0 -50 24t-21 58q0 75 99 145q69 49 114 49q42 0 42 -45q0 -56 -59 -135q10 -6 22 -6q22 0 51 20.5t48 49.5q6 7 8 7t2 -2zM301 219q0 40 -36 40q-44 0 -108 -85t-64 -143q0 -34 32 -34q53 0 115 87q-14 15 -14 32q0 24 19 49.5t37 25.5q8 0 11 -10q8 17 8 38z" />
    <glyph glyph-name="divide" unicode="&#xf7;" horiz-adv-x="667" 
d="M809 433l-191 -140l70 -225l-189 139l-189 -139l70 225l-191 140h236l74 228l74 -228h236z" />
    <glyph glyph-name="oslash" unicode="&#xf8;" horiz-adv-x="290" 
d="M380 154q0 -8 -29 -38q-41 -42 -79 -42q-15 0 -27 6q-64 -91 -119 -91q-9 0 -15 1l-40 -61h-12l42 64q-48 23 -48 78q0 75 99 146q67 48 112 48q6 0 11 -1l37 58h11l-39 -60q24 -13 24 -42q0 -56 -59 -135q10 -6 22 -6q51 0 98 69q5 8 9 8q2 0 2 -2zM301 219q0 26 -20 37
l-165 -258q5 -1 12 -1q50 0 112 87q-14 15 -14 32q0 24 19 49.5t37 25.5q8 0 11 -10q8 17 8 38zM271 258q-3 1 -8 1q-42 0 -106 -85.5t-64 -142.5q0 -15 14 -29z" />
    <glyph glyph-name="ugrave" unicode="&#xf9;" horiz-adv-x="313" 
d="M287 312q-1 -2 -3 -2q-12 0 -31.5 36t-30.5 77l42 29q-8 -24 -8 -47q0 -51 27 -87q4 -4 4 -6zM404 153q0 -11 -71 -95q-59 -69 -93 -69q-21 0 -36 17t-15 42q0 19 19 53l-10 -13q-45 -58 -65 -77q-24 -22 -44 -22q-22 0 -36.5 16.5t-14.5 41.5q0 28 22 65l89 149
q17 -3 26 -3t33 3l-116 -191q-18 -30 -18 -52t19 -22q49 0 158 184l48 81q15 -3 25 -3q13 0 35 3l-78 -127q-56 -91 -56 -117q0 -21 20 -21q39 0 127 123l15 21l9 11q2 5 5 5t3 -3z" />
    <glyph glyph-name="uacute" unicode="&#xfa;" horiz-adv-x="313" 
d="M451 412q-47 -37 -121 -68q-57 -24 -65 -24q-2 0 -3 1q0 1 6 4q114 55 163 118zM404 153q0 -11 -71 -95q-59 -69 -93 -69q-21 0 -36 17t-15 42q0 19 19 53l-10 -13q-45 -58 -65 -77q-24 -22 -44 -22q-22 0 -36.5 16.5t-14.5 41.5q0 28 22 65l89 149q17 -3 26 -3t33 3
l-116 -191q-18 -30 -18 -52t19 -22q49 0 158 184l48 81q15 -3 25 -3q13 0 35 3l-78 -127q-56 -91 -56 -117q0 -21 20 -21q39 0 127 123l15 21l9 11q2 5 5 5t3 -3z" />
    <glyph glyph-name="ucircumflex" unicode="&#xfb;" horiz-adv-x="313" 
d="M365 440q-5 -61 -8 -119q0 -4 -2 -4t-3 11q-3 42 -11 60q-31 -20 -89.5 -46t-74.5 -26q-3 0 -3 2q1 1 7 4q54 22 108.5 57t75.5 61zM404 153q0 -11 -71 -95q-59 -69 -93 -69q-21 0 -36 17t-15 42q0 19 19 53l-10 -13q-45 -58 -65 -77q-24 -22 -44 -22q-22 0 -36.5 16.5
t-14.5 41.5q0 28 22 65l89 149q17 -3 26 -3t33 3l-116 -191q-18 -30 -18 -52t19 -22q49 0 158 184l48 81q15 -3 25 -3q13 0 35 3l-78 -127q-56 -91 -56 -117q0 -21 20 -21q39 0 127 123l15 21l9 11q2 5 5 5t3 -3z" />
    <glyph glyph-name="udieresis" unicode="&#xfc;" horiz-adv-x="313" 
d="M368 360q0 -18 -13.5 -32.5t-29.5 -14.5q-24 0 -24 22q0 17 14.5 31t31.5 14q21 0 21 -20zM285 360q0 -18 -13.5 -32.5t-29.5 -14.5q-24 0 -24 23q0 17 14.5 30.5t31.5 13.5q21 0 21 -20zM404 153q0 -11 -71 -95q-59 -69 -93 -69q-21 0 -36 17t-15 42q0 19 19 53l-10 -13
q-45 -58 -65 -77q-24 -22 -44 -22q-22 0 -36.5 16.5t-14.5 41.5q0 28 22 65l89 149q17 -3 26 -3t33 3l-116 -191q-18 -30 -18 -52t19 -22q49 0 158 184l48 81q15 -3 25 -3q13 0 35 3l-78 -127q-56 -91 -56 -117q0 -21 20 -21q39 0 127 123l15 21l9 11q2 5 5 5t3 -3z" />
    <glyph glyph-name="yacute" unicode="&#xfd;" horiz-adv-x="308" 
d="M448 412q-47 -37 -121 -68q-57 -24 -65 -24q-2 0 -3 1q0 1 6 4q114 55 163 118zM398 153q0 -8 -54 -67q-59 -65 -155 -118l-24 -43q-71 -127 -148 -189q-80 -64 -138 -64q-20 0 -33.5 12.5t-13.5 31.5q0 98 226 203q19 9 56 26l7 4l86 153q-51 -70 -74 -91.5t-46 -21.5
q-20 0 -35 17t-15 40q0 28 35 87l75 127q11 -2 26 -2q13 0 35 3l-96 -156q-41 -67 -41 -87q0 -22 20 -22q53 0 162 187l45 77q11 -2 27 -2q14 0 33 3q-61 -96 -164 -282q59 31 100 67t92 101q7 9 9 9q3 0 3 -3zM116 -59q-8 -4 -55 -28q-222 -110 -222 -198q0 -37 41 -37
q52 0 103 56.5t127 196.5z" />
    <glyph glyph-name="thorn" unicode="&#xfe;" horiz-adv-x="261" 
d="M351 493l-216 -340q52 69 76 90.5t47 21.5q26 0 43.5 -22.5t17.5 -55.5q0 -80 -99 -145q-80 -53 -126 -53q-31 0 -31 29q0 9 5 24l-187 -312q-17 4 -28 4q-16 0 -32 -6l472 766q13 -4 28 -4q12 0 30 3zM283 226q0 32 -28 32q-36 0 -120 -115q-65 -89 -65 -122
q0 -25 23 -25q45 0 117.5 87.5t72.5 142.5z" />
    <glyph glyph-name="ydieresis" unicode="&#xff;" horiz-adv-x="308" 
d="M364 360q0 -18 -13.5 -32.5t-29.5 -14.5q-24 0 -24 22q0 17 14.5 31t31.5 14q21 0 21 -20zM281 360q0 -18 -13.5 -32.5t-29.5 -14.5q-24 0 -24 23q0 17 14.5 30.5t31.5 13.5q21 0 21 -20zM398 153q0 -8 -54 -67q-59 -65 -155 -118l-24 -43q-71 -127 -148 -189
q-80 -64 -138 -64q-20 0 -33.5 12.5t-13.5 31.5q0 98 226 203q19 9 56 26l7 4l86 153q-51 -70 -74 -91.5t-46 -21.5q-20 0 -35 17t-15 40q0 28 35 87l75 127q11 -2 26 -2q13 0 35 3l-96 -156q-41 -67 -41 -87q0 -22 20 -22q53 0 162 187l45 77q11 -2 27 -2q14 0 33 3
q-61 -96 -164 -282q59 31 100 67t92 101q7 9 9 9q3 0 3 -3zM116 -59q-8 -4 -55 -28q-222 -110 -222 -198q0 -37 41 -37q52 0 103 56.5t127 196.5z" />
    <glyph glyph-name="dotlessi" unicode="&#x131;" horiz-adv-x="168" 
d="M258 153q0 -2 -5 -8l-21 -29q-92 -127 -140 -127q-23 0 -38.5 16t-15.5 41q0 28 34 86l76 129q15 -3 24 -3q13 0 37 3l-111 -182q-24 -39 -24 -61t23 -22q44 0 153 155q2 5 5 5t3 -3z" />
    <glyph glyph-name="Lslash" unicode="&#x141;" horiz-adv-x="759" 
d="M1037 617q0 -35 -85 -133.5t-166 -157.5l-6 -14l122 37l-4 -10l-123 -38q-58 -119 -121 -176t-169 -84q194 -52 232.5 -60.5t73.5 -8.5q51 0 92 37q4 2 5 2q3 -1 3 -2q0 -8 -26 -26q-48 -33 -139 -33q-67 0 -129 13t-189 53q-81 -16 -168 -16q-153 0 -153 47q0 44 117 44
q91 0 271 -47q54 21 95.5 62t105.5 137q-146 -127 -272 -127q-86 0 -137 51t-51 137q0 133 125 251.5t265 118.5q64 0 102.5 -33.5t38.5 -89.5q0 -100 -93.5 -207t-181.5 -107q-37 0 -62.5 23.5t-25.5 57.5q0 26 16.5 45.5t38.5 19.5q30 0 30 -30q0 -16 -11.5 -28.5
t-26.5 -12.5q-24 0 -23 22q1 14 -3 14q-11 0 -11 -30q0 -31 23 -51.5t58 -20.5q80 0 171.5 105t91.5 199q0 50 -34.5 82.5t-88.5 32.5q-129 0 -247.5 -129.5t-118.5 -269.5q0 -66 42 -103.5t116 -37.5q64 0 126.5 31.5t154.5 108.5l7 12l-86 -26l3 9l90 28q103 175 177 252
q91 95 138 95q20 0 20 -18zM1029 617q0 11 -12 11q-36 0 -99 -74q-56 -66 -125 -213q83 68 159.5 157t76.5 119zM392 21q-171 54 -233 54q-64 0 -64 -28q0 -38 150 -38q81 0 147 12z" />
    <glyph glyph-name="lslash" unicode="&#x142;" horiz-adv-x="160" 
d="M347 499q-46 -77 -138 -229l70 22l-4 -9l-72 -24q-94 -157 -111.5 -190t-17.5 -51q0 -22 19 -22q41 0 150 155q2 5 6 5q2 -1 2 -3q0 -3 -5 -8l-21 -29q-92 -127 -136 -127q-21 0 -34.5 15.5t-13.5 40.5q0 27 12 52t85 146l-70 -23l4 10l72 23l56 95q37 61 87 149
q15 -4 26 -4q18 0 34 6z" />
    <glyph glyph-name="OE" unicode="&#x152;" horiz-adv-x="1168" 
d="M1318 547q0 -33 -60 -33q-48 0 -224 44q-83 -46 -83 -118q0 -36 24 -50q33 4 52 4q51 0 51 -12q0 -8 -28 -8q-30 0 -73 10q-42 -6 -92 -27q-28 -169 -205 -297q23 -39 65 -55t119 -16q-26 41 -26 90q0 92 76 159q90 80 193 80q55 0 86.5 -27t31.5 -73
q0 -89 -103.5 -160.5t-239.5 -76.5q47 -57 133 -57q65 0 115 28q3 3 6 3q4 0 4 -4q0 -10 -43.5 -22.5t-77.5 -12.5q-87 0 -149 63q-147 -1 -214 64q-120 -75 -212 -75q-87 0 -143 64t-56 164q0 85 47 175t129 160q72 62 159.5 99t161.5 37q48 0 88 -12q37 -11 115 -49
q18 -9 63 -28q71 30 150 30q66 0 113 -18t47 -43zM1308 548q0 19 -40.5 33.5t-92.5 14.5q-71 0 -130 -31q130 -42 217 -42q46 0 46 25zM1214 224q0 37 -27 59.5t-71 22.5q-87 0 -172 -72t-85 -177q0 -37 18 -67q116 0 226.5 76.5t110.5 157.5zM864 349q-197 -92 -197 -231
q0 -22 7 -43q67 52 119.5 128t70.5 146zM998 573q-24 8 -57 24q-120 58 -189 58q-109 0 -218 -77q-105 -73 -172 -189q-70 -120 -70 -239q0 -77 42.5 -125t109.5 -48q95 0 202 77q-31 41 -31 83q0 77 70 141.5t185 93.5q7 36 7 64q0 68 -43 109.5t-113 41.5
q-107 0 -214 -115q-128 -138 -128 -267q0 -45 24.5 -72t65.5 -27q19 0 38 9.5t19 18.5q0 4 -3 4q-16 -7 -21 -7q-23 0 -23 26q0 39 38 39q30 0 30 -34q0 -28 -23 -46.5t-57 -18.5q-46 0 -74 33t-28 87q0 129 117.5 254t238.5 125q77 0 123 -48.5t46 -129.5q0 -7 -3 -42
q35 8 78 13q-54 23 -54 72q0 68 87 112z" />
    <glyph glyph-name="oe" unicode="&#x153;" horiz-adv-x="416" 
d="M506 154q0 -3 -41 -53q-92 -112 -164 -112q-63 0 -79 62q-53 -62 -101 -62q-30 0 -49 22.5t-19 57.5q0 84 106 151q72 45 116 45q35 0 35 -39q0 -9 -2 -18q82 57 134 57q36 0 36 -34q0 -64 -188 -107q-33 -52 -33 -85q0 -43 47 -43q57 0 129 78q41 45 66 78q3 4 4 4
q3 0 3 -2zM457 243q0 15 -15 15q-55 0 -147 -127q68 19 115 51.5t47 60.5zM303 229q0 29 -28 29q-44 0 -114.5 -85.5t-70.5 -139.5q0 -37 32 -37q48 0 97 72q0 68 74 129q10 20 10 32z" />
    <glyph glyph-name="Scaron" unicode="&#x160;" horiz-adv-x="707" 
d="M1193 841l-2 -2q-52 -20 -111 -57t-85 -66q3 24 9 95q1 16 3 32q2 -1 2 -4q4 -42 11 -69q32 21 93 47t78 26q2 0 2 -2zM994 638q0 -23 -47 -67.5t-115 -84.5q-9 -28 -26 -101q-27 -115 -50 -163t-76 -98q-152 -144 -341 -144q-54 0 -96 18q-23 -45 -23 -78q0 -42 28 -77
q3 -3 3 -7t-5 -4q-11 0 -24 30.5t-13 56.5q0 38 25 84q-102 53 -102 181q0 83 49 164.5t137 146.5q113 83 223 83q60 0 95.5 -33.5t35.5 -91.5q0 -31 -9 -64q72 48 127 81q35 77 88.5 132t92.5 55q23 0 23 -19zM985 637q0 12 -14 12q-32 0 -72.5 -45t-62.5 -106
q64 40 106.5 79.5t42.5 59.5zM646 367l-32 -22q-184 -127 -266 -211q21 -11 44 -11q68 0 143 72t111 172zM784 457q-57 -36 -125 -82q-32 -103 -113 -181.5t-155 -78.5q-22 0 -49 12q-55 -57 -94 -120q40 -18 91 -18q91 0 177 52t148 144q29 43 45.5 80t53.5 139q9 25 21 53
zM663 455q0 51 -32.5 82.5t-85.5 31.5q-131 0 -254 -137t-123 -283q0 -96 71 -137q33 55 95 120q-32 27 -32 66q0 29 18.5 50t44.5 21q33 0 33 -30q0 -16 -12 -27.5t-29 -11.5q-24 0 -24 23q0 8 5 16q2 6 2 7q0 3 -3 3q-8 0 -17 -17.5t-9 -34.5q0 -32 30 -58q98 104 310 242
q12 43 12 74z" />
    <glyph glyph-name="scaron" unicode="&#x161;" horiz-adv-x="195" 
d="M452 494l-15 -7q-119 -52 -177 -115q7 70 10 113q1 10 2 10t2 -4q3 -43 11 -67q33 22 90.5 47t74.5 25q2 0 2 -2zM256 343q0 -20 -61 -78q-3 -15 -3 -26q0 -29 26 -90q13 -31 13 -52q0 -44 -43 -76t-101 -32q-33 0 -53 19t-20 50q0 37 26 71.5t54 34.5q5 0 9 -2l39 48
q18 21 47 58q8 34 25.5 58.5t33.5 24.5q8 0 8 -8zM188 150q0 14 -1 28.5t-1 41.5q0 22 2 37q-27 -35 -79 -98q9 -8 9 -19q0 -29 -47 -39q-19 -4 -33 -20.5t-14 -34.5q0 -20 14 -33t35 -13q41 0 78 47.5t37 102.5z" />
    <glyph glyph-name="Ydieresis" unicode="&#x178;" horiz-adv-x="931" 
d="M1119 763q0 -19 -14 -33.5t-31 -14.5q-24 0 -24 23q0 17 15 31.5t32 14.5q22 0 22 -21zM1034 763q0 -19 -14 -33.5t-31 -14.5q-24 0 -24 23q0 17 15 31.5t32 14.5q22 0 22 -21zM1208 543q0 -1 -4 -4q-85 -59 -154.5 -159.5t-155.5 -282.5q-73 -156 -198.5 -249.5
t-258.5 -93.5q-66 0 -108.5 30.5t-42.5 78.5q0 28 17.5 48.5t42.5 20.5q32 0 32 -30q0 -16 -11 -28t-26 -12q-26 0 -26 24q0 4 1.5 9t1.5 8t-2 3q-7 0 -13.5 -14t-6.5 -29q0 -44 39 -72.5t99 -28.5q81 0 154.5 44.5t119.5 103.5t139 227q32 59 77 129q-108 -130 -161 -179
q-99 -92 -161 -92q-38 0 -61.5 28t-23.5 73q0 46 26.5 94t110.5 155q108 137 108 224q0 114 -138 114q-154 0 -308 -140q-64 -58 -106.5 -137t-42.5 -140q0 -58 34 -93t91 -35q101 0 194 96q111 115 111 213q0 35 -19.5 56t-51.5 21q-71 0 -150 -88t-79 -168q0 -51 49 -51h2
q5 0 5 -3q0 -4 -12 -4q-27 0 -44 22.5t-17 58.5q0 83 80 162t165 79q37 0 59 -23t22 -62q0 -88 -90 -194q-105 -124 -223 -124q-66 0 -106 44.5t-40 117.5q0 146 153 268q76 61 163.5 96.5t160.5 35.5q77 0 121.5 -43t44.5 -119q0 -60 -27.5 -117t-107.5 -161
q-70 -90 -88.5 -122t-18.5 -63q0 -61 58 -61q54 0 129.5 66.5t199.5 223.5q128 162 257 248l6 4q4 2 5 2q5 0 5 -6z" />
    <glyph glyph-name="Zcaron" unicode="&#x17d;" horiz-adv-x="653" 
d="M969 841l-2 -2q-52 -20 -111 -57t-85 -66q3 24 9 95q1 16 3 32q2 -1 2 -4q4 -42 11 -69q32 21 93 47t78 26q2 0 2 -2zM995 610q0 -26 -72 -90q-58 -52 -121 -70q-5 -8 -38 -70q-58 -112 -132.5 -172t-190.5 -88q82 -5 131 -43t49 -99q0 -116 -136 -213q-128 -91 -240 -91
q-63 0 -104.5 29.5t-41.5 73.5q0 25 14 42t35 17q31 0 31 -32q0 -16 -10.5 -28t-24.5 -12q-11 0 -19.5 7.5t-7.5 16.5l1 7v2q0 2 -2 2q-8 0 -8 -24q0 -39 38 -65t95 -26q105 0 216 99.5t111 203.5q0 116 -138 127q-54 -19 -91 -19q-15 0 -15 7q0 8 26.5 13.5t60.5 5.5h16
q71 32 128 81.5t140 153.5q48 61 77 93q-65 1 -95 32.5t-32 99.5q-3 84 -88 84q-122 0 -247.5 -128.5t-125.5 -253.5q0 -56 32.5 -89.5t86.5 -33.5q95 0 191 102t96 203q0 35 -18.5 56.5t-49.5 21.5q-64 0 -137.5 -88t-73.5 -164q0 -47 45 -53q6 0 6 -4t-6 -4
q-28 0 -48 24.5t-20 58.5q0 79 77 159t153 80q38 0 59.5 -23.5t21.5 -64.5q0 -106 -99 -210t-199 -104q-63 0 -101.5 43t-38.5 113q0 125 131 243q139 125 272 125q84 0 120 -56q12 -19 15 -31.5t11 -66.5q9 -65 67 -64q147 170 201 170q17 0 17 -16zM984 607q0 9 -10 9
q-22 0 -69.5 -44t-96.5 -110q75 23 146 100q30 33 30 45z" />
    <glyph glyph-name="zcaron" unicode="&#x17e;" horiz-adv-x="279" 
d="M480 437l-15 -7q-119 -52 -177 -115q7 70 10 113q1 10 2 10t2 -4q3 -43 11 -67q33 22 90.5 47t74.5 25q2 0 2 -2zM384 260q0 -16 -45 -42q-50 -42 -169 -132q-15 -11 -41 -31l14 1q23 2 41.5 -15.5t23.5 -45.5q28 16 77.5 65.5t73.5 86.5q6 9 9 9q2 0 2 -2q0 -10 -54 -70
t-107 -97v-13q0 -54 -38.5 -115.5t-95.5 -99.5q-124 -82 -198 -82q-57 0 -57 46q0 54 78 113q41 31 210 105q33 15 62 31q8 22 8 41q0 37 -39 37q-11 0 -17 -1l-7 -6l-18 -17q-46 -43 -59 -43q-12 0 -12 11q0 31 90 59q136 103 208 161l-10 -7q-27 -19 -50 -19q-16 0 -40 20
t-39 20q-30 0 -91 -76q-6 -6 -8 -6q-2 1 -2 3q0 8 45 56q54 58 92 58q15 0 65 -32q17 -11 31 -11q7 0 15 4l6 8l16 20q11 14 22 14q8 0 8 -6zM167 -36q-12 -7 -139 -66q-94 -43 -148 -90.5t-54 -86.5q0 -38 50 -38q70 0 161 88t130 193z" />
    <glyph glyph-name="florin" unicode="&#x192;" horiz-adv-x="667" 
d="M809 433l-191 -140l70 -224l-189 138l-189 -138l70 224l-191 140h236l74 228l74 -228h236zM676 390h-135l-42 130l-42 -130h-135l109 -80l-40 -129l108 80l108 -80l-40 129z" />
    <glyph glyph-name="circumflex" unicode="&#x2c6;" horiz-adv-x="500" 
d="M475 440q-5 -61 -8 -119q0 -4 -2 -4t-3 11q-3 42 -11 60q-31 -20 -89.5 -46t-74.5 -26q-3 0 -3 2q1 1 7 4q54 22 108.5 57t75.5 61z" />
    <glyph glyph-name="caron" unicode="&#x2c7;" horiz-adv-x="500" 
d="M593 437l-15 -7q-119 -52 -177 -115q7 70 10 113q1 10 2 10t2 -4q3 -43 11 -67q33 22 90.5 47t74.5 25q2 0 2 -2z" />
    <glyph glyph-name="breve" unicode="&#x2d8;" horiz-adv-x="500" 
d="M522 384q0 -10 -25 -34q-37 -36 -86 -36q-35 0 -58.5 21t-23.5 52q0 19 6 19q2 0 4 -8q5 -24 27 -39.5t53 -15.5q54 0 91 35q7 8 10 8q2 0 2 -2z" />
    <glyph glyph-name="dotaccent" unicode="&#x2d9;" horiz-adv-x="500" 
d="M462 360q0 -19 -14 -33.5t-31 -14.5q-24 0 -24 23q0 17 15 31.5t32 14.5q22 0 22 -21z" />
    <glyph glyph-name="ring" unicode="&#x2da;" horiz-adv-x="360" 
d="M420 394q0 -29 -24.5 -56t-52.5 -27t-28 28q0 29 25.5 55.5t53.5 26.5q26 0 26 -27zM410 396q0 16 -15 16q-20 0 -44.5 -27t-24.5 -49q0 -16 14 -16q20 0 45 27t25 49z" />
    <glyph glyph-name="ogonek" unicode="&#x2db;" horiz-adv-x="500" 
d="M406 -46q0 -11 -37.5 -30.5t-58.5 -19.5q-47 0 -47 41q0 29 49 59l5 2q-21 -25 -21 -42q0 -13 11.5 -23t26.5 -10q31 0 60 21q7 5 9 5q3 -1 3 -3z" />
    <glyph glyph-name="tilde" unicode="&#x2dc;" horiz-adv-x="500" 
d="M528 355q0 -7 -27 -19.5t-41 -12.5q-15 0 -43 7l-10 2q-46 12 -60 12q-11 0 -27 -7q-5 -3 -7 -3q-3 0 -3 2q0 7 27 19.5t42 12.5q17 0 59 -10l22 -5q21 -5 32 -5q16 0 29 7q4 2 5 2q2 0 2 -2z" />
    <glyph glyph-name="hungarumlaut" unicode="&#x2dd;" horiz-adv-x="500" 
d="M575 437q-35 -43 -98 -88q-50 -36 -58 -36l-1 1q0 1 5 5q40 31 78.5 73t50.5 68zM487 437q-36 -43 -98 -88q-50 -36 -58 -36l-1 1q0 1 5 5q41 32 79 74t49 67z" />
    <glyph glyph-name="Delta" unicode="&#x394;" horiz-adv-x="612" 
d="M595 0h-574l276 672h22zM471 32l-198 491l-201 -491h399z" />
    <glyph glyph-name="Delta" unicode="&#x2206;" horiz-adv-x="612" 
d="M595 0h-574l276 672h22zM471 32l-198 491l-201 -491h399z" />
    <glyph glyph-name="Omega" unicode="&#x3a9;" horiz-adv-x="768" 
d="M718 408q0 -108 -72 -177q-65 -61 -176 -82v-59h123q50 0 67 17.5t21 68.5h23l-10 -176h-252v170q80 16 122 88q36 63 36 150q0 103 -56 170q-59 71 -160 71q-102 0 -161 -71q-55 -66 -55 -170q0 -88 36 -150q41 -72 122 -88v-170h-252l-10 176h23q3 -50 21 -68t67 -18
h123v59q-112 21 -176 82q-72 69 -72 177q0 131 105 204q91 63 229 63t229 -63q105 -73 105 -204z" />
    <glyph glyph-name="Omega" unicode="&#x2126;" horiz-adv-x="768" 
d="M718 408q0 -108 -72 -177q-65 -61 -176 -82v-59h123q50 0 67 17.5t21 68.5h23l-10 -176h-252v170q80 16 122 88q36 63 36 150q0 103 -56 170q-59 71 -160 71q-102 0 -161 -71q-55 -66 -55 -170q0 -88 36 -150q41 -72 122 -88v-170h-252l-10 176h23q3 -50 21 -68t67 -18
h123v59q-112 21 -176 82q-72 69 -72 177q0 131 105 204q91 63 229 63t229 -63q105 -73 105 -204z" />
    <glyph glyph-name="pi" unicode="&#x3c0;" horiz-adv-x="549" 
d="M526 469q0 -51 -23 -70.5t-75 -20.5h-24q-4 -132 -4 -196v-86q6 -63 39 -63q39 0 51 43q7 24 7 75h25q0 -161 -106 -161q-66 0 -87 53q-16 40 -16 151q0 -6 4 184h-137q0 -227 -13 -294q-18 -94 -80 -94q-46 0 -61 48q-9 28 -9 86h24q1 -52 37 -52q45 0 62 75
q14 62 16 231h-22q-77 0 -87 -52h-23q4 74 46 101q34 22 113 22h254q66 0 66 22v1h23v-3z" />
    <glyph glyph-name="endash" unicode="&#x2013;" horiz-adv-x="445" 
d="M444 136q-1 -3 -6 -4l-19 -8q-45 -19 -81 -19q-19 0 -79 12q-30 6 -50 6q-43 0 -69 -18q-2 -2 -4 -2t-2 2q0 10 51.5 27t79.5 17q21 0 64 -13q36 -11 56 -11q24 0 51 11q5 2 6 2q2 0 2 -2z" />
    <glyph glyph-name="emdash" unicode="&#x2014;" horiz-adv-x="597" 
d="M597 136q0 -2 -30 -14q-60 -23 -99 -23q-33 0 -90 12q-90 19 -131 19q-65 0 -107 -25q-3 -2 -6 -2q-3 1 -3 2q0 11 65 31t102 20q30 0 111 -19q64 -15 98 -15q31 0 78 14q6 2 9 2t3 -2z" />
    <glyph glyph-name="quoteleft" unicode="&#x2018;" horiz-adv-x="209" 
d="M362 505q0 -2 -9 -6q-18 -7 -33 -20t-15 -22q0 -3 5 -3q22 0 22 -21q0 -19 -20 -40.5t-37 -21.5q-20 0 -20 21q0 28 39.5 72t64.5 44q3 0 3 -3z" />
    <glyph glyph-name="quoteright" unicode="&#x2019;" horiz-adv-x="209" 
d="M358 487q0 -33 -36 -72q-14 -15 -36.5 -29.5t-31.5 -14.5q-3 0 -3 3t4 4q53 20 53 44q0 3 -5 3q-22 0 -22 21q0 19 20 40.5t37 21.5q20 0 20 -21z" />
    <glyph glyph-name="quotesinglbase" unicode="&#x201a;" horiz-adv-x="209" 
d="M145 59q0 -33 -36 -72q-14 -15 -36.5 -29.5t-31.5 -14.5q-3 0 -3 3t4 4q20 7 36.5 20.5t16.5 23.5q0 3 -5 3q-22 0 -22 21q0 19 20 40.5t37 21.5q20 0 20 -21z" />
    <glyph glyph-name="quotedblleft" unicode="&#x201c;" horiz-adv-x="301" 
d="M454 505q0 -3 -4 -4q-53 -20 -53 -44q0 -3 5 -3q22 0 22 -21q0 -19 -20 -40.5t-37 -21.5q-20 0 -20 21q0 28 39.5 72t64.5 44q3 0 3 -3zM362 505q0 -2 -9 -6q-18 -7 -33 -20t-15 -22q0 -3 5 -3q22 0 22 -21q0 -19 -20 -40.5t-37 -21.5q-20 0 -20 21q0 28 39.5 72t64.5 44
q3 0 3 -3z" />
    <glyph glyph-name="quotedblright" unicode="&#x201d;" horiz-adv-x="301" 
d="M452 487q0 -46 -54 -89q-34 -27 -51 -27q-3 0 -3 3q0 2 10 6q17 6 32 19.5t15 22.5q0 3 -5 3q-21 0 -21 20t19.5 41.5t37.5 21.5q20 0 20 -21zM356 487q0 -33 -36 -72q-14 -15 -36.5 -29.5t-31.5 -14.5q-3 0 -3 3t4 4q53 20 53 44q0 3 -5 3q-22 0 -22 21q0 19 20 40.5
t37 21.5q20 0 20 -21z" />
    <glyph glyph-name="quotedblbase" unicode="&#x201e;" horiz-adv-x="301" 
d="M239 59q0 -46 -54 -89q-34 -27 -51 -27q-3 0 -3 3q0 2 4 4q53 20 53 44q0 3 -2 3h-5q-19 0 -19 20t19.5 41.5t37.5 21.5q20 0 20 -21zM143 59q0 -33 -36 -72q-14 -15 -36.5 -29.5t-31.5 -14.5q-3 0 -3 3t4 4q20 7 36.5 20.5t16.5 23.5q0 3 -5 3q-22 0 -22 21
q0 19 20 40.5t37 21.5q20 0 20 -21z" />
    <glyph glyph-name="dagger" unicode="&#x2020;" 
d="M605 389q0 -15 -12.5 -25.5t-29.5 -10.5q-15 0 -52 13q-30 10 -67 13q-5 -15 -11 -62q-7 -55 -16 -81q-8 -21 -44 -89q-62 -115 -109 -269q-3 -11 -11 -11q-7 0 -7 6q0 3 16 36q56 114 82 251q11 58 20.5 83t41.5 81q22 38 27 55q-29 -1 -62 -10q-52 -14 -66 -14
q-33 0 -33 21q0 32 41 32q15 0 61 -13q28 -8 61 -8q17 51 44 180q20 96 57 96q22 0 22 -28q0 -17 -8 -34t-58 -112q-29 -55 -46 -102q38 1 104 19q11 3 26 3q29 0 29 -20z" />
    <glyph glyph-name="daggerdbl" unicode="&#x2021;" 
d="M615 386q0 -14 -12.5 -23.5t-31.5 -9.5q-15 0 -53 13q-27 9 -68 12q-10 -27 -22 -80q-10 -41 -16 -57q-14 -21 -27 -51q-8 -16 -17 -38q34 1 62 9q51 14 65 14q37 0 37 -19q0 -13 -13 -22t-31 -9q-14 0 -61 12q-27 7 -62 7q-8 -26 -22 -84q-7 -35 -21 -103
q-19 -91 -54 -91q-26 0 -26 28q0 22 9 42.5t57 106.5q36 66 47 101q-40 -1 -105 -17q-12 -3 -27 -3q-30 0 -30 19q0 14 13 23.5t32 9.5q15 0 52 -12q29 -9 67 -12q4 16 9 48q7 46 14.5 65.5t40.5 73.5q10 17 18 39q-32 -3 -60 -10q-50 -13 -68 -13q-34 0 -34 20q0 30 43 30
q16 0 61 -12q27 -7 61 -7q7 24 45 183q13 55 24.5 74.5t31.5 19.5q22 0 22 -26q0 -18 -8 -36t-58 -111q-36 -67 -46 -105q37 1 105 17q13 3 26 3q31 0 31 -19z" />
    <glyph glyph-name="bullet" unicode="&#x2022;" horiz-adv-x="669" 
d="M650 352q0 -60 -42 -102t-102 -42t-102 42t-42 102q0 61 42 102.5t104 41.5q58 0 100 -42.5t42 -101.5z" />
    <glyph glyph-name="ellipsis" unicode="&#x2026;" horiz-adv-x="668" 
d="M639 57q0 -21 -20 -41.5t-41 -20.5t-21 21t21 41t42 20q19 0 19 -20zM417 57q0 -22 -20 -42t-41 -20t-21 21t20.5 41t42.5 20q19 0 19 -20zM194 57q0 -22 -20 -42t-41 -20t-21 22q0 20 21 40t42 20q19 0 19 -20z" />
    <glyph glyph-name="perthousand" unicode="&#x2030;" horiz-adv-x="658" 
d="M810 235q0 -49 -48 -104.5t-91 -55.5q-22 0 -36.5 15t-14.5 38q0 45 53 96t100 51q37 0 37 -40zM599 503q0 -4 -5 -9q-100 -107 -288 -446q-19 5 -37 5q-2 0 -28 -2q151 209 310 402l14 17q-33 -34 -102 -72q-43 -24 -72 -65q-54 -77 -105 -77q-23 0 -37 15t-14 39
q0 44 53.5 95t99.5 51q37 0 37 -40q0 -25 -21 -59q32 41 88 73q61 35 97 71q5 5 7 5q3 -1 3 -3zM614 235q0 -49 -48.5 -104.5t-90.5 -55.5q-22 0 -36.5 15t-14.5 38q0 45 53 96t100 51q37 0 37 -40zM797 242q0 26 -21 26q-33 0 -79.5 -60t-46.5 -101q0 -25 21 -25
q35 0 80.5 58t45.5 102zM601 242q0 26 -21 26q-33 0 -79.5 -60t-46.5 -101q0 -25 21 -25q35 0 80.5 58t45.5 102zM412 423q0 26 -21 26q-33 0 -79.5 -60t-46.5 -102q0 -24 21 -24q35 0 80.5 58t45.5 102z" />
    <glyph glyph-name="guilsinglleft" unicode="&#x2039;" horiz-adv-x="249" 
d="M305 214q0 -4 -51 -43t-101 -61l7 -6l20 -16l20 -17l15 -12q5 -3 9 -7q0 -2 -2 -2q-3 0 -31 16q-13 8 -29 16q-22 12 -61 34q80 14 199 97q2 2 4 2z" />
    <glyph glyph-name="guilsinglright" unicode="&#x203a;" horiz-adv-x="249" 
d="M265 128q-86 -16 -199 -81q-9 -5 -10 -5l-1 1q0 8 62.5 45t92.5 46q-45 40 -74 62q-2 2 -2 3l1 1q3 -1 39.5 -21.5t90.5 -50.5z" />
    <glyph glyph-name="fraction" unicode="&#x2044;" horiz-adv-x="68" 
d="M435 562q0 -4 -64 -73q-68 -74 -209.5 -255.5t-202.5 -273.5q-13 6 -29 6q-14 0 -25 -2q94 112 275 311q163 178 246 281l4 5q1 3 4 3q1 0 1 -2z" />
    <glyph glyph-name="trademark" unicode="&#x2122;" horiz-adv-x="775" 
d="M1051 636q0 -2 -7 -6q-51 -27 -101 -130q-41 -84 -71 -119.5t-79 -54.5q18 -2 27 -2q38 0 65 18.5t62 67.5q3 4 5 4q3 -1 3 -3q0 -4 -29 -38q-47 -55 -103 -55q-18 0 -44 4q-16 -5 -33 -5q-16 0 -16 6q0 8 19 8q10 0 31 -3q44 15 87 96q51 95 81.5 135t72.5 67
q20 13 27 13q3 0 3 -3zM1171 570q0 -28 -8 -28q-3 0 -3 3q0 1 1 2q3 8 3 23q0 31 -26 52.5t-63 21.5q-61 0 -125 -58q-40 -37 -114 -131q-86 -111 -145 -131l-5 -1q-1 -1 -3 -1q-3 0 -3 2t6 6q37 26 69 124q45 138 84 175q-41 -35 -95 -136.5t-109.5 -138.5t-108.5 -37
q-35 0 -57.5 14.5t-22.5 37.5q0 31 27 31q17 0 17 -17q0 -20 -18 -20q-12 0 -14 17q-3 -6 -3 -9q0 -47 71 -47q64 0 127 65q33 34 111 161q22 35 50 64.5t40 29.5q3 0 3 -3q0 -1 -3 -5q-21 -27 -38 -91q-27 -99 -50 -142t-63 -68q35 19 62.5 48.5t90.5 113.5
q67 89 113.5 123.5t102.5 34.5q44 0 71.5 -23.5t27.5 -61.5zM782 626q0 -15 -27 -25t-68 -10q-35 0 -96 12q-55 -27 -108 -131q-28 -54 -42.5 -73.5t-38.5 -36.5q-63 -45 -130 -45q-37 0 -60.5 15t-23.5 39q0 30 26 30q18 0 18 -18q0 -20 -19 -20q-11 0 -13 12q-1 3 -1 5
q-3 -3 -3 -8q0 -20 20 -33.5t51 -13.5q53 0 90 30t91 119q57 93 133 131q-105 21 -132 21q-65 0 -122.5 -48t-57.5 -102q0 -39 38 -39q28 0 60 25q3 3 6 3t4 -3q0 -7 -27 -19.5t-43 -12.5q-19 0 -32 13.5t-13 33.5q0 34 30 74.5t74 63.5q54 29 123 29q17 0 47 -6
q54 -11 73 -14l6 -1l5 2q62 23 106 23q56 0 56 -22zM776 625q0 16 -48 16q-42 0 -99 -20q64 -13 100 -13q47 0 47 17z" />
    <glyph glyph-name="partialdiff" unicode="&#x2202;" horiz-adv-x="494" 
d="M436 367q0 -130 -47 -238q-61 -142 -175 -142q-74 0 -116 59q-36 51 -36 129q0 79 49 140q52 65 129 65q87 0 118 -93q12 45 12 148q0 167 -63 167q-17 0 -50 -35t-56 -35q-37 0 -37 32q0 34 36 54q30 17 66 17q93 0 137 -93q33 -71 33 -175zM341 224q0 125 -85 125
q-65 0 -97 -84q-23 -60 -23 -137q0 -119 84 -119q63 0 96 81q25 61 25 134z" />
    <glyph glyph-name="product" unicode="&#x220f;" horiz-adv-x="823" 
d="M797 -216h-264v32h84v896h-407v-896h84v-32h-264v32h88v896h-88v32h767v-32h-88v-896h88v-32z" />
    <glyph glyph-name="summation" unicode="&#x2211;" horiz-adv-x="713" 
d="M661 20q-10 -43 -53 -236h-572l398 436l-384 524h550l33 -230h-34q-33 108 -92.5 153t-171.5 45h-142l325 -446l-359 -394h212q109 0 158 25q61 30 97 123h35z" />
    <glyph glyph-name="minus" unicode="&#x2212;" horiz-adv-x="667" 
d="M809 433l-191 -140l70 -225l-189 139l-189 -139l70 225l-191 140h236l74 228l74 -228h236z" />
    <glyph glyph-name="periodcentered" unicode="&#x2219;" horiz-adv-x="231" 
d="M234 132q0 -24 -19.5 -44t-43.5 -20t-24 23q0 22 20.5 43t42.5 21q24 0 24 -23z" />
    <glyph glyph-name="radical" unicode="&#x221a;" horiz-adv-x="549" 
d="M594 764h-57l-290 -784h-32l-156 431l-61 -22l-12 39l138 48l125 -346l252 681h93v-47z" />
    <glyph glyph-name="infinity" unicode="&#x221e;" horiz-adv-x="713" 
d="M659 300q0 -75 -34 -127q-40 -59 -111 -59q-93 0 -148 124q-65 -124 -157 -124q-71 0 -115 58q-41 53 -41 126q0 75 35 127q39 59 111 59q91 0 148 -124q63 124 157 124q71 0 115 -58q40 -53 40 -126zM635 303q0 54 -29 88.5t-81 34.5q-77 0 -149 -162q46 -86 142 -86
q53 0 85 36t32 89zM336 334q-47 86 -141 86q-53 0 -85 -36t-32 -89q0 -51 28 -87t78 -36q51 0 95 59q23 32 57 103z" />
    <glyph glyph-name="integral" unicode="&#x222b;" horiz-adv-x="274" 
d="M364 690q0 -48 -49 -48q-26 0 -43.5 37t-29.5 37q-38 0 -48 -109q-3 -31 -12 -309q-9 -272 -47 -362q-50 -117 -144 -117q-33 0 -57 17.5t-24 49.5q0 47 49 47q26 0 44 -36.5t30 -36.5q36 0 47 109q6 58 9 220q4 169 11 250q11 135 39 201q49 117 144 117q33 0 57 -17.5
t24 -49.5z" />
    <glyph glyph-name="approxequal" unicode="&#x2248;" horiz-adv-x="549" 
d="M531 297q-81 -54 -146 -54q-34 0 -105.5 23.5t-109.5 23.5q-60 0 -152 -65v69q86 56 157 56q38 0 84 -14q29 -10 88 -28q21 -5 43 -5q54 0 141 63v-69zM531 178q-79 -54 -146 -54q-32 0 -105.5 23.5t-114.5 23.5q-55 0 -147 -65v69q89 57 158 57q35 0 84 -15l81 -25
q26 -8 49 -8q53 0 141 64v-70z" />
    <glyph glyph-name="approxequal" unicode="&#x22f2;" horiz-adv-x="549" 
d="M531 297q-81 -54 -146 -54q-34 0 -105.5 23.5t-109.5 23.5q-60 0 -152 -65v69q86 56 157 56q38 0 84 -14q29 -10 88 -28q21 -5 43 -5q54 0 141 63v-69zM531 178q-79 -54 -146 -54q-32 0 -105.5 23.5t-114.5 23.5q-55 0 -147 -65v69q89 57 158 57q35 0 84 -15l81 -25
q26 -8 49 -8q53 0 141 64v-70z" />
    <glyph glyph-name="notequal" unicode="&#x2260;" horiz-adv-x="549" 
d="M501 139h-279l-117 -117l-39 40l77 77h-95v58h148l79 78h-227v58h279l117 117l40 -40l-78 -77h95v-58h-147l-79 -78h226v-58z" />
    <glyph glyph-name="lessequal" unicode="&#x2264;" horiz-adv-x="549" 
d="M503 127l-456 143v61l456 143v-64l-351 -110l351 -109v-64zM503 0h-457v62h457v-62z" />
    <glyph glyph-name="greaterequal" unicode="&#x2265;" horiz-adv-x="549" 
d="M503 270l-457 -143v64l351 109l-351 110v64l457 -143v-61zM503 0h-457v62h457v-62z" />
    <glyph glyph-name="lozenge" unicode="&#x25ca;" horiz-adv-x="494" 
d="M491 289l-244 -522l-244 522l244 518zM435 289l-188 399l-188 -399l188 -403z" />
    <glyph glyph-name="apple" unicode="&#xf000;" horiz-adv-x="790" 
d="M566 808q0 -52 -2 -62q-8 -42 -34 -68q-30 -30 -68 -53q-7 -4 -56 -9q-3 30 6 52.5t34 67.5q28 35 54 48q38 19 66 24zM733 213q-61 -131 -109 -174q-14 -12 -27 -24q-17 -11 -47 -16q-8 -1 -17 -1q-29 0 -55 12q-43 20 -69 20q-25 0 -69 -20q-27 -13 -53 -13q-9 0 -18 2
q-37 7 -63 30q-60 54 -109 160q-41 89 -41 190q0 23 3 41q20 108 86 160q51 40 132 40q27 0 69 -16t63 -16q22 0 47 11q36 14 42 16q18 5 44 5q81 0 132 -40q14 -11 38 -38q-47 -34 -67 -68q-27 -46 -26 -100q1 -56 33 -98q23 -31 43 -44q19 -9 38 -19z" />
    <glyph glyph-name="fi" unicode="&#xf001;" horiz-adv-x="311" 
d="M402 352q0 -18 -14.5 -33t-31.5 -15q-22 0 -22 22q0 16 15 31t32 15q21 0 21 -20zM422 503q0 -43 -61.5 -109t-161.5 -129h53q60 0 60 -51q0 -23 -12 -44l-53 -91q-24 -41 -24 -61q0 -22 20 -22q43 0 150 155q2 5 6 5q2 -1 2 -3q0 -3 -5 -8q-1 -2 -21 -29
q-93 -127 -136 -127q-23 0 -37.5 16t-14.5 41q0 31 34 86l42 68q15 26 15 40q0 18 -22 18h-62l-40 -78q-72 -141 -125.5 -215.5t-121.5 -131.5q-94 -78 -175 -78q-36 0 -36 10q0 4 5 4q4 0 6 -1q16 -4 33 -4q66 0 133 59q41 36 72 85q25 40 120 213l75 137h-52l4 7h53
q62 106 138 183.5t117 77.5q22 0 22 -23zM416 504q0 16 -16 16q-37 0 -101 -85q-32 -43 -96 -160q80 55 146.5 126.5t66.5 102.5z" />
    <glyph glyph-name="fl" unicode="&#xf002;" horiz-adv-x="308" 
d="M495 499q-205 -342 -239.5 -402t-34.5 -78q0 -23 19 -23q42 0 151 155q2 5 6 5q2 -1 2 -3q0 -3 -5 -8l-21 -29q-92 -127 -135 -127q-22 0 -35.5 15.5t-13.5 40.5q0 28 12.5 53.5t86.5 148.5l44 73q20 32 57 98q-48 -64 -190 -153h84l-4 -7h-85l-40 -78
q-72 -141 -125.5 -215.5t-121.5 -131.5q-94 -78 -175 -78q-36 0 -36 10q0 4 5 4q4 0 6 -1q16 -4 33 -4q66 0 133 59q41 36 72 85q25 40 120 213l75 137h-52l4 7h53q64 109 139 185t119 76q31 0 31 -24v-5q18 -3 28 -3q17 0 33 5zM428 502q0 18 -24 18q-42 0 -105 -85
q-37 -50 -96 -160q83 55 154 127t71 100z" />
    <glyph glyph-name="HT" horiz-adv-x="177" 
 />
    <glyph glyph-name="nonmarkingreturn" horiz-adv-x="177" 
 />
    <glyph glyph-name="DC4" horiz-adv-x="1000" 
 />
    <glyph glyph-name="glyph250" horiz-adv-x="177" 
 />
    </font>
</defs>
</svg>
